<mxfile host="app.diagrams.net" modified="2024-02-05T13:32:31.504Z" agent="Mozilla/5.0 (Windows NT 10.0; Win64; x64) AppleWebKit/537.36 (KHTML, like Gecko) Chrome/120.0.0.0 Safari/537.36" etag="QGf2VI7BtzcqNovKOBHu" version="23.1.1" type="device">
  <diagram name="Strona-1" id="1_zWxn2U2BRLdHnjBuYS">
    <mxGraphModel dx="1259" dy="662" grid="1" gridSize="10" guides="1" tooltips="1" connect="1" arrows="1" fold="1" page="1" pageScale="1" pageWidth="827" pageHeight="1169" math="0" shadow="0">
      <root>
        <mxCell id="0" />
        <mxCell id="1" parent="0" />
        <mxCell id="BBOlooGt3nP8J8cSU1Di-1" value="" style="shape=image;imageAspect=0;aspect=fixed;verticalLabelPosition=bottom;verticalAlign=top;image=data:image/png,iVBORw0KGgoAAAANSUhEUgAAA+gAAAPoCAMAAAB6fSTWAAAAulBMVEUAAAAAADoAAGYAOjoAOmYAOpAAZrYRdzM6AAA6ADo6OgA6Ojo6OmY6ZmY6ZpA6ZrY6kJA6kLY6kNtmAABmOgBmOjpmZmZmkGZmkLZmkNtmtttmtv+QOgCQZjqQZmaQttuQ27aQ29uQ2/+2ZgC2Zjq2kDq2kGa2kJC2tma229u22/+2///MZnfbkDrbkGbbtmbbtpDb27bb29vb2//b/9vb///dzHf/tmb/25D/27b/29v//7b//9v///9ub1YUAAAACXBIWXMAAC4jAAAuIwF4pT92AAAgAElEQVR4nO2d6YLkxnVmqyWa6BFlyqaoGZqUrBk1LVsSyhJtM5qkut//taayEnnjbrEBgUws3/lBYokNwD23KxJI5NNHAMDheXr0AAAA6wPRATgBEB2AEwDRATgBEB2AEwDRATgBEB2AEwDRATgBEB2AEwDRATgBEB2AEwDRATgBEB2AEwDRATgBEB2AEwDRATgBEB2AEwDRATgBEB2AE1AU/QnMAGexB+uE/Dkpix7uyDiOc6sOr/DVoFbEJrn60u+gdtOOK9TEQLVpsLTxuuVl1Yo+97C2yPVUj3l4iaoKFojeEYg+9QvRq4HoOwSiT/1C9Gog+g7Zluid0M6qDGDTyaDShKpGAos2qI7NIMcWPdAJcwXmZ4cWIPqDgejTRojeAkTfGxB92gjRW4Doe+OeolvBppip3lrDtea1r1HNvUczrW4gxrHbBt9+eNGJgsC5hADR7wlErwaiO0D0nQDRq4HoDhB9J2xljp6bVvfDTzUZVJbw5/K26KlEzzk833KI3heIngWiF4DoOwGiZ4HoBSD6TtiK6KsyeLfUAotSv04ofqxA3o/sUbAA0ZXocyyH6H2B6BB9CRB9J0B0iL4EiL4TdiV61cRdFZrCzd2XbK/Q0cielKNQptVwPtHnywzR7wREn9ERRCcg+k6A6DM6gugERN8Jjxe9yt4ro5wxDzVVx5E9I2d7HPM33PgUvpAWqJ9wStFXcB2idwSiQ/QlQPSdANEh+hIg+k54vOiLyeg+RSDfVDC73EOmO3L9PKKHRa7na0D0jkD01h4gugKi7wGI3toDRFdA9D2wFdHb/Ku6L+YUslPuwjTfndc7JQZ2hy2caY4epOgtvhdLQ/SOQHSIvhCIvgcgOkRfCETfA3NFLwgyJ1pWaKCsMXk6uGV5/pkKpNrkOeHsole5XiwN0TsC0SH6QiD6HoDoEH0hEH0PVIs+JibRnYyf04zvJrdXFFKl+fbG3nn7vAE6R2cT3Zqbc702LUD0jkB0iL4QiL4HIDpEXwhE3wPLbq+JWE+lgsVhlNo1NvSY0r2NqUfb73h7yiuc7Mk4R9pay3kDEH1tIHoLEF0D0XcCRG8Bomsg+k64z5Nxi+zyqZV8yPTNd+msMSRm9H4zFMGJEIXoKdHdZiB6dyB6bA+itwPRdwJEj+1B9HYg+k6A6LE9iN4ORN8JC0SvVW0T2NjyC4WE0/FgVXZwS59W9JTexvK86xC9OxBdFgoQvQmIvhMguiwUIHoTEH0ntIjuxnRZn2Vh1LV0xmTRAAmca5KXpjpXTiK69jal/MA+xHCwjV1LQ/SOQHSvAYheBUTfDxDdawCiVwHR98NW3hm3ACWcYkx9lOA4PHp32Hig6no2G0B0LXrOb3eZyMTm+6enf/g+rn747ZPcoPgpvWsGf//105s/9GzwHkB0WdaWgOhJtiJ6wfMP3/b1EqI/Boj+KDYi+qvnnyY97+4lRF8pmHq3Z30WndjMIHbzBq6hHGSyOY/oofhknLvdMT543y+sFL3g+T697A5Eh+hLeLzoJc8h+isQHaIv4eGiv3r+q1wEQ/QLmxNdi22vf3N7ek5N0DxSbOL7dEs6KdyKqo1nEz1kjLf2i8k7b0m1XSN62XOI/gpEh+hLeLDojucf/v03b182/vzzP72uPj9NfHPd/bfL3je//D2r8d3vXjb9/OtLYzEj6HIv7Xzz4du3L5v+wDKH6mzDQHSIvoTHiv7q+Rdiz3++vZn99PklFUjRf/zytvrJn6cKH76dtvzD/0TRfzDlLqK/u2x4w0TXnW2YlUSfaeUK6GAa5O8sioHSCtedL4y8apBhHm7JYTjrHD0Udc+JHkzUFEV3PP/2ifHpRyX6D1FMcvodbfnky9vG97bcSzufXfPB9yS66WzDQHSIvoRHin79vF1vf/rk8mf0h799eXM0/gP8svT05uv/ftn71188Pf3sL5dtz1ONH38Xrb6Ue/rVS7mfLirHck///P3Hn/5MDXqdbRaIDtGX8EDR/+e3fO595V287Xax9ZtpYZLwnbwp98VUaro390yiv5R78w11dM0lzzGp3Br0OtssnUTXl2wFFvfguukzyntmVa3yLecRPdh0mSmnLc/Xy4v+yTSNvv6De0V8wP5u+rOeNr4sxMIvf8VfVt6zBt5Nol+spQnB81TgOf6bPTXodrZZILoHRG/gQaJf+Po5Mzl+1qK/52Wnj9i5oO+f6E/ymBBu/1Y/x43e/bpniN4LiL5RHif619eP0hzDfvruj7950qLT53Lx87nLX/D0J/et4LN+kP4LuVGLzjvbLHe+vaZvWXWCB4y92dVWv7Q1fwTXaD6V6FX4c/Z8nZLoL55fP18T/7x+96+f0WfmUvR3WvQvpLO3++jP4q+EdyT6bSOrZDrbLBBd1y9thehz6C/69HHZezlN/9uX0uSPa4rudLZZILquX9oK0efQX/TbH9Lv+DR9mrs/ffaPX/3JzNGdD8wWie51tlk292ScDwVFTrPyrFsVHW43xUI+Bbn3gkTD1900A4XoDvwzkqpE3PDttWmefflD/udf/dd1xXzq/mw/uGuaoyvR3c42C0SH6HdiJdFfH3e7PdHG/4w3oou9sRDJ/9KQ/dT90vr0qbsS3e1ss0B0iH4n1hL99dP069qz1FaJTlvY1pb76Ep0t7PN0ih68+x3K5DTXHFVwD80+5Scrk2rQ/L9pRB9Bm2vkrossT+6f/z1baN4Mu71o/pLnemxNvZk3F/5k3FPzpNxVnTb2WaB6LEARN8W1S+HfH02/ZuP7Onz716fXCfRp39tX7/TcvlG6evD6VeXb8+6vz7Wnn/W3f7pbjvbLBA9FoDo26L+dc/vJ0c//FbeP4vfWY+JQN8OEzfdpn/6nW+5WdHdzjZLWfTaGVU7DXPqQuml/SZvr3GHQ/4BQF4UovegXvRXW1//Eo93tj//D/HFs6vX8Xvmb/5lqkrfR3/6p3ivzf0+ur695na2VSB6um2I/lgaRH/9Y/ui8oe/XZ5GffPLr75n3yi7fCn19h6a1zfHPH32Fav9+oaZN7/6b3FT/fqGmfjmGO+BGbezjQLR021D9Mdy759kEt9uOxoL5ugF83YwnXfuqLm34TSZQ8McPUdbTNxDdHWPbNvz7CVA9OwmiN6VTYpOL3r87dY/OV8CRM9uguhd2Z7or4/Vff39Pl4HtYSdPBlH8IfZFlDls3pvVK4BtR2i9+Auc3Rxd+3re/T4GCB6bDVZCKI/hPt8GBdf5frmwJ5DdNZqshBEfwh3+tT9pz9+9nqT7PeH/SDuAkSPrSYLQfSHcO/ba4emk+jxZWArX/x7wpOKcD3ztCxE7wdE7whETwPRHwtE7whETwPRHwtE78gs0avuLlfdMy1nhvvfjqcnX6vSljs+iL4AetoYoncEons9QvQHAtHXAKJ7PUL0BwLR16DHiyeSLvaesq8gPUVV3MRHXejR3qW7VoDocxkYEL0jEB2ibwmIvhIQHaJvCYi+Esu+vUaaDH0c1G9e7popapMUf4FzW9vD7bfXF4hOnVK8V1fdPYMEoncEokP0zQDR1wOiQ/TNANHXY9Y744bb3adBzW07iOk3wcNfLfTlehBk7MwmmkWPSg+Gco+7zQb8GPkhJ17fAeYD0U33EP1uQPS7AdFN9xD9bkD0u7HgSy36EvEdvJxOCIFNZm2I5gRbYe7OE8cyW/i312eKnmTRwDaMqzjlWojeEYgO0R8HRL8bEB2iP47VRde/6NKM+PWWHD9t/EVUdaK7sdYQgELMTE5YRlVj3OxkNQq6tq6pwpzbayLS87ofQ397gKNkR6J/+Hbrb4qG6BD9QRxI9Op/9x8HRIfoD2IXotdxCNGdkCoEGd/NZSnHZizhSkbxHffOiXel8XC7nSPuGao8UO5nvD3VF2Y/GadD3nVdrzQf/ibIKw7RuwPRIfojgOh3BqJD9EcA0e/MY37AoSo+G4L4GhhzRjKyO3Z+SmoYBhVd9qWWBqqb3SB50Yfs7bV3T09ffPzw7dunp59/9d9s+99+8/b1R1du60z0b6ffUHx+evrmUvPNL/8v1/OlxW9eFz788RdPT0+3JpjCH/790vjTzz//kxrM8+03nb7xBxF7/IO7/7XrH3/3ejDfs+Oj2j1+4xWiQ/QHsVT0yw+hyp9M++HLm3Kf/Pm6JYp+8/xVu9dfVnzzB6bTi9A/+8tl4a9vb038Zdo+if6ftx1PT5/LPxKk6D+aQbAe3f0X0b8VvUL0BBB9hywU/Z9+TeJNTryPKt7svIn+4R1tehHns9ci//D9++jQbfE5NvFakUSPv8X4pM0Tov9gB8F6dPe/u+2nXrciuu+BUs0Nw6hTKkofH700Ob6u+gNKfYZwXVgsOp+g89g/jOWhJHp+jn79B/Lr71/+0H57E+bvF/N/9fKH/E8XKa//Pk+iM8+vWv7z9x9/+nP8Z5z+cn/9ufTfXx6AmfLHTfT3l39tL3+zu7+jHv/dvwzizdcvg/jw11/cBsF6dPe/HsznLzv/9vb2ZwFEvwMQ/T4sFf1n1798L25+Om17M82S39/+1b2K/uG3VPqq3aexmWuNm/LvbvJdil2Wbgq/i5P9i6vfyOFE0Vm5S69fOD2a/e9o/+VYbpsg+tpA9PuwVPSbbO9JSZLjpulV9ItR09z3uov+Qaa/3acF5vDkrvwfdU4dicIf+d8Ir9q+rrAe3f0xu1wWb0lrC6IrphhMzZJpl45NPj92dq8TymoqPqjbdbVTfRqcqpCYXTZ90qF8VjPXacvORS9aXhSdbptNdr5/Yg7djL2I/j/Cc8oBUzH663kqHtu4lTA3zp7Tor/nVr4kmNvn/LdW3f3v4sZniN4LiL4Jlov+hVp55rfMb38Wv4j1yZfy0zNR7vkq+E34Z3PbXYv+03d//M1TWnT2WV78fI616u53rIboi4Hom2C56N/wlU+1EO9IdPHB/EdV7uWv508/is/clVRM9O/+9bO3tjlZ6p0W+QvZqrt/H6KLQFdO03/9qFwzVhtUSCaYZANuCX6Yi3/AYTA4oh/F9aWiPxdEf/N/+Ofkz+qv58s/5bfmMqL/7Uvtp1cKokP0JiB627/oX2RE/+TPYkr/rP+Q/yZO1dOi3/40+Owfv/pTZo5uP6f7qEW3+yH6AiD65lkoOgkzzceTc3T1ibwU5/Vvd/qILDlHvzTw86/+y3YuSiWsfLYftqUOBqK3AtE3z0LRKfony8Qn5pcb0rdP3b+//p89MMPEef3b/fn29wFv41rOazwjuv3YXvbo7s+L/u6BonONr4wj+2DNBmC7c2Plh2IPxx1opx9ZtKJHdm55WCw6zbrjoy2J++gfr//CT/9Wq38hn5/e/L/f3uxj99GnvwkmhXkleqolQqKLfbetrLK73xf9UyoE0bcARJ/LQtFv4vKnyZ78J+N4KS36y45/esvn0JPz8TGcSfTb3/Q//vop/ZHd6yCmL9l8uH0ywHv09juiP/MH4SH6FoDoc1kq+tMnl4fSL8+6/+z2RbPUs+4fmTpK9Mu/3PGTPXrW/d+e6Fm56U/366Pu3/3u9TM5K/rk6ut3Vi5fZH19Jt5+lu/td0R/Px3e9atum5ijazev1yh3cXW9pcxpKTeMcnvFEiuI7jCrze3ARXd1z4sev/B1+yPe+WJYFJ3+eNcfbj0/8Xlz4ttr13Sg9kWm3dOnAvounOjR2e+IHvv72X9AdDOCGXUg+sNYKPoXt2+O377Wnf8+Ov3xrkWnL8Vcoe+jX+vd/ij/e7yN/vl/2E/UnqO3cRBv/oV28s/5zX7vI/Zbf2/+8B6imxHMqAPRH8ZS0T/+ePkzOr6o5cL15S3xHTD8VVLTB3ha9Ms/nvzLaIk3zHz42+XR1ze//Op77+trHy9fOn36FRvE02df+Xfu7X73Xtrr11jf/Or7j48RnYcXLY/0xrUw79fFk1HQXE3lmKomBroJyGuP3qOytXQSnfd+YNfpQ4dG0fsgvlB2XCA6RH8cWxC907+YWweiQ/THsQHRb98VPTotoqem39PGQX0RzJaouepxpT1umnBzVsXwa0Z2H9EXtLmIrr3zA3qA6Jd3Rt3jhdAPB6LLZYheO6CujT1G9Nc77+f4Bx2iq2WIXjugro09RvTr3epek/1t0357bbjNZUf1oyY0O1964dn/2iot7DfGWltVW+Fuc/RH6d6v94eK/vJ3+8+/Lpc7AhA9NgHR28fUr6Um0UErED02AdHbx9SvJYi+Ki2ip66r2O5e/1xE2H3juO53Nigj8U6E3205yx7yyqIvaOyeNIwUoq8NRGed2hJV7UF0H4i+ISA669SWqGoPovtA9A3R8vvow+3+mRJEX6/aa9wcss2z5wbiwOeMnYLzutpV9Di+bYruD2jOSJXuEL0jEH0Cos8Fou8BiD4B0ecC0fdA9Rw9L/B0gagQV1LXye2jxnhp1V4Zp3Qx6ESnKrcFk97iOoUl372C6GKgW/TdMmeI3HWI3hGI7nUK0XsA0TcERPc6heg9gOgbolH0TpdZieSYTJvcmO4U5Sqh+LfUuOtxFk7Dco9gZdH7Ndbet00zXRMP7wGidwSiT0D0ur4h+j6B6BMQva5viL5Pevw+erxGgX1p3Z1WT5NZGxXlaXVDJDlZI1M67k0N2anP5+i28pqiP5IhQUP92k4wR+8LRIfo9UD03QLRIXo9EH233GGOnrw1Rle0KjCUV1WM/P20qRKBBzD3NpmwUoOg7fcRvdmzfj1a0eNIUmNSRZMDH3B7bQUgOkSf0SNE3xsQHaLP6BGi741Zr5IqxIKKiFzR1D2tC+OMZ+KS2GYKx0EfJriTcN2S2ncH0avO8AqkXNei512fVjI9QPS+QPR0BYhe6Bei7weInq4A0Qv9QvT90On22ljjY7mMvvYUGFX5olCumZxFNpr5lqPO0alfSoMFqELIn07e9oA5+gpA9OxoILrfL0TfGxA9OxqI7vcL0fcGRM+OBqL7/UL0vdH3EdjaoMsUdW59NyQIdyE5Jiev5D4dtJX48hkegb1SkLuYBKrahuh9gehyHaKXgeg7BKLLdYheBqLvkO6PwNpyjk5qmdtV28+ckZRyUb7vyWQ1TP4MbbjlimOLfqWge4FiqyXR6we6RI/jANHzNRgQXQDRdwVEz9dgQHQBRN8VZdGr7pxN14gvuFdzpC+FBWO8LybvvSxpW5qgh2ydQyy3xEvc/xHYh5N0eJSoXQXRedsQvSMQHaLPA6LvCogO0ecB0XdF93fGVcGvP1Xms91yIPQYjOo9fkvNHUPcorKDzUVnED14rout1nXhfbFhiN4RiB57h+iNQPT9ANFj7xC9EYi+HzreXqsxdEI4XZyHN2QQf1Q1I2npdGA3BVVLV84putiqLHen7AXXIXpHIDpEn81+RX9++ofv6yU5AhAdos9mt6L/8BaimwLTWVdXl28UV4w7TLuFE6QJn+c6LVXtWIQ6jrhe1Z1NUrT91KKH2yWnE7Q10f/+6yeIbgpMZ11d3QDRIfpORf/xxXOIbgpMZ11d3QDRIfo+Rf/r2yeI7hSout7TJQxGE1oeldn8yodU1rDr6xg/0pfg3bHrAdHAafiqwElET6IywMiosjysJ/qPv3ux/BcQ3RaouqwQXRSA6FsV/YfLP+dfvIfotkDVZYXoogBE37Don/z5I0R3ClSdTDHZttPWcBNbXGYuekjctHJI+jcnCYhEVDuCwH6D0W3yJKLnznnKdbE13/wqov+vr1/+C9GdAlUnE6KLJiH6VkW/AtGdAlUnE6KLJiE6RN8Y7bfXkriu04K4sjYEnPaKnfqhkqyWEbPQi9NMvuuTiB7yJ2/IvxG22DZE7whEh+hLgOg7AaJD9CVA9J1QJzrXtfb8qhm4sy+lTDkKBrqTZxtwfM63Vz4mXYKv2zEMp5mjF5jhtgCidwSiQ/S1gOgbAqJD9LWA6BtijVdJ0YI/Uw/8MTnvdUwt2E756sh/cyHPNJSqcbi5ia9C9AsQfUNA9EADgOh9gegbAqIHGgBE7wtE3xBr/GxyWRZ38t4cCIWq9BFAvIOX6aIqDqd4LTZ2EtELp4zLDdEfDESPTUD0RiD6foDosQmI3ghE3w8QPTYB0RuB6Puhk+jiihbK8g/gVLVZrucrTWLW6FkmfniYb+YMoi86kVVA9I5A9BYgemTPop8QiN4CRI9A9F0xS3R+jfX1rpp7p9KCnsnZmR1fnR6x5fNm1fa0PCcm3TqDO9W0W84g+vpA9I5A9AQQ/eFA9I5A9AQQ/eFA9I4sFv2K/qJa6tFWoaTThv1Fl+DdjNNNFKbfNTNrR+CQzkgFIHoPIHpHIDobmbu1WNMBovcAoncEorORuVuLNR0geg+ysTlUs0SP47Ds9poWTs+gmWB0iysqmZrtRudU++oJt5ybeqrvj7eShmrXriB6DyB6RyB6BRD9IUD0jkD0CiD6Q4DoHSmL7uvEiQXG28sb7LNo/FZY9XR3lG8Lzo2gquFUggmUNTLN6O1qna9C9B5A9I5AdNZEgOhbAqJ3BKKzJgJE3xIQvSNl0cfMDNW/zRXMrbEGtyNKcSVpbFKVcJrIjE8UtV3nGsuMG6L3AKJ3BKKzorbrXGOZcUP0HkD0jkB0VtR2nWssM26I3gOI3pHGX2pxqbr7FAulrBQMtxm+mvDzJgoM9iE8vk4fIGh/a56jS/Z4XYDoPVhH9O9+94unp6fPvsIbZlSByymH6FVA9K6sIfqH3z5NvPmmWZY9A9Eh+lZZQfTo+QunMr3l99EHM4sd3V9RbH6QzNlC7Ssce0PirbJu81NpN3fE22vJYan1VKcQvQcriP7uxe9f/feL8H98+/T0s7+0+7JbIDo7oADRt0R/0f/+66enr6+LP7yY/kWjLHsGorMDChB9S/QXnb/m+eUf90/bXNk17V9qGdjs2dGOYt/Ohx1I4CDnxmKCzrsbbo/Z+fWCSUe3Bo29js+2BM8gftZwgeg96C/6M/tX/GTvdofo3tj5kUL0R7HufXSIrgro0w/Ry0D0Hqwr+jP+dJcFprNO8nFBlApRtappesEcPpVWwl0ZR/adF66+7kENuWFkqlNdgoaldkP0Hqwq+uVGGz6M4wWmsw7RIfqdWVX097i9pgpMZx2iQ/Q7s6bolxttZ/oHvfX76FaTeEKDfBurmjo75BrmDqv2RAWueFWC4W4GZmjMF6lhxR7zDQeI3ocVRb/84X6mj+IgOkTfLuuJfvH8VH+4Q3SIvl1WE/3HL0/n+Yzvo1vhpvjOOGJXNarmMMipeaExt5CDO5EPKlvp46qc1/Oxbkv0quFvkLVEvzz9+snJPIfovEeIvilWEv2vT2ebn1+A6KxHiL4p1hH9+fIFttN5XjlHp1DhE28lYuKO2wymxviEP1kudi89pRJiPWW5KJGsnapnW92Q6Dzk79Zjn4ZWEf3bp5PdV5uA6BC9f499GlpD9Jd/z9983WzJAYDoEL1/j30aWkH096d7hdQNiA7R+/fYp6F1XjxxTs+X/D46D55hSNzDbogwatXZShTtr+gitSv38V+uGS7SdWHnos9XtWtGWeX76Jwz3UuH6HEXRI91lvU2s7aiu+ji1ZAQXRXwL2eA6KIqROe9zayt6C765S93iJ4qEK/f9fRz1ZbOxgUDn93bgFGK9+t3AalBbEj00HTOVM6a09XQ7RLhl1o6AtGXANH9+rXd5YHoHYHoS4Dofv3a7vJA9I5Uz9HVPaQhdReNgiSXBPJP1W4CHq7+cfAZ/SjfXrct0a+UHbaOLO5rUTMQvSMQPQFEh+hHAqIngOgQ/Ui0/FJLYFFP/x34fTV+Ucv2qhAQndRUWJtCd4N5m90+RE/K52qyoJOQyZI1QPSOQPQ0EH3Doo/VLNHjOED0NBAdoh+GdtEDu9OVCxi7vetUPBk/nXqpik9+OjibE911mLuYpKptp58Og4boHYHore3bQhDd6afDoCF6RyB6a/u2EER3+ukwaIjekVlfaslcabHOE8JIv5roV7o7CwZAhthmrqubE/3KCpYHltfbq+aB6B2B6LOrQnTeqm6sw3Ahekcg+uyqEJ23qhvrMFyI3pG+otsLTIqLXWN6Hp3ZtZxyAJajVAW1W22joivioF3F9fFl2hBnQ52L+dJD9I5AdFMCokP04wHRTQmIfmjRf/rjL56e3nz+p0ZR9k4P0f3rH6S0vsBV5tllaj75vZmu+cKJ92s0j+xDCB7fuxFdrGTw6+XrVLSUZxXR//p2eo/U5+f6tRaIXgFE9+vtUPT38Y1x5/r9NYheAUT36+1P9MvrIT/5/cvf76f7ZaZVRc9dV7VvTN124+vN9rYFVkublGrcLvYhuoAOy4qZlFYZ5ezemujP9A/587leAgvRm4Ho+xX98mL36ZdaXv5tf/OHRln2DERvBaLvV/Qf3tI/4xBdF+gUQiGlnbr+a7gZes3Zx1FOyoP8WXQqt0PRgxTaldRxv+C6baxhPKveR38RHX+6iwI94kctOOFlS/cFopc5lejvnp4+rZXkCED0xlYg+hFE/+7Lk30Wt1D0qgvHL/DoCldIBZnSnZLCQM902V78kfGDOoroV5Ki892u5bnksCXRf3iLB2acAoWgqI2c6zJE3zzHF/360Mwv/9wkyt6B6KxJiB5OIfrP//dvnvDAjC6QvDr+dmWyK7aztTYEeMpoqTcHLrDox9kk2b/oVTSITvsaRrLmh3Ef/u1kpkP0Ul8Q/Yiin+7ROIhe6guiH1P0y2Pv31RacgAgeqkviH5M0S930k/0t/uyD+O0sHx9TH21bLQvouhMp7ZtM4NSPNXRsUWnQgXR3cYaRgLROwLRW5qB6PsW/T37Fjr7gssZgOgtzUD0fYv+w9v4TRa+fAKqRbfXSFueIlmON5kLgXJ4zDS7qtrIZpciXkfzaQS1t2fRQ9H1kBZdyO621DCMdb6mOv2Tfvks7kzvmIHoJSD6cUR/fSju8oaZD5dXx53pH3SIXhvQPUgAACAASURBVASiH0j0j9/Gd8Y9fd1sy46pFv160igQynHCi+oKPArsdh/l1RRntKR25KqmRhx/TaYwFF7JNv+yulvRC4pz8pLnskQtq3zq/nzT/M2pPIfobMQQ/QSiX9/r/vTL359ofn4BoscRQ/QziH5SGm+vDbdnnJwAoSW+g9ypEkdvutaznsZEUdtYsXtxBG56aojSfYpuHS677kivtJ7vOkTvCESPBSA6RD8sED0WgOgQ/bDMejJulFPicvyMbHZfd5eOYqYcDw26F8o1ZIM8OxedO1zGcStTumE8EL0jEJ2Vg+gQ/ahAdFYOokP0o1InOr9AJOZYcxuKdufK+a5TvTFzW09tyq/GvmyPUxDaGnpLqhzfu1vRraeh5p6bb9hS14uxCeqB6LEoRIfohwWix6IQHaIflpY5urpMbVetQNJ16sIvMWY/Llg2Pj9JXVfG7AcI+xQ9sI9GyNPrdl/XnOWu6G2DgegdgehpIDpEPwwQPQ1Eh+iHofH2Go8C2lKOnIarK0qnqjrbKZJUiIoShb5TJUSgqlxnl18Wdiv6IB+Lo40FkqKrBtoGA9E7AtErSkB0iL53IHpFCYgO0fdO3Q84DPKbJXQpg3KOq6Y2xoUhfX9Kb3TThCikRraYosZVlY8iOl2qWZZz5gwGoncEoqcbh+gQ/TBA9HTjEB2iH4aWt8Dyi0obRZDMuZyuzEl01kjVdgZTNb4xNcOvGROxW9GD53oU2vqdFH3OiVRA9I5AdDMaiA7RjwdEN6OB6BD9eDQ+Gaeuv740o/c9l+E2cReFmqFmdHapDSZ3WH4XfLeT1dwe+Uh2LrqP477clXR9pu4QvSMQPTFSiA7RjwRET4wUokP0I9HyfXSSTF07cR25xlyWK6a4V20uVfFkBdb7Ms0M9kTozPPKgURPuV2yXBWq6ldtgegdgehmH0SH6McDopt9EB2iH4+y6GAGOIs9WCfkzwlOJgAnAKIDcAIgOgAnAKIDcAIgOgAnAKIDcAIgOgAnAKIDcAIgOgAnAKIDcAIgOgAnAKIDcAIgOgAnAKIDcAIgOgAnAKIDcALw4olVwFnswTohf04a3wI7541ADYjXO9E7iKhJ9f4q8Yoi/kon/fai8fYrcXwH74u96Er2wl+ONK2ql0iphWshK7p47VLVS5rc4y2cv0Unvy/uAbXVhOgdgejTMkTvC0TfFhB9WobofYHo2wKiT8sQvS8QfVu0vO65+UovKOduTZqs9o3qTc5KGL2bfFZtUrnx9mOCMWr5JmVsTnSuu6oWuBxV5yhzgh6PTVi+7u7BQvTuQPQLEL07EH1bQPQLEL07EH1brCe6xQqWbluVVarGiHDb4woKgcfb7ycqseKyOzihJ9eV90hFy6Lb5BB75moUztE+8A+T77YLEL07EB2irwtE3wQQHaKvC0TfBNW31/Kx5juXLGub5FGQc44vD3ZTkNrpBlw3xRGocSixnYk895uWy6Jbak/f3nAzV9yXOnKI3heILo8AovcGom8CiC6PAKL3BqJvgpYn45Ze7OT6nCwRMnN0vhAtFetso//RAb9zpnvk991GemSO3TNrFn3WudgZuSOz+yB6XyA6RL8TEP2RQHSIficg+iNZ9ck4HcQ111xUKicEsjdVSMysacpNHYkKtMTLBZk7YjNW8XDLAVWi5w7ocLQd1rU0RO8IRIfo9wCiPxiIDtHvAUR/MGvM0TNx7IjfEAJqoj3a2bXNDCNZyWfWfpPuoYy3p+lEb3wcNBr6b8McvfbY90/DwV5PDUTvCESH6HcCoj8SiA7R7wREfyQrPRlXuKgpqWqjQIeE3UcijmpeTt7aCoNedz8qUNmFG0vT9ILoQaaIsxmvsbED0bsD0SH6o4HodwCiQ/RHA9HvwKw5ug3LXLAqEX0rR/kIWoFYmutppReFAnuSbWBz6uQR8N364wDe5MBeDnXd5Yuu6p/KdZVGq4pC9I5AdIh+DyD6g4HoEP0eQPQHM/f2mjNTtRcrtepccHunrBF+nyyOiURPaUzT6tFNNepOnOgoyARDnwXk5uh8ZHxUh/c9d1juPojeF4gO0e8BRH8wEB2i3wOI/mCqRXdNHIqT69q45TfBauuN+TFFh1UG4D3kjkCZF1eofVpVW6zooj1HbkvVadsNVWdY7YLoHYHoEP0eQPQHA9Eh+j2A6A9m2Zda6H7SMLBbUe4Frs0Golw+5B3RldI6cbhax06S41A96nty8tfUcnP0WtGTp2qvlEVXJyXg++hdgegQ/R5A9AcD0SH6PYDoD6Ysei7uClFZZflMJtnclvlG57YZl5626KyRX50q8ZbIcogusIdVOHD6L0TvCEQPAaKvCUTfBBA9BIi+JhB9E0D0ECD6mkD0TbDgwziuSaeImNtYKqPE6CETc11cS9MnjIHJPPLfM6cK11bV8L0QTbwzTrR6UNEtSfGDzJ4QvSMQ3RSH6CsD0R8ARDfFIfrKQPQH0DJHV7NdfmXag7OqQvHWvDP3dtpWO+xBxO5IQLpjnkwOSteRkXvxhG+2exb3ZLx/gmihHCz2VED0jkB0iN4FiL5tIDpE7wJE3zY9Xvd853jU5lE2sGlhoNtmVm5nfqy05q7HJKfuydn4dEWPXbt9Vnm/f8QxqQPkhwzRuwPRIfr9gOgPA6JD9PsB0R/GGj+y2JXaYFflktrY+2wD/+LdwG6vcRnFFlrnc/lr/dQcPfDuVEDv1vLmIeYOyx4+RO8IRIfos4Ho+wGiQ/TZQPT90CL6XUJPT7S5FH5c2KJOucDm1LSDbofFcspY7uPIi6sh00z7Wjp5e61g9s5EbyN3aO7hQ/SOQHSIficg+iOB6BD9TkD0R9L4ffTa6HPd9K+8bTjZo5KlaiRRTGU2bYmdcssHdoeNUsSoSozy3hgZX/ullpzixxI9l7+GRA6E6B2B6BD9HkD0BwPRIfo9gOgPpm6Orq6OvV5xPtspKOwmOzcutOE0QDIG82Qc69t8Jd1v8orb2GLRN215anz+2K3GcauuJ4HoHYHoMjavKxA9R2p8/tgHiL4FILqMzesKRM+RGp8/9gGib4H2J+NU+Lfh3JyqihYbGrpZvuwMLlV7YFNxMfu3w5iW1U03289Y8xbYKvJn6gGowdkT5Ozzj4mvpI4doncEokP0etTg7Aly9vnHxFdSxw7ROwLRIXo9anD2BDn7/GPiK6ljh+gdmfulFseA5FYVKVXhZGPhupDTONn2IGfdgd02C2yWPdruqHLyMwg+8ycOPEdPjbX9AItA9I5AdIjeRGqs7QdYBKJ3BKJD9CZSY20/wCIQvSONT8ZV3eOqDVRbqL1aVV/DTXQylk+0r2VGlQoGmVoGfn9PWU81M6LHsZapPREPYTBa811dgegdgegQvYkBou8SiA7Rmxgg+i4piz4quatisFxoYF8Jsbuc5+D8JosdOeZwpQd+e403OchsQGPV47UlGubozpG4+zZEysrMrkGfv0ogekcgOkRvImVlZtegz18lEL0jEB2iN5GyMrNr0OevEojekcbbazwA1bLWaX6szop0X5s8OpsM5jacPxKqx8vRrirRc0Ms7L47eiTq7JSZYzlE7wtEl5UgugWiHwCILitBdAtEPwAtt9esSyIkyxFcjqHijsHOqeegGvDb47fNxJAG8xkCHfiYf5VUSOUO3hKx6BC7IkbDB1crLeboDwaiO6ti6wDRIfr+gejOqtg6QHSIvn8gurMqtg4QHaLvn8ZfaklFHz38WfHmuIYgdsvNMmAw2UqZN6gSA3tsNqinXrX4t2rXMxCcVyYs+anKLRgfT1WolzsFa/OGmwcgekcgOkSvGwNE3zUQHaLXjQGi75pq0Xm42RAfhvS0Vf1XkJtsD2Y6vk7Ii+gL2a+4OVXV+BIh+uhfme/BUr990cdR/CMB0VcCokP0SiD6noHoEL0SiL5nGufoKZnFVaT/Wo3jdc4opAsFky9885I+ZqBoi23SqJMdEXzmzlvareiDl8JDpeTiLGYq6X0Q/Q5AdBOiEJ2vOpc4BUTfMBDdhChE56vOJU4B0TfMAtHp0sYLrAJDRUsZupUlfp48H4xOVPmNuzucHpz7abyH1MApYkPn22t3xlVVrMRLniHUpwmIfgcgOkSXDBD9iEB0iC4ZIPoRaX9nHMUCXZzpUvL1kPLRXn+1EK+36osvZJQrdV3YPjKCSVJmxaSCaxO7FV2d+aSYBXUtyfZGCa8A0TsC0eV2iD5A9CMC0eV2iD5A9CMy60cW7fUW2WCQ9lK52AC/qMlWg0kFtC9amIrStsjWAana43tD8PKFGNOOb6+FmjtpSnRlaGJTYmNSdO8sgvlAdEmA6EUg+g6B6JIA0YtA9B1SJ7rrj5IjimBL8zTg/FBKcF1yOw0yj4hObbLJ1VYTQl2I4s5vQI1jlN+CWVP0IZNvOrVvEQ7SqbF6CmN5XuYVdMv+DojeFYgO0U37EP14QHSIbtqH6Mej8ffReSzo0OPXjnZUyUf7olpj4u6WMkq/1SmTHyKqDR2cqmsKQD3YINPTyF48tZro+uB6u+5arv22G636o9qn1Neiu0D0jkB0iC7bSwLR9wxEh+iyvSQQfc/M/ZFFRy1aykSfkIKKDqmsYUvwQIjNUiTlele9UJzFJmgfl5unKlFbHQEf8Qqi60NejZR2PuMMatuG6B2B6BDd66gWiL4TIDpE9zqqBaLvhAVPxl2XowfKCPeKRh+V6zrO+L7BJhVVI7XFaSzIJKIJ8rG9gT3xJhp3h09NrCP64jaqelECl31cx/IBoncFoksCRJf2ln2E6HsAoksCRJf2ln2E6Hug/ck468h0+chhFTn8Aot9I5sfD3JiHLfa9oIb9YPJFzF03U65xslsZVvVKUiN8nqwy0QfTGqqquCc4bYercBaPSo9R3Ff9Iz+EL0jEB2iQ/QTANEhOkQ/AQvm6IO9+6ScHuUzZlOkuHGsozQTslXR7GaJXFEdx/rQePc8Q7k9LhB9vq4LROcN0DUsiz7HdVdpH4jeEYgO0WUDEP2QQHSILhuA6IcEokN02QBEPyQtH8bRlR7Zb5mQE5PT9nIGJoQTLSrIAnVRFbUqulPLfh01hjAY18tj4K4PHUSv6nQdagUMXk6Y5TpvCaKvCkSH6KxfiH5UIDpEZ/1C9KPSPkdXYUiGi7d/2XIxkIKc59q2pX3prgNvqWyHmwR0j1WKF0ssFl21XaX+4vxg/auizXIteqYviN4RiA7RZb8Q/ZBAdIgu+4Xoh2TB76PTJRPXb2STdXtBCzEpSripwCmaGl9I3SALRvp4EHxdHWnIpCDVau9vry12uKGXon9zdXcq8V5sCYjeEYgO0WUvEP2QQHSILnuB6Iek5XXPdL1UdExOjOY7aPRfbpA/vdVXmjzLqFXlXHIrD+ip62C+3EYHHiu4bSju9iOLmTPQ0IRwLrQqTudvpG8xVlleBKJ3BKJDdHZVBoh+UCA6RGdXZYDoB6X9dc8De1sDLYitqcipClqRNVTVZBtjYi7uVEiNTISoPeRcY3ys1+0rvzPOP5nlM9zcYy2u247rUfoa9yF6RyA6RE/3CNEPA0SH6OkeIfphqBZ9kPPmwAyIZtBlV9GnReT2jmbaHwPDGtYjmkd2B5APOk7EKWcFN0nxaAws4xHrzNF5n6H3qVG1HZPVetJ1tc79dtxPMTpv3gPzgegQ3asN0Q8GRIfoXm2IfjAab68FE9YixEkebq8rrNhRiDtulF+0HOP50eh4dYehy/LdPHTDHX8fvR/qBOVEt5L65iqlRYmi8RC9LxBdBjdEh+iHBKLL4IboEP2QVL9KapQTVmWXvmSjmfDGEOLrvJywxrbcEOlOQuCZx8b3QHN0Piw9Jnp8jicEHq5U4Q5PxmWOZnGTrusFfNFd73Oi8wiC6B2B6BDd1IboxwOiQ3RTG6Ifj5bbayqS6OL4YaP81vt4vrBBMZBtFAhu22Io5QjOHEEUVR0X9S4SDhddhXm445da+HEE7yI5RWvb41fISGzwvVXq+qQag+gdgehTTYiu2xsg+oGA6FNNiK7bGyD6gWgRXRmgg4eLGcwdtutCvLQqqrTMqqOCyWo03LmpcfcgeCjHIwhSBz/E+WHyTq/L9/w+untAYreqYA8x2WpQohd1j6fG3QjRHwZEh+jpVgNEPwoQHaKnWw0Q/Sg03l6zwcTDQUTVyKazohytUPC4Deuw5KGWC1E+mpHfEbMRHJjGIx8ND1c+/HhofGS6u0eIHqTVQpvMCZr2+vWYc3JpCVWuQ/TuQHSIDtFPAESH6BD9BFR/qWWQZrvRFkOHX8RUtXjnTNmr2xiMpMmoz/XFa9OyU5RijSIu8FSneuEGUOV73l6r0it4ipfhJ2Hkm/hCM0nX1RaI3hGIDtHTQPTDANEhehqIfhiq5+g8uC1Rh1QJERpu3AX71RMeAn6I80KpcklBnGU+OJUcYo9BZiEVvsMGRXeOo9LHYYnSuj3ecNl1iN4RiC6XB4guD2iA6IcAosvlAaLLAxog+iGA6HJ5gOjygAaIfgha3hkXEqLrwFA4xa9FVasiHFTpZHvDTclU0VjD7tDDpWHZfCEK0VaeCvjyw0V3tvPz5dZhZ5+djehfspJXuaJs3nKI3heIbqIvQHR2NiD6MYDoJvoCRGdnA6Ifg8YXTxQiLiQcEesjm85zr7gpzqcCQyrf8FDmpe1I4lfrbEs6Eu1BjPw+OhXiY6ceHvLtNXUexHHws1MtozutrildbrUKiN4RiA7Rs0pqN2tKl1uF6PcGokP0rJLazZrS5VYh+r0pi67VsKE2LVE5MjkwIWjXOLIJNQ9Xp5/BTIl1oNp9zsj8dfugro1aVVP3SGMQSerRc3Q91ir7Uj7qTby9ovrJViH6vYHoED2rpN4UIPougegQPauk3hQg+i6pnqMHpq7aIiIuGLl1VAZpGNUZ+WNYqkk1gBheqV64p0lBeMqJ+YzGoY5x4ClNVVAnYc0fWRQH7rqUrjRbT9F4Zm+5ZYj+GCA6RG8i1WlsO18foj8GiA7Rm0h1GtvO14foj6Fa9FHOQlUgxfAPzMdBZoYYKtow+TyWE6Juj6L91MiGwYrKdo/qSTg1RL9hKsG75idoZdHjGKxIuXpVFFS1jTkV1AUdmvyG6GsA0SF6WlIH2xhE3wMQHaKnJXWwjUH0PVAnOheYxzffMoUYmUOFVAKIJfQO9X30wVikQjex0qoNjWFQYy/IQhGsynkh2vH2Ws45Z9ypcg3oju3p8JMDbZ1jOUTvC0SH6CV0x/Z0QPTNA9EhegndsT0dEH3zNH4fPTC/eWRP0EWlQqOZjTsXP8isEVTjvGu1KobihHlqnwr/UY168LLLwD+KoINVda4b7yC6PRT/DKii3NaE17KQrumPJg9EfzwQnQ2GKxAgOkQ/EBCdDYYrECA6RD8QjW+BVVeXtoxcCpKRFxKXkETigg2u6BaeGWL7bhg6wW4bE4MZpL25Qfh54B5z9LjEjQ35VOe2VCW6v6Nc+8pMyyF6XyA6RE+TLFdV+wpE3wQQHaKnSZarqn0Fom+Clttr6rLruOHGjmxqTtViAS4Vd90JrEz46oDMDY66t834qcWNZnGYvJw6A/f8PnrIJ7l8Ha2kc7yp0ryCrSkKFUiVg+gdgegQnV0053hTpQeIvicgOkRnF8053lTpAaLviWrRuXM2sJx1ul60JQYMv8aUE6iyqKTCjUrETvngeHs6IFUbvDsd/2pVN8ldp4OgMXghuq7ocyioS8eXFLhYOW6dCUTvCESH6GlXk+VqKsetEP3xQHSInnY1Wa6mctwK0R9Py+01fv0dRjbbCnKCTh5EubnrvGiwWSNHsgEeeqM7C2elxcjc3uPGwUsc/L/hvm+BnU/B26pCXG59TRdZDtH7AtEhOkQ/ARAdokP0E9D4FlgrQdx4vTpB3mdz6vDwsMEUC7mRqStc162e1ImOvlTUj6lswB2OjakhUtvXhR2IPsjcrcntq2KR4hC9OxA9UBMQXZzXeqk9IPq2gOiBmoDo4rzWS+0B0bcFRA/UBEQX57Veag+Ivi3av72WUjBeYO6jE2Ij+6wuGVW5Bty75KoO/VeEzlD6YC7JQKJTs0FmHj6yHYh+ZeCZVZ3/wcvD+pw7WzooDtG7A9HrgOgQfddA9DogOkTfNbN+ZNHKHMNjlNNlJ0hUePCiqnKc9gcj8BRRPLBU7MaNdkx8cE7kOzt41lA6WDt2IDoftL91KIrOT0U3vSH6KkB0iJ7YCtGPBESH6ImtEP1IzJqjqyCJznHJ1AKtOkryfXHjwPLKKKfzo5oijvKV0Xq4fDSqUxHN/ADV7ngc1gJ7KI8S3Wan9qKpLBb95lor7yH6VoHoEN3sgOjHA6JDdLMDoh+P6l9qUfIEKdy0gzusAiES5NsabH7QAUQ98vrBvqCCCtF/p4b5eFXpggu8ySp5hr3M0X3UqdGiK+ObRW/LBhC9IxC9FPUBokP0/QPRS1EfIDpE3z9l0aNOgYUyJwobBZSXVm3UL3VToRY7UuERmLPBTqtVRooNq8Q0qvSkPmWwWvvb1Tpf3bPowSR1R3F1bZICqx0Q/WFA9BAgOgHRjwpEDwGiExD9qDSKriKCdoko4OHBXbcpIlZVDU9LKpK4bdOCSjBBih7zCq/EB0Slo+iBpS41ytHucA/o/qL7p7BDqz50HtrUbQOidwSiQ/RsqxD9GEB0iJ5tFaIfg8YfWaSry8Nhuuo2MFQhWTw1ob62QoZeF3gSoSacaFQ9ipEFmQq49KImzyW8VacLZ/ejb6+tajk5yF2H6HsAokP0dEsQ/TBAdIiebgmiH4aWL7WMcrbLL7YID2WODj2+riXjs32XwTzeNo3MthS4m0p3ggpNK3xHYCbrXEKl3QRzCNF5k1p3teBcsA4ZAKJ3BKJD9IomIfregegQvaJJiL53qr/UQtjrGKxRwUsLTijyNkY2N9ZdqO5GtcLjbmTyTU1SG0GqO7IpuxiySgh23AUdtvBknL5uVTWCOcyk5UnFuwHROwLRITqrESD6QYHoEJ3VCBD9oFTP0ckLdaXjajBPntkQEtGn5BMR5gYQVcvBw1UMk1qljmx28u4psbQgjpSGaMN/C6IvQJ0XLbS1fB3dIXpHIDpEN0D04wHRIboBoh+Pujk6v+AUC4FpIeKd/hvcmTDBY4b7N+1TgTXKtDBtt+GhFVdD5pEZvE8cxpFNyp3lUUY6NU819yy6Ol9qOWqtXBe7RpMDZwLROwLRvXikCs6yjXQ+4gDRR4i+QSC6F49UwVm2kc5HHCD6CNE3SPX30dV1TToXmFHKg2nZUZ7N7kXW4NHCq8WG1ZhoWKponGa72SBudcar3E7ZQRW8EN2w6OKYXNGHGoSi6qpA9McD0Vkk+uOF6DVA9G0D0Vkk+uOF6DVA9G1TN0cfzVe0+QW5bo9hrkSisAl6iS0PMnHE+3iuw7wr8aScKqq9pAoppZPP8zkhP7IPIUaZ/fYk+gX3nFX57bs+X26IvhIQHaJD9BMA0SE6RD8BEB2iQ/QTUPcIbPAinSsdnVMa80KBf/KjHVSf3rkakvdRRy6+G7dOF24FEaWqYZ0y6BTwVnkG2ZvohL08vsqO3P2B6B2B6GKgEB2iHxOILgYK0SH6Mameo9uwHtgE2okWtUObYkuIKLItj+ztFE6nbpTGHcpNv7SfHdSIefd8lPy/uxXdkhRdST+6+yD6VoDoED0LRD8GEB2iZ4Hox6D6xRP8ogbvhlaMBaqgJAhkCq8XzDxcV0otO40ngzVTznGYD5+OSTdJxx9MFtq56PwSONeX+8z/G08ZRN8cEB2iGyD68YDoEN0A0Y9HyzvjePjzqzvym11kEUmgQ4U2UT0uy3XBeeMcLxFSVqeSQ3uk8+50aqEVleuowiFET8JFVwm/j+EQvT8QPRHpAaJD9AMB0RORHiA6RD8Q7aIH+dUWIfCVkc3OKXKC9FTkBFXUqWoZ3XlzYBPlWNO279YU67Z9Z2TqdBAHFr3B6aXiQ/SOQHSvE4gO0Q8GRPc6gegQ/WC0/8giDwexoNYHNpHn/43zXit6qqvs3Fut59rgHVFCqKjKmwjphwNpdc+i5yxXxle5TkWbvYfoHYHoEF0C0Q8JRIfoEoh+SGaJrrSLotsd10sW+NQ5mAk2rxl35bVz9pJthC4x2om9aoDGm0SFLB0QT2F7Fj3IUziaDyAqXE+VbnMdoncEossGIHqA6EcEossGIHqA6Eek5VVSJJIKCidURjZ/DYnbVbFcUsxgXsvKG4shlWpYh686FCfA3S00hpGPgGKaH8S13IFEb1RcuT6arAjRHwNEzx4LRIfoxwCiZ48FokP0Y1Atuo0F9V8RISSEIjZAJfhqsLJZ0Z1CajTpXtMz/4T7Fi43j2k+gGOLXmWsTQi1KQKirwFEZ0P3D1UB0SH6DoHobOj+oSogOkTfIXNF50GhwyNInUY5s9ZVRzmbzvnm76OttuuQuqFX275qexzpw4Fb7PIFOgOHF70BdWoa6kP0jkD0bPsQHaIfA4iebR+iQ/Rj0Pjba4qCPsrkwX6phXZwHXW+UALTwjiy+bFtNTkg9zgGnokG9ilDsEmK4pXX5pV3LnrIu66SXE5xa3mD7BC9IxA9BIhugegHA6KHANEtEP1glEUfx8QkWkka1HW9FuLhH1IzZqrmxJpbLi7YlnpEd2ByK43FLUQ7vuvCgURPelrrbC5ZQPS7AdG96A4QHaIfC4juRXeA6BD9WEB0L7oDRIfox6Lvh3F8XRmvC1UZqpKKE4xqH88joo4tmmsslY5ilAbziV04puhJ13P+KpP9NiD6PYHoXmMQHaIfDIjuNQbRIfrBqBbdRv2YmlYrZbgNcXeQqUBVE0q6KUO0xPsNpfwgGhDl7NjpMCk7TdCwAksLdKQ7FN09nVpMrmfaduNwuYQqel2A6B2B6KycHfsA0bmbA0TfKxCdlbNjHyA6d3OA6HulRXSKY22l1W5kdIiV1wAAHgdJREFUs1gtqdKGNgaVTZSGKtMI4fjIeKuxrB6EiXItsE1szrCo6CDz0t5E59dUbYknVUmqEkCD62Irl1uVg+gdgehxSBAdoh8WiB6HBNEh+mFpefEEv0bOZeURwisEqXSw5a6IJmgTF2lQecWu28bEONQA9JHZiHPG5wzC3Jjbm+iEOiBhsi90iozotY1B9I5AdHZkPEST43MGAdEtEH1bQHR2ZDxEk+NzBgHRLRB9W1T/yKK9StfQiAZRhCjoSqtW4t23QWrsVFLBqNtPFSoPjo9Bf6AwyFQwUD4bTNpRTe5fdHWtPVfzt9oKoiuCvKV5BaJ3BKJDdIYr7ADR9w9Eh+gMV9gBou+fOtH5paBYpxAIfFodjCAhpRltHc0EOrZxjRNatq0m5/nBUzD5lZoYjXYAQgJVzm3+QKIP7nya7O0nuh0DRO8IRA8BohOuhRD9AED0ECA64VoI0Q9Ay+01umR0QfhqvExq2XdCXWCtU0Y40aStF1IZxI4staqHT8ks9kj5h3dK/92c6FanXLkCo0FcM17O9dlp0h0GRO8IRHdW9fAhugCi7xCI7qzq4UN0AUTfIXOfjKOL6LvE9RSa2CuqlqeGqbYbqLpTHjA0Pt3LKOflDqOc4fPm4yHzZlTeC8kQfZzoGZ1yRX2/7X+V6Dn8HjIjgegdgegMiJ4Dou8ZiM6A6Dkg+p6pvr1GMc0vcFD6jGb+6oQabQ1S4MF+9YTCiFfgdumvy5SjmZdzSvPGRzYJH9WnEYPJUPxcbEX0olHJ0g55ocv1daHiSCB6RyC6BKIngeh7BqJLIHoSiL5n6uboQ3pWFq8ObeXXKxdIVM2ZPQ8yDwzS8rjAR2M70n0HmVoc6DD58PmCU9tu2aHo4qwyRo6vbz1qSAXXIXpHILoEoquLBNGPAUSXQHR1kSD6MWh/Ms5e+Hj5XE1oYywUPJNzF17FXayj1zPNUDq5lqBqogQ/CCqn6vspjdfZlugNRVMy97DcJzMkiN4RiC5LDBDdA6LvHYguSwwQ3QOi752622sU+2qBYiRendG72UWZwRRPVHOiwI8OWh/YzTk/fihkB090cZi2Gaos7h/yjMfrbEX0DM45SrkosvoKpIYI0TsC0dleiO4C0Q8ARGd7IboLRD8AZdHBDHAWe7BOyJ8TnEwATgBEB+AEQHQATgBEB+AEQHQATgBEB+AEQHQATgBEB+AEQHQATgBEB+AEQHQATgBEB+AEQHQATgBEB+AEQHQATgBEB+AE4MUTq4Cz2IN1Qv6ctLwF9pwkX3dkt9IWK/qoiG9oUj+GMXhv6qLdus+BvUbLgb8Nari9QCsHFVKtipc+0Wu0eNuiXL6HWJAfxGh+xQOidwSil4DoEP0AQPQSEB2iHwCIXgKiQ/QDANHXoEp07oSwkMszSIJynYtecKyQE5S3anAiWagxlbu2w3Betl1xFsF8IPoaQHSIvjEg+hpAdIi+Me4puns1V2KUP/TYg4bGyqInTaMl+i83T4+Gb/IbU23krLTm+f3ynGOlFx8/OGPie2nd7QuidwSiVwPRQ4DoewWiVwPRQ4DoewVz9DVIiq7CmjscDVA7VKGBbsNxLzJ2OYlD66gyAG+VFsTNPipNh5xLH7Zr8SEEP3MQfSUg+hpAdIi+MSD6GkB0iL4xIHpHSOPcHF3pQKuOecoGR3SVEHzJ8lvEPps+YoXAnoajAY02I2UOTact2hS8Dx0gekcgekcgOkTfKhC9IxAdom+Vw4s+DHISuFovfLX59lrBvyBvZQW1bl1PtpdMCFxG1eS0KyQm6LSc7It263Hz3aox7yyC+UD0Xr3wVYgO0TcGRO/VC1+F6BB9Y+xK9AXOzq9aW3PIzS490XNy50WcurMN8EK1bevawagrRFddB6auPxS1MVjXdQ5LnkUwH4jeqyZE94eiNgaI/hAgeq+aEN0fitoYIPpD2JXoW4cCv3aOPrhz25SCzlZlGBfdyQPlLrhtvPnANwVzY004qwanRimEVu2rMUD0jkD0jowQHaJvFIjekRGiQ/SNAtHXwIoeRXDVqtA6JXqDzMlqJON1+Hbhwii/4u/mGHGY1nVeUz/xF+RHAIOTLsF8IPoaQHSIvjEg+hpAdIi+MSB6ltH8qkAVvugc65jjOhdCe3ldCpkvgvOWygRmmPCbtqsSqpOgBOZdW+OncqpJvgui9wWiZ4HoAaIfAoieBaIHiH4IIPoa5ERXXgUW6znzqmx13K6tylMLDYu2hGAyCt/iu8qL8mwwnSRbVezG7bWuQPQ1gOgQfWNA9DWA6BB9Y+xZ9GGQc8l7dpzZMnhPxk07lOJ2Y9JKLdUs6/ONuw1rHd1qzhHwovx4/dPJTwetQvSOQPR5HWe2QHTdL0R/PBB9XseZLRBd9wvRH8+eRd8oOdH5fxXTxlqBXYf1FmVbVXs8o5DAQusU8fi53znRud+BvWT2uhGidwSidweiQ/TtAdG7A9Eh+vaA6N2B6BB9eywQfZz3eOg+KQSqwr+Prmpy4/lGx0df0ra0oORzmgjydrfvcdJvvkslDt5q7vSq3RC9IxC9DogO0XcNRK8DokP0XYM5usfSHOa/My5IrUc2I3XsGs0kV3ikpFpMJsfoHrn0QerpuG6zgT5bKf0hekcgugdEh+gHA6J7QHSIfjAgeonhduenoU5BdG6K8iAE9nI2lQq06Bk9G/TObRKZhoaVOkdxl0pM5TOsCg14BLY3EL0ERIfoBwCil4DoEP0AQPQ1KDwZ54Z1RGmcSg5S/Ly9PVDDLxyEe6Q+qXIQvSMQfQ0geggQfVNA9DWA6CFA9E1xatGdCKP1cckdNl/0kNYkbrE68QqxmvWsh9+5NlTOqXK4jEpj2bMI5gPRITpEPwEQHaJD9BNwRtHnh6gfkJac6O5gnHyj0PVtiU6uK7cDe4RP9GKH6xxXFbxVfqQQvSMQvbEmRIfoewSiN9aE6BB9j5xR9PVJih6YAVzxkZ6b483wwA+3Z+Umx0b2nFo/0a8Nk+V8OZqokk8DflV+EHwjRO8IRF8DiO4D0R8GRF8DiO4D0R/G8USfE4C9aZijBxXio/neOq0Kzfg+XmiZ67wNnT4GiRqlPrLMZdBHwNvmhSB6RyD6GkB0iL4xIPoaQHSIvjGOJ/oDoUBtmKPXNjyoL4Rz2wKznCSdKzpvLLj31qyVDUcTR6b6UrpD9L5A9I5A9KpDgegPAKJ3BKJXHQpEfwAQfQ1yordBtpEZQU1yrS8NVusKSmPhemAJh5dQC3FMdjkOX43dWu6dRTAfiL4GEB2ibwyIvgYQHaJvDIi+BnNE10JoraWCzlSfW9PguiO+yhp2AHEHDXfkX3PhQ7HHFNtINRwwR+8NRF8DiA7RNwZEXwOIDtE3BkRfgwVzdOW7kJtvKVZr0F1YPsrpcuw0MHVV2hELfEB8hxiZrU2Jg5Yhekcg+hpAdIi+MSD6GkB0iL4xTir6WPOO11whqxpn5hxdCzzc7m7xVV90XmesfzJuUHN0ZTyt6sbVsjgnSnHnGFVHqkfaAtE7AtHnFYLoEH1XQPR5hSA6RN8VEH1eIYgO0XfFSUVvIK+0Ljr4D2/Wi24togGo1UIz2t5a66moEnGgtMP32fEVhjkoeHuqO4jeEYheAqJD9AMA0UtAdIh+AB4seoNF92f+4HK/j57pLQY7X88NyW1SiBTYTXVXd+1cRnp/7s1FF/tsUVFODSiw9AbRuwPR00B0iH4YIHoaiA7RDwPm6IZxyS+jX7GiJ0NeLZg5rLSo3LUoNJj5djNiKLTud5cch9wohqKM50UhekcgugGiQ/TjAdENEB2iHw+IvgZVopM74fZaNq0XL+ouh2DyUnSJy91mubV62kojVQdB5cSSPV59nmwm40cD0TsC0dcAokP0jQHR1wCiQ/SNsUD00c5lnWvZSocmHk/z76NHKbmhwXilm7F28AIC12ezZPYJj/lu94BGGgq1URgZbbWZBqJ3BKKvAUSH6BsDoq8BRIfoG+Nhc/Q5Qu8mCTR8qYVUELFvPdAUS0xyq/+6Svt5IJ0XjL1i3Go9JH4AXacqe+AQvSMQfQ0gOkTfGBB9DSA6RN8YuL22BgXRebxbt+WKZ/LIzanKBlbVKp+T2WCQiI12+O52MTvnrtMCRO8IRF8DiA7RNwZEXwOIDtE3xj5FH5d/70SQk2UO5Tm68iDQRJaEsUYFOa8dRD1ZQndU9rsKlTKU6PrQbELwdU+tQvSOQPQLEB2iHxyIfgGiQ/SDs0/RNWPq+bF6hp6yt70FVmhh1aJCQWnsaONmg6K21ZYPXv4ZZaaJg6MdQSa25FlQ/UD0jkD0CYgO0Y8MRJ+A6BD9yBxD9K0xU3RfQ6VM9CoYy30yTle5HuiGnlJcuamPiJbVwdaeC4jeEYi+BhAdom8MiL4GEB2ib4yOohcu4UboPcrRu9OX+wEHZQqNKmk5VbOaiR38+HSJjOjJfaKEW0i5HtwvtVj8S8L/C9G7A9EXAtEh+h6A6AuB6BB9DywWXV+4fei+MknRlY+c0X0yzuo0LbvmaKVG+YrZpK02wZThRQPPJsrb0aQnfbZUBWoYoncEoq8BRIfoGwOirwFEh+gbA6KvAUSH6BsD99HXwP+lFgpz13jtGDkS2L1zo6hpjxoTuvNM4fjc4LdrPB+G8xAuHUcBOliI3h2IvgYQHaJvDIi+BhAdom+M7qLXXtRDY0WPRlgFlRZ1znFjreiBbmkHaf1oUobTo9pdUFw1HA+Hbwo1D78GmRwgekcg+hpAdIi+MSD6GkB0iL4xDjZH30iOyYk+mp9m8R3OeKW3qt6TJ0FZLhpTSaAq5bgy+/hDcQdLFSB6RyD6GkB0iL4xIPoaQHSIvjF6iD52fvny/inM0XmUa00yojtpwBUpKTpXy08Zfi+ZofgHRN0N7O4g36jr2fGNmKN3BaKvAUQPAaJvCoi+BhA9BIi+KWaJPt6+K+GE0f7pkLf8J+NIjZF9DYRbnrDZdVFkh5pp+mBw+qF1PSAXv3c7MruqrbejHvBLLV2B6AaIDtGPB0Q3QHSIfjwOdnttPo4t8/FFD2xmTAsjm+oOfKtreSzAHSFDQ8L7qBBfyPVSUFyN2O/OaiyGr0qoZiB6XyD6BESH6EcGok9AdIh+ZCB6RyhWC0/GKU/pv+OYnp07qtmW1DCSH5uU00rVbtVeoHQ5ytl+8HKROH5ruXcWwXwgekcgOkTfKhC9IxAdom+VnYg+bu3hu5RCV3zRKdjJBn5Y0zKVyEg+leOFuDJapMzQnZZVOkqKzhsTPaqW7HhqhwjROwLR5wHReWMQffNA9HlAdN4YRN88OxF9C+TdFiRF56aQ0kIRq0wBnjuI6C3/rz2IQif+bjvwpLrWbCdZuKd6wO21rkD0aiA6RN8vEL0aiA7R98udRR/HrU22ixT8dnfnfsCBK+5Iz9drUYJFu0LqSTl5B6zcvPDb9kjtTd3TihVdnwI7PqoD0TsC0UtAdIh+ACB6CYgO0Q/A4+foBZEeTsP4qKj/s8lKzCANEKuh9GPHjuIDe/JMDCjlem1C0cNys8uYyeDKcGcTbzt9FsF8IHoJiA7RDwBELwHRIfoBeLzoBTrlgfnNVNVUYZ77PjqPZl9EZUBSQF6VlxOiq3LqyCp64XN0Oliei3hjhXOW7JHXoQOC6B2B6F1qQnSIvm0gepeaEB2ib5vNi75LkqIHb15+3S7EIhWoQtbBxPNxsTt3lFWWiyEFk4V42+WUqJtQuUk1BtE7AtHXAKL7QPSHAdHXAKL7QPSHAdHXAKL7QPSHAdHXoCx6YJ+U0bKwnNT1ReRtEDSAqEzGvirJHa2pUmDSxq6stLzHkZ70Ve1XnEUwH4i+BhAdom8MiL4GEB2ibwyIvgbJ1z2rcuSEEMkawL2PTqfUbxioSCoZRFmbV0RLmY70wdJB1Z1FMB+IvgYQ3e9IHyxEvxsQfQ0gut+RPliIfjcg+hokXzwRzD0kpXeU1to/sFm7M8lVpgnn9A6rHW9PZBSvB600DTGupPqNnapNwSQpiN4RiL4GED3Zb4DoDwGirwFET/YbIPpDgOgTg4qyRfgvnqCOgpmqhpvJvnDcxSimNVv34KYMtTAqBvv+iniG5HipebHXHiavr0+1ShnZswjmA9EnIDpEPzIQfQKiQ/Qj8xjRe0r1MEZzf4mWfdHtUSu7kqjd0WGl+2jeBCEY2YN4QaUckUXkXa9pgbdhk00cHZ0aW0gPK5hUwM8ORO8IRJ8NRIfo+wGizwaiQ/T9cB/Rk2IrWY5Cco5u490RmMt9LeqkArXV0do1kfce6w9e4tBjDeY6Jvulg+XDT54tiH4HIPoaQPQQIPqmgOhrANFDgOibopPoQ+5C3kpMcUFBcqWq/Z2Ru712JSm6slIrybfzZrikokFViHof2TRau29FDyGRrQebTWifmzsKZ473CNE7AtHXAKJfgOgbAqKvAUS/ANE3xBpz9PLlpEBob3wtKoKQkx974ck4q6QyXmxyF7TfaqvIqfEAWZYVro/e7TBbzbmyqqguxw+zcIJVXhnwFtiuQPQJiA7RjwxEn4DoEP3IPP5LLeUQ2B/+99G534NEbKkx3i/NVy/jcF0nkXT3wUy5+S7RRmA+OqLb7pzdGa7VIHpHIPoaQHTdnbM7A0TvDkRfA4iuu3N2Z4Do3VlP9Nx1pRia2/jGyYk+3r72QScoZ7lyOJYe5e8n2NKCYObNesh+BlCiK3XtFtGdTQW1DLi91huIvgYQHaJvDIi+BhAdom+Mh83R1cV/uPTt0ZihMEd3j31Qz5+5osfKZBFv1U8QoaidlZvnEXF21ILjPW+y71kE84HoExAdoh8ZiD4B0SH6kXn87bU70DuLFCM4+bPJyijenJaM5CZhtYzBZAMf1TU/G3EcVky9JXXUPTOkAKJ3BKLPAKI3nY25QPSOQPQZQPSmszEXiN4RiD4DiN50NuYC0TvyANFVgN+B3qIX8X8fPZi3rF1La50G7/ttStuoId+Rc93mh1ghlXmc8an13DVcen0hekcg+hpA9NK+WWcRzAeirwFEL+2bdRbBfE4xR787yd9HJ50GNlcmYYXiylu+xdmd9NsmAbdhMTIaTaifqd/jLIL5QPQ1gOirnEUwH4i+BhB9lbMI5tNJ9HGU0+AhNb/zNx2N5COwo3w5W7CPvOYFFnurXM+34SjOV7XlDXS4yhC9IxB9DSA6RN8YEH0NIDpE3xjLRC9czRWUXtbkvXKMf3stNTkOTP0WgQf2Los2rUc559e3/Ox/C1QVbT75EL0jEH0NIHqy0JKzCOYD0dcAoicLLTmLYD6r/lLLvbzaHFVfaskYWWd5kAmiqgHHclq/jl0lH76rQO/LDdE7AtHXAKKvchbBfCD6GkD0Vc4imE9Z9Orr7HJO13NPxnG1BjmBbhHd0bWm3GAQotOmIL8KtCwIep1FMB+IvgYQfZWzCOYD0dcAoq9yFsF88KWWNcg9GWct1JanBNYbw+27MUndyd5US4FPxQN787QS21l3l9c9i2A+EH0NIPoqZxHMB6KvAURf5SyC+az6ZFwPxttMkSJz7PZiqPuFqPyRRfqvr7SaLvOFmAkyOSFucUUfLDTwUX7R5rFA9I5A9DWA6D2A6B2B6GsA0XsA0TuyoTm6CC8ba9zvGK5u0YeTFD2wsYfbMWn/rm0k8wARmMN2QZeweYTKBOoxbOl0QvSOQPQ1gOg9gOgdgehrANF7ANE7siHRNWNpLj6omNSBuz4pKazosTT9lytI3vvfGR/kHH3kR+rsuLUn8oAqxI/BuXNmN5b1750iIHpHIPoSIHrN2ZgLRO8IRF8CRK85G3OB6B3pKzq/1L0ve87hO/tdJPmlliBFp1XhJrfSV3xk83ybGWJpVdumlgitq1aTl9HdUZUQaoHoHYHoawDRewDROwLR1wCi9wCid6Sj6L3NHm43pPpxr4SQnKMrqIKjHReOux19Dl5acES3mUKlBZFzAnPdGZnC390nFCB6RyD6GkB0iL4xIPoaQHSIvjFWfQvsMnonjir6pILCzya7dsWeucPB5IfJ0EC/1mYQogvx2W7Rj7beDK4R1cDMZiB6RyC6BKJD9EMC0SUQHaIfEogugegQ/ZBs+BHY+9PH8pD6MC7cPmAc2GdkuiptIlmCFEdIObKP6K4EngBsgrCuayVVq4G+b9dw/HMThASidwSiMyA6RD8qEJ0B0SH6UdnWO+N6t/coyvfR3ZwSteOlaTVw0dWUWzmsZ+Rqq3aY92WTQ/vxq8bm1PfOIpgPRF8DiA7RNwZEXwOIDtE3RrXo1whpv+aHJhXEyTl6kCLRRjFjVnL7dQaJo3gNogG11UkCmUOuPTUNQPSOQPQlQPTmU9MARO8IRF8CRG8+NQ1A9I6sd3utw5XeAzz70XJO9OCdGsd9voXr6NSbY/nAJvVC9EHO9uOoaChVJ0UdzRwgekcg+kIgun9SIPq2gOgLgej+SYHo2wJPxi3HBnRBdLdOUN8vGdm0XSjJa/LSVlXxpRZbSCURjS5ESaYscJ8kD9E7AtGXA9Grjq4ZiN4RiL4ciF51dM1A9I7cTfTxTPfmyqInUSpzGQO38rp7NAhJff1lDojtjbfn4PwS1ClE3yEQfQ0gOkTfGBB9DSA6RN8Yj5mjH936NtEHNh+ORnGvkliNRWMpyx3d+Wh4shBlqYQavjickc3t+55FMB+IvgYQHaJvDIi+BhAdom8M3F5bQiqac6+SsnWSSpNdqoRQ1LVXuK6M5znBQXdE9d2DdQ6oj+XeWQTzgehLgOgQfSdA9CVAdIi+EyD6GlQ9GTeYqe5AWiuH1RbfUKWx1lrlAVqe+r6uq9GIJmiHGrVeVrmpAX743lkE84HoawDRIfrGgOhrANEh+sY4i+jjWjf03ID2f3stU1nvdUVPKh6kI7roaKbmuXzh5g5/+HbsuXJlVGWI3hGIvhCIDtH3AERfCESH6HvgLKLfl+YvtWg/yMdBTrGToofME3RjmqzZLCEE3kX5+N1yyYG7NV/+C9E7AtHXAKJD9I0B0dcAokP0jQHR16BB9IFNrkOQ0+yy3+5ydDPvt247yO/X8NJxpJZR/fiEa/LgpqPUGRlwe603EH0NIDpE3xgQfQ0gOkTfGBB9DSA6RN8YEH0NqkQnnfwdSjW9yrcqT4W9KdFJz7jO/5tLM3a4YkEljsDUzehdcxbBfCD6GkB0iL4xIPoaQHSIvjHuIHrDpd0z/DALj8DawL/+13Gai6md44pfvVXSJ0XXGtuO1Ei0t8H4LTpVQvsRkEkZibMI5gPRewHRA0TfLhC9FxA9QPTtUi36uL03NI8bHNOVKtGVE4OdLrtWajedDMBTgVvOWu205LQ9skRCQ9aK82NsO20QfT0g+hpAdIi+MSD6GkB0iL4x2ufobXY1X+xD4IvOnQnm9loUXQlofbwUz+SBpMNu8wVEaTV2PwG4eaCMLQfROwLR1wCixyOC6JsAoq8BRI9HBNE3weOfjDtiKrCia3OGFDXOJctVia60LYsvCg1yEp7sjjYFNl+PPdKpSi17ZxHMB6KvAUSH6BsDoq8BRIfoG6NddH6l+ytyDJJzdEVgvhR8K+rYWC5ZNJd7rKS1HQWm+1S1/SyC+UD0NYDouskA0R8LRF8DiK6bDBD9sTx+jr5PxuxNxtwcfTQT5TY9a6nLH8U2TJvmCT+nqNupzh/FcwzROwLR5zFCdIi+JyD6PEaIDtH3xCzRh/QtEadozTU9GAXRO2mX2THQY3aLOkqKSavJMaS6Fo3lowOidwSirwFEh+gbA6KvAUSH6Btjluh0HbuZcTDWET3JwB62KxQqN2O3BHqkLXjvkVIVYg29g2cMWhrTUQTROwLR1wCiQ/SNAdHXAKJD9I0x6/vomXnVvcnEyQPbqxW9dg7tlxvYVNovTS7Vwn3kG6fjIssHOctuOxrRpkoc2bMI5gPR12gPold0pJqsOItgPhB9jfYgekVHqsmKswjms+BLLW3oaJnJHXJMhy5qv9RS60Rm1dFdiD6n34E9UyeuG21SCUEnB0owduwDpQl1nu1ph+gdgehrdAHRIfrGgOhrdAHRIfrGaBF9qQG5+ncQ+I6scHutLGxgr2ry65XbsN6SlNrscnt2t05BdNX5cvosgvlA9DWA6H53EP1hlEUHM8BZ7ME6IX9OcDIBOAEQHYATANEBOAEQHYATANEBOAEQHYATANEBOAEQHYATANEBOAEQHYATANEBOAEQHYATANEBOAEQHYATANEBOAEQHYATANEBOAEQHYATANEBOAEQHYAT8P8BaG5vtaoHek8AAAAASUVORK5CYII=;clipPath=inset(0% 0% 66.33% 0%);" vertex="1" parent="1">
          <mxGeometry x="20" y="270" width="520" height="175.06666666666666" as="geometry" />
        </mxCell>
        <mxCell id="BBOlooGt3nP8J8cSU1Di-2" value="" style="shape=image;imageAspect=0;aspect=fixed;verticalLabelPosition=bottom;verticalAlign=top;image=data:image/png,iVBORw0KGgoAAAANSUhEUgAAA+gAAAPoCAMAAAB6fSTWAAAAulBMVEUAAAAAADoAAGYAOjoAOmYAOpAAZrYRdzM6AAA6ADo6OgA6Ojo6OmY6ZmY6ZpA6ZrY6kJA6kLY6kNtmAABmOgBmOjpmZmZmkGZmkLZmkNtmtttmtv+QOgCQZjqQZmaQttuQ27aQ29uQ2/+2ZgC2Zjq2kDq2kGa2kJC2tma229u22/+2///MZnfbkDrbkGbbtmbbtpDb27bb29vb2//b/9vb///dzHf/tmb/25D/27b/29v//7b//9v///9ub1YUAAAACXBIWXMAAC4jAAAuIwF4pT92AAAgAElEQVR4nO2d6YLkxnVmqyWa6BFlyqaoGZqUrBk1LVsSyhJtM5qkut//taayEnnjbrEBgUws3/lBYokNwD23KxJI5NNHAMDheXr0AAAA6wPRATgBEB2AEwDRATgBEB2AEwDRATgBEB2AEwDRATgBEB2AEwDRATgBEB2AEwDRATgBEB2AEwDRATgBEB2AEwDRATgBEB2AEwDRATgBEB2AE1AU/QnMAGexB+uE/Dkpix7uyDiOc6sOr/DVoFbEJrn60u+gdtOOK9TEQLVpsLTxuuVl1Yo+97C2yPVUj3l4iaoKFojeEYg+9QvRq4HoOwSiT/1C9Gog+g7Zluid0M6qDGDTyaDShKpGAos2qI7NIMcWPdAJcwXmZ4cWIPqDgejTRojeAkTfGxB92gjRW4Doe+OeolvBppip3lrDtea1r1HNvUczrW4gxrHbBt9+eNGJgsC5hADR7wlErwaiO0D0nQDRq4HoDhB9J2xljp6bVvfDTzUZVJbw5/K26KlEzzk833KI3heIngWiF4DoOwGiZ4HoBSD6TtiK6KsyeLfUAotSv04ofqxA3o/sUbAA0ZXocyyH6H2B6BB9CRB9J0B0iL4EiL4TdiV61cRdFZrCzd2XbK/Q0cielKNQptVwPtHnywzR7wREn9ERRCcg+k6A6DM6gugERN8Jjxe9yt4ro5wxDzVVx5E9I2d7HPM33PgUvpAWqJ9wStFXcB2idwSiQ/QlQPSdANEh+hIg+k54vOiLyeg+RSDfVDC73EOmO3L9PKKHRa7na0D0jkD01h4gugKi7wGI3toDRFdA9D2wFdHb/Ku6L+YUslPuwjTfndc7JQZ2hy2caY4epOgtvhdLQ/SOQHSIvhCIvgcgOkRfCETfA3NFLwgyJ1pWaKCsMXk6uGV5/pkKpNrkOeHsole5XiwN0TsC0SH6QiD6HoDoEH0hEH0PVIs+JibRnYyf04zvJrdXFFKl+fbG3nn7vAE6R2cT3Zqbc702LUD0jkB0iL4QiL4HIDpEXwhE3wPLbq+JWE+lgsVhlNo1NvSY0r2NqUfb73h7yiuc7Mk4R9pay3kDEH1tIHoLEF0D0XcCRG8Bomsg+k64z5Nxi+zyqZV8yPTNd+msMSRm9H4zFMGJEIXoKdHdZiB6dyB6bA+itwPRdwJEj+1B9HYg+k6A6LE9iN4ORN8JC0SvVW0T2NjyC4WE0/FgVXZwS59W9JTexvK86xC9OxBdFgoQvQmIvhMguiwUIHoTEH0ntIjuxnRZn2Vh1LV0xmTRAAmca5KXpjpXTiK69jal/MA+xHCwjV1LQ/SOQHSvAYheBUTfDxDdawCiVwHR98NW3hm3ACWcYkx9lOA4PHp32Hig6no2G0B0LXrOb3eZyMTm+6enf/g+rn747ZPcoPgpvWsGf//105s/9GzwHkB0WdaWgOhJtiJ6wfMP3/b1EqI/Boj+KDYi+qvnnyY97+4lRF8pmHq3Z30WndjMIHbzBq6hHGSyOY/oofhknLvdMT543y+sFL3g+T697A5Eh+hLeLzoJc8h+isQHaIv4eGiv3r+q1wEQ/QLmxNdi22vf3N7ek5N0DxSbOL7dEs6KdyKqo1nEz1kjLf2i8k7b0m1XSN62XOI/gpEh+hLeLDojucf/v03b182/vzzP72uPj9NfHPd/bfL3je//D2r8d3vXjb9/OtLYzEj6HIv7Xzz4du3L5v+wDKH6mzDQHSIvoTHiv7q+Rdiz3++vZn99PklFUjRf/zytvrJn6cKH76dtvzD/0TRfzDlLqK/u2x4w0TXnW2YlUSfaeUK6GAa5O8sioHSCtedL4y8apBhHm7JYTjrHD0Udc+JHkzUFEV3PP/2ifHpRyX6D1FMcvodbfnky9vG97bcSzufXfPB9yS66WzDQHSIvoRHin79vF1vf/rk8mf0h799eXM0/gP8svT05uv/ftn71188Pf3sL5dtz1ONH38Xrb6Ue/rVS7mfLirHck///P3Hn/5MDXqdbRaIDtGX8EDR/+e3fO595V287Xax9ZtpYZLwnbwp98VUaro390yiv5R78w11dM0lzzGp3Br0OtssnUTXl2wFFvfguukzyntmVa3yLecRPdh0mSmnLc/Xy4v+yTSNvv6De0V8wP5u+rOeNr4sxMIvf8VfVt6zBt5Nol+spQnB81TgOf6bPTXodrZZILoHRG/gQaJf+Po5Mzl+1qK/52Wnj9i5oO+f6E/ymBBu/1Y/x43e/bpniN4LiL5RHif619eP0hzDfvruj7950qLT53Lx87nLX/D0J/et4LN+kP4LuVGLzjvbLHe+vaZvWXWCB4y92dVWv7Q1fwTXaD6V6FX4c/Z8nZLoL55fP18T/7x+96+f0WfmUvR3WvQvpLO3++jP4q+EdyT6bSOrZDrbLBBd1y9thehz6C/69HHZezlN/9uX0uSPa4rudLZZILquX9oK0efQX/TbH9Lv+DR9mrs/ffaPX/3JzNGdD8wWie51tlk292ScDwVFTrPyrFsVHW43xUI+Bbn3gkTD1900A4XoDvwzkqpE3PDttWmefflD/udf/dd1xXzq/mw/uGuaoyvR3c42C0SH6HdiJdFfH3e7PdHG/4w3oou9sRDJ/9KQ/dT90vr0qbsS3e1ss0B0iH4n1hL99dP069qz1FaJTlvY1pb76Ep0t7PN0ih68+x3K5DTXHFVwD80+5Scrk2rQ/L9pRB9Bm2vkrossT+6f/z1baN4Mu71o/pLnemxNvZk3F/5k3FPzpNxVnTb2WaB6LEARN8W1S+HfH02/ZuP7Onz716fXCfRp39tX7/TcvlG6evD6VeXb8+6vz7Wnn/W3f7pbjvbLBA9FoDo26L+dc/vJ0c//FbeP4vfWY+JQN8OEzfdpn/6nW+5WdHdzjZLWfTaGVU7DXPqQuml/SZvr3GHQ/4BQF4UovegXvRXW1//Eo93tj//D/HFs6vX8Xvmb/5lqkrfR3/6p3ivzf0+ur695na2VSB6um2I/lgaRH/9Y/ui8oe/XZ5GffPLr75n3yi7fCn19h6a1zfHPH32Fav9+oaZN7/6b3FT/fqGmfjmGO+BGbezjQLR021D9Mdy759kEt9uOxoL5ugF83YwnXfuqLm34TSZQ8McPUdbTNxDdHWPbNvz7CVA9OwmiN6VTYpOL3r87dY/OV8CRM9uguhd2Z7or4/Vff39Pl4HtYSdPBlH8IfZFlDls3pvVK4BtR2i9+Auc3Rxd+3re/T4GCB6bDVZCKI/hPt8GBdf5frmwJ5DdNZqshBEfwh3+tT9pz9+9nqT7PeH/SDuAkSPrSYLQfSHcO/ba4emk+jxZWArX/x7wpOKcD3ztCxE7wdE7whETwPRHwtE7whETwPRHwtE78gs0avuLlfdMy1nhvvfjqcnX6vSljs+iL4AetoYoncEons9QvQHAtHXAKJ7PUL0BwLR16DHiyeSLvaesq8gPUVV3MRHXejR3qW7VoDocxkYEL0jEB2ibwmIvhIQHaJvCYi+Esu+vUaaDH0c1G9e7popapMUf4FzW9vD7bfXF4hOnVK8V1fdPYMEoncEokP0zQDR1wOiQ/TNANHXY9Y744bb3adBzW07iOk3wcNfLfTlehBk7MwmmkWPSg+Gco+7zQb8GPkhJ17fAeYD0U33EP1uQPS7AdFN9xD9bkD0u7HgSy36EvEdvJxOCIFNZm2I5gRbYe7OE8cyW/i312eKnmTRwDaMqzjlWojeEYgO0R8HRL8bEB2iP47VRde/6NKM+PWWHD9t/EVUdaK7sdYQgELMTE5YRlVj3OxkNQq6tq6pwpzbayLS87ofQ397gKNkR6J/+Hbrb4qG6BD9QRxI9Op/9x8HRIfoD2IXotdxCNGdkCoEGd/NZSnHZizhSkbxHffOiXel8XC7nSPuGao8UO5nvD3VF2Y/GadD3nVdrzQf/ibIKw7RuwPRIfojgOh3BqJD9EcA0e/MY37AoSo+G4L4GhhzRjKyO3Z+SmoYBhVd9qWWBqqb3SB50Yfs7bV3T09ffPzw7dunp59/9d9s+99+8/b1R1du60z0b6ffUHx+evrmUvPNL/8v1/OlxW9eFz788RdPT0+3JpjCH/790vjTzz//kxrM8+03nb7xBxF7/IO7/7XrH3/3ejDfs+Oj2j1+4xWiQ/QHsVT0yw+hyp9M++HLm3Kf/Pm6JYp+8/xVu9dfVnzzB6bTi9A/+8tl4a9vb038Zdo+if6ftx1PT5/LPxKk6D+aQbAe3f0X0b8VvUL0BBB9hywU/Z9+TeJNTryPKt7svIn+4R1tehHns9ci//D9++jQbfE5NvFakUSPv8X4pM0Tov9gB8F6dPe/u+2nXrciuu+BUs0Nw6hTKkofH700Ob6u+gNKfYZwXVgsOp+g89g/jOWhJHp+jn79B/Lr71/+0H57E+bvF/N/9fKH/E8XKa//Pk+iM8+vWv7z9x9/+nP8Z5z+cn/9ufTfXx6AmfLHTfT3l39tL3+zu7+jHv/dvwzizdcvg/jw11/cBsF6dPe/HsznLzv/9vb2ZwFEvwMQ/T4sFf1n1798L25+Om17M82S39/+1b2K/uG3VPqq3aexmWuNm/LvbvJdil2Wbgq/i5P9i6vfyOFE0Vm5S69fOD2a/e9o/+VYbpsg+tpA9PuwVPSbbO9JSZLjpulV9ItR09z3uov+Qaa/3acF5vDkrvwfdU4dicIf+d8Ir9q+rrAe3f0xu1wWb0lrC6IrphhMzZJpl45NPj92dq8TymoqPqjbdbVTfRqcqpCYXTZ90qF8VjPXacvORS9aXhSdbptNdr5/Yg7djL2I/j/Cc8oBUzH663kqHtu4lTA3zp7Tor/nVr4kmNvn/LdW3f3v4sZniN4LiL4Jlov+hVp55rfMb38Wv4j1yZfy0zNR7vkq+E34Z3PbXYv+03d//M1TWnT2WV78fI616u53rIboi4Hom2C56N/wlU+1EO9IdPHB/EdV7uWv508/is/clVRM9O/+9bO3tjlZ6p0W+QvZqrt/H6KLQFdO03/9qFwzVhtUSCaYZANuCX6Yi3/AYTA4oh/F9aWiPxdEf/N/+Ofkz+qv58s/5bfmMqL/7Uvtp1cKokP0JiB627/oX2RE/+TPYkr/rP+Q/yZO1dOi3/40+Owfv/pTZo5uP6f7qEW3+yH6AiD65lkoOgkzzceTc3T1ibwU5/Vvd/qILDlHvzTw86/+y3YuSiWsfLYftqUOBqK3AtE3z0LRKfony8Qn5pcb0rdP3b+//p89MMPEef3b/fn29wFv41rOazwjuv3YXvbo7s+L/u6BonONr4wj+2DNBmC7c2Plh2IPxx1opx9ZtKJHdm55WCw6zbrjoy2J++gfr//CT/9Wq38hn5/e/L/f3uxj99GnvwkmhXkleqolQqKLfbetrLK73xf9UyoE0bcARJ/LQtFv4vKnyZ78J+N4KS36y45/esvn0JPz8TGcSfTb3/Q//vop/ZHd6yCmL9l8uH0ywHv09juiP/MH4SH6FoDoc1kq+tMnl4fSL8+6/+z2RbPUs+4fmTpK9Mu/3PGTPXrW/d+e6Fm56U/366Pu3/3u9TM5K/rk6ut3Vi5fZH19Jt5+lu/td0R/Px3e9atum5ijazev1yh3cXW9pcxpKTeMcnvFEiuI7jCrze3ARXd1z4sev/B1+yPe+WJYFJ3+eNcfbj0/8Xlz4ttr13Sg9kWm3dOnAvounOjR2e+IHvv72X9AdDOCGXUg+sNYKPoXt2+O377Wnf8+Ov3xrkWnL8Vcoe+jX+vd/ij/e7yN/vl/2E/UnqO3cRBv/oV28s/5zX7vI/Zbf2/+8B6imxHMqAPRH8ZS0T/+ePkzOr6o5cL15S3xHTD8VVLTB3ha9Ms/nvzLaIk3zHz42+XR1ze//Op77+trHy9fOn36FRvE02df+Xfu7X73Xtrr11jf/Or7j48RnYcXLY/0xrUw79fFk1HQXE3lmKomBroJyGuP3qOytXQSnfd+YNfpQ4dG0fsgvlB2XCA6RH8cWxC907+YWweiQ/THsQHRb98VPTotoqem39PGQX0RzJaouepxpT1umnBzVsXwa0Z2H9EXtLmIrr3zA3qA6Jd3Rt3jhdAPB6LLZYheO6CujT1G9Nc77+f4Bx2iq2WIXjugro09RvTr3epek/1t0357bbjNZUf1oyY0O1964dn/2iot7DfGWltVW+Fuc/RH6d6v94eK/vJ3+8+/Lpc7AhA9NgHR28fUr6Um0UErED02AdHbx9SvJYi+Ki2ip66r2O5e/1xE2H3juO53Nigj8U6E3205yx7yyqIvaOyeNIwUoq8NRGed2hJV7UF0H4i+ISA669SWqGoPovtA9A3R8vvow+3+mRJEX6/aa9wcss2z5wbiwOeMnYLzutpV9Di+bYruD2jOSJXuEL0jEH0Cos8Fou8BiD4B0ecC0fdA9Rw9L/B0gagQV1LXye2jxnhp1V4Zp3Qx6ESnKrcFk97iOoUl372C6GKgW/TdMmeI3HWI3hGI7nUK0XsA0TcERPc6heg9gOgbolH0TpdZieSYTJvcmO4U5Sqh+LfUuOtxFk7Dco9gZdH7Ndbet00zXRMP7wGidwSiT0D0ur4h+j6B6BMQva5viL5Pevw+erxGgX1p3Z1WT5NZGxXlaXVDJDlZI1M67k0N2anP5+i28pqiP5IhQUP92k4wR+8LRIfo9UD03QLRIXo9EH233GGOnrw1Rle0KjCUV1WM/P20qRKBBzD3NpmwUoOg7fcRvdmzfj1a0eNIUmNSRZMDH3B7bQUgOkSf0SNE3xsQHaLP6BGi741Zr5IqxIKKiFzR1D2tC+OMZ+KS2GYKx0EfJriTcN2S2ncH0avO8AqkXNei512fVjI9QPS+QPR0BYhe6Bei7weInq4A0Qv9QvT90On22ljjY7mMvvYUGFX5olCumZxFNpr5lqPO0alfSoMFqELIn07e9oA5+gpA9OxoILrfL0TfGxA9OxqI7vcL0fcGRM+OBqL7/UL0vdH3EdjaoMsUdW59NyQIdyE5Jiev5D4dtJX48hkegb1SkLuYBKrahuh9gehyHaKXgeg7BKLLdYheBqLvkO6PwNpyjk5qmdtV28+ckZRyUb7vyWQ1TP4MbbjlimOLfqWge4FiqyXR6we6RI/jANHzNRgQXQDRdwVEz9dgQHQBRN8VZdGr7pxN14gvuFdzpC+FBWO8LybvvSxpW5qgh2ydQyy3xEvc/xHYh5N0eJSoXQXRedsQvSMQHaLPA6LvCogO0ecB0XdF93fGVcGvP1Xms91yIPQYjOo9fkvNHUPcorKDzUVnED14rout1nXhfbFhiN4RiB57h+iNQPT9ANFj7xC9EYi+HzreXqsxdEI4XZyHN2QQf1Q1I2npdGA3BVVLV84putiqLHen7AXXIXpHIDpEn81+RX9++ofv6yU5AhAdos9mt6L/8BaimwLTWVdXl28UV4w7TLuFE6QJn+c6LVXtWIQ6jrhe1Z1NUrT91KKH2yWnE7Q10f/+6yeIbgpMZ11d3QDRIfpORf/xxXOIbgpMZ11d3QDRIfo+Rf/r2yeI7hSout7TJQxGE1oeldn8yodU1rDr6xg/0pfg3bHrAdHAafiqwElET6IywMiosjysJ/qPv3ux/BcQ3RaouqwQXRSA6FsV/YfLP+dfvIfotkDVZYXoogBE37Don/z5I0R3ClSdTDHZttPWcBNbXGYuekjctHJI+jcnCYhEVDuCwH6D0W3yJKLnznnKdbE13/wqov+vr1/+C9GdAlUnE6KLJiH6VkW/AtGdAlUnE6KLJiE6RN8Y7bfXkriu04K4sjYEnPaKnfqhkqyWEbPQi9NMvuuTiB7yJ2/IvxG22DZE7whEh+hLgOg7AaJD9CVA9J1QJzrXtfb8qhm4sy+lTDkKBrqTZxtwfM63Vz4mXYKv2zEMp5mjF5jhtgCidwSiQ/S1gOgbAqJD9LWA6BtijVdJ0YI/Uw/8MTnvdUwt2E756sh/cyHPNJSqcbi5ia9C9AsQfUNA9EADgOh9gegbAqIHGgBE7wtE3xBr/GxyWRZ38t4cCIWq9BFAvIOX6aIqDqd4LTZ2EtELp4zLDdEfDESPTUD0RiD6foDosQmI3ghE3w8QPTYB0RuB6Puhk+jiihbK8g/gVLVZrucrTWLW6FkmfniYb+YMoi86kVVA9I5A9BYgemTPop8QiN4CRI9A9F0xS3R+jfX1rpp7p9KCnsnZmR1fnR6x5fNm1fa0PCcm3TqDO9W0W84g+vpA9I5A9AQQ/eFA9I5A9AQQ/eFA9I4sFv2K/qJa6tFWoaTThv1Fl+DdjNNNFKbfNTNrR+CQzkgFIHoPIHpHIDobmbu1WNMBovcAoncEorORuVuLNR0geg+ysTlUs0SP47Ds9poWTs+gmWB0iysqmZrtRudU++oJt5ybeqrvj7eShmrXriB6DyB6RyB6BRD9IUD0jkD0CiD6Q4DoHSmL7uvEiQXG28sb7LNo/FZY9XR3lG8Lzo2gquFUggmUNTLN6O1qna9C9B5A9I5AdNZEgOhbAqJ3BKKzJgJE3xIQvSNl0cfMDNW/zRXMrbEGtyNKcSVpbFKVcJrIjE8UtV3nGsuMG6L3AKJ3BKKzorbrXGOZcUP0HkD0jkB0VtR2nWssM26I3gOI3pHGX2pxqbr7FAulrBQMtxm+mvDzJgoM9iE8vk4fIGh/a56jS/Z4XYDoPVhH9O9+94unp6fPvsIbZlSByymH6FVA9K6sIfqH3z5NvPmmWZY9A9Eh+lZZQfTo+QunMr3l99EHM4sd3V9RbH6QzNlC7Ssce0PirbJu81NpN3fE22vJYan1VKcQvQcriP7uxe9f/feL8H98+/T0s7+0+7JbIDo7oADRt0R/0f/+66enr6+LP7yY/kWjLHsGorMDChB9S/QXnb/m+eUf90/bXNk17V9qGdjs2dGOYt/Ohx1I4CDnxmKCzrsbbo/Z+fWCSUe3Bo29js+2BM8gftZwgeg96C/6M/tX/GTvdofo3tj5kUL0R7HufXSIrgro0w/Ry0D0Hqwr+jP+dJcFprNO8nFBlApRtappesEcPpVWwl0ZR/adF66+7kENuWFkqlNdgoaldkP0Hqwq+uVGGz6M4wWmsw7RIfqdWVX097i9pgpMZx2iQ/Q7s6bolxttZ/oHvfX76FaTeEKDfBurmjo75BrmDqv2RAWueFWC4W4GZmjMF6lhxR7zDQeI3ocVRb/84X6mj+IgOkTfLuuJfvH8VH+4Q3SIvl1WE/3HL0/n+Yzvo1vhpvjOOGJXNarmMMipeaExt5CDO5EPKlvp46qc1/Oxbkv0quFvkLVEvzz9+snJPIfovEeIvilWEv2vT2ebn1+A6KxHiL4p1hH9+fIFttN5XjlHp1DhE28lYuKO2wymxviEP1kudi89pRJiPWW5KJGsnapnW92Q6Dzk79Zjn4ZWEf3bp5PdV5uA6BC9f499GlpD9Jd/z9983WzJAYDoEL1/j30aWkH096d7hdQNiA7R+/fYp6F1XjxxTs+X/D46D55hSNzDbogwatXZShTtr+gitSv38V+uGS7SdWHnos9XtWtGWeX76Jwz3UuH6HEXRI91lvU2s7aiu+ji1ZAQXRXwL2eA6KIqROe9zayt6C765S93iJ4qEK/f9fRz1ZbOxgUDn93bgFGK9+t3AalBbEj00HTOVM6a09XQ7RLhl1o6AtGXANH9+rXd5YHoHYHoS4Dofv3a7vJA9I5Uz9HVPaQhdReNgiSXBPJP1W4CHq7+cfAZ/SjfXrct0a+UHbaOLO5rUTMQvSMQPQFEh+hHAqIngOgQ/Ui0/FJLYFFP/x34fTV+Ucv2qhAQndRUWJtCd4N5m90+RE/K52qyoJOQyZI1QPSOQPQ0EH3Doo/VLNHjOED0NBAdoh+GdtEDu9OVCxi7vetUPBk/nXqpik9+OjibE911mLuYpKptp58Og4boHYHore3bQhDd6afDoCF6RyB6a/u2EER3+ukwaIjekVlfaslcabHOE8JIv5roV7o7CwZAhthmrqubE/3KCpYHltfbq+aB6B2B6LOrQnTeqm6sw3Ahekcg+uyqEJ23qhvrMFyI3pG+otsLTIqLXWN6Hp3ZtZxyAJajVAW1W22joivioF3F9fFl2hBnQ52L+dJD9I5AdFMCokP04wHRTQmIfmjRf/rjL56e3nz+p0ZR9k4P0f3rH6S0vsBV5tllaj75vZmu+cKJ92s0j+xDCB7fuxFdrGTw6+XrVLSUZxXR//p2eo/U5+f6tRaIXgFE9+vtUPT38Y1x5/r9NYheAUT36+1P9MvrIT/5/cvf76f7ZaZVRc9dV7VvTN124+vN9rYFVkublGrcLvYhuoAOy4qZlFYZ5ezemujP9A/587leAgvRm4Ho+xX98mL36ZdaXv5tf/OHRln2DERvBaLvV/Qf3tI/4xBdF+gUQiGlnbr+a7gZes3Zx1FOyoP8WXQqt0PRgxTaldRxv+C6baxhPKveR38RHX+6iwI94kctOOFlS/cFopc5lejvnp4+rZXkCED0xlYg+hFE/+7Lk30Wt1D0qgvHL/DoCldIBZnSnZLCQM902V78kfGDOoroV5Ki892u5bnksCXRf3iLB2acAoWgqI2c6zJE3zzHF/360Mwv/9wkyt6B6KxJiB5OIfrP//dvnvDAjC6QvDr+dmWyK7aztTYEeMpoqTcHLrDox9kk2b/oVTSITvsaRrLmh3Ef/u1kpkP0Ul8Q/Yiin+7ROIhe6guiH1P0y2Pv31RacgAgeqkviH5M0S930k/0t/uyD+O0sHx9TH21bLQvouhMp7ZtM4NSPNXRsUWnQgXR3cYaRgLROwLRW5qB6PsW/T37Fjr7gssZgOgtzUD0fYv+w9v4TRa+fAKqRbfXSFueIlmON5kLgXJ4zDS7qtrIZpciXkfzaQS1t2fRQ9H1kBZdyO621DCMdb6mOv2Tfvks7kzvmIHoJSD6cUR/fSju8oaZD5dXx53pH3SIXhvQPUgAACAASURBVASiH0j0j9/Gd8Y9fd1sy46pFv160igQynHCi+oKPArsdh/l1RRntKR25KqmRhx/TaYwFF7JNv+yulvRC4pz8pLnskQtq3zq/nzT/M2pPIfobMQQ/QSiX9/r/vTL359ofn4BoscRQ/QziH5SGm+vDbdnnJwAoSW+g9ypEkdvutaznsZEUdtYsXtxBG56aojSfYpuHS677kivtJ7vOkTvCESPBSA6RD8sED0WgOgQ/bDMejJulFPicvyMbHZfd5eOYqYcDw26F8o1ZIM8OxedO1zGcStTumE8EL0jEJ2Vg+gQ/ahAdFYOokP0o1InOr9AJOZYcxuKdufK+a5TvTFzW09tyq/GvmyPUxDaGnpLqhzfu1vRraeh5p6bb9hS14uxCeqB6LEoRIfohwWix6IQHaIflpY5urpMbVetQNJ16sIvMWY/Llg2Pj9JXVfG7AcI+xQ9sI9GyNPrdl/XnOWu6G2DgegdgehpIDpEPwwQPQ1Eh+iHofH2Go8C2lKOnIarK0qnqjrbKZJUiIoShb5TJUSgqlxnl18Wdiv6IB+Lo40FkqKrBtoGA9E7AtErSkB0iL53IHpFCYgO0fdO3Q84DPKbJXQpg3KOq6Y2xoUhfX9Kb3TThCikRraYosZVlY8iOl2qWZZz5gwGoncEoqcbh+gQ/TBA9HTjEB2iH4aWt8Dyi0obRZDMuZyuzEl01kjVdgZTNb4xNcOvGROxW9GD53oU2vqdFH3OiVRA9I5AdDMaiA7RjwdEN6OB6BD9eDQ+Gaeuv740o/c9l+E2cReFmqFmdHapDSZ3WH4XfLeT1dwe+Uh2LrqP477clXR9pu4QvSMQPTFSiA7RjwRET4wUokP0I9HyfXSSTF07cR25xlyWK6a4V20uVfFkBdb7Ms0M9kTozPPKgURPuV2yXBWq6ldtgegdgehmH0SH6McDopt9EB2iH4+y6GAGOIs9WCfkzwlOJgAnAKIDcAIgOgAnAKIDcAIgOgAnAKIDcAIgOgAnAKIDcAIgOgAnAKIDcAIgOgAnAKIDcAIgOgAnAKIDcAIgOgAnAKIDcALw4olVwFnswTohf04a3wI7541ADYjXO9E7iKhJ9f4q8Yoi/kon/fai8fYrcXwH74u96Er2wl+ONK2ql0iphWshK7p47VLVS5rc4y2cv0Unvy/uAbXVhOgdgejTMkTvC0TfFhB9WobofYHo2wKiT8sQvS8QfVu0vO65+UovKOduTZqs9o3qTc5KGL2bfFZtUrnx9mOCMWr5JmVsTnSuu6oWuBxV5yhzgh6PTVi+7u7BQvTuQPQLEL07EH1bQPQLEL07EH1brCe6xQqWbluVVarGiHDb4woKgcfb7ycqseKyOzihJ9eV90hFy6Lb5BB75moUztE+8A+T77YLEL07EB2irwtE3wQQHaKvC0TfBNW31/Kx5juXLGub5FGQc44vD3ZTkNrpBlw3xRGocSixnYk895uWy6Jbak/f3nAzV9yXOnKI3heILo8AovcGom8CiC6PAKL3BqJvgpYn45Ze7OT6nCwRMnN0vhAtFetso//RAb9zpnvk991GemSO3TNrFn3WudgZuSOz+yB6XyA6RL8TEP2RQHSIficg+iNZ9ck4HcQ111xUKicEsjdVSMysacpNHYkKtMTLBZk7YjNW8XDLAVWi5w7ocLQd1rU0RO8IRIfo9wCiPxiIDtHvAUR/MGvM0TNx7IjfEAJqoj3a2bXNDCNZyWfWfpPuoYy3p+lEb3wcNBr6b8McvfbY90/DwV5PDUTvCESH6HcCoj8SiA7R7wREfyQrPRlXuKgpqWqjQIeE3UcijmpeTt7aCoNedz8qUNmFG0vT9ILoQaaIsxmvsbED0bsD0SH6o4HodwCiQ/RHA9HvwKw5ug3LXLAqEX0rR/kIWoFYmutppReFAnuSbWBz6uQR8N364wDe5MBeDnXd5Yuu6p/KdZVGq4pC9I5AdIh+DyD6g4HoEP0eQPQHM/f2mjNTtRcrtepccHunrBF+nyyOiURPaUzT6tFNNepOnOgoyARDnwXk5uh8ZHxUh/c9d1juPojeF4gO0e8BRH8wEB2i3wOI/mCqRXdNHIqT69q45TfBauuN+TFFh1UG4D3kjkCZF1eofVpVW6zooj1HbkvVadsNVWdY7YLoHYHoEP0eQPQHA9Eh+j2A6A9m2Zda6H7SMLBbUe4Frs0Golw+5B3RldI6cbhax06S41A96nty8tfUcnP0WtGTp2qvlEVXJyXg++hdgegQ/R5A9AcD0SH6PYDoD6Ysei7uClFZZflMJtnclvlG57YZl5626KyRX50q8ZbIcogusIdVOHD6L0TvCEQPAaKvCUTfBBA9BIi+JhB9E0D0ECD6mkD0TbDgwziuSaeImNtYKqPE6CETc11cS9MnjIHJPPLfM6cK11bV8L0QTbwzTrR6UNEtSfGDzJ4QvSMQ3RSH6CsD0R8ARDfFIfrKQPQH0DJHV7NdfmXag7OqQvHWvDP3dtpWO+xBxO5IQLpjnkwOSteRkXvxhG+2exb3ZLx/gmihHCz2VED0jkB0iN4FiL5tIDpE7wJE3zY9Xvd853jU5lE2sGlhoNtmVm5nfqy05q7HJKfuydn4dEWPXbt9Vnm/f8QxqQPkhwzRuwPRIfr9gOgPA6JD9PsB0R/GGj+y2JXaYFflktrY+2wD/+LdwG6vcRnFFlrnc/lr/dQcPfDuVEDv1vLmIeYOyx4+RO8IRIfos4Ho+wGiQ/TZQPT90CL6XUJPT7S5FH5c2KJOucDm1LSDbofFcspY7uPIi6sh00z7Wjp5e61g9s5EbyN3aO7hQ/SOQHSIficg+iOB6BD9TkD0R9L4ffTa6HPd9K+8bTjZo5KlaiRRTGU2bYmdcssHdoeNUsSoSozy3hgZX/ullpzixxI9l7+GRA6E6B2B6BD9HkD0BwPRIfo9gOgPpm6Orq6OvV5xPtspKOwmOzcutOE0QDIG82Qc69t8Jd1v8orb2GLRN215anz+2K3GcauuJ4HoHYHoMjavKxA9R2p8/tgHiL4FILqMzesKRM+RGp8/9gGib4H2J+NU+Lfh3JyqihYbGrpZvuwMLlV7YFNxMfu3w5iW1U03289Y8xbYKvJn6gGowdkT5Ozzj4mvpI4doncEokP0etTg7Aly9vnHxFdSxw7ROwLRIXo9anD2BDn7/GPiK6ljh+gdmfulFseA5FYVKVXhZGPhupDTONn2IGfdgd02C2yWPdruqHLyMwg+8ycOPEdPjbX9AItA9I5AdIjeRGqs7QdYBKJ3BKJD9CZSY20/wCIQvSONT8ZV3eOqDVRbqL1aVV/DTXQylk+0r2VGlQoGmVoGfn9PWU81M6LHsZapPREPYTBa811dgegdgegQvYkBou8SiA7Rmxgg+i4piz4quatisFxoYF8Jsbuc5+D8JosdOeZwpQd+e403OchsQGPV47UlGubozpG4+zZEysrMrkGfv0ogekcgOkRvImVlZtegz18lEL0jEB2iN5GyMrNr0OevEojekcbbazwA1bLWaX6szop0X5s8OpsM5jacPxKqx8vRrirRc0Ms7L47eiTq7JSZYzlE7wtEl5UgugWiHwCILitBdAtEPwAtt9esSyIkyxFcjqHijsHOqeegGvDb47fNxJAG8xkCHfiYf5VUSOUO3hKx6BC7IkbDB1crLeboDwaiO6ti6wDRIfr+gejOqtg6QHSIvn8gurMqtg4QHaLvn8ZfaklFHz38WfHmuIYgdsvNMmAw2UqZN6gSA3tsNqinXrX4t2rXMxCcVyYs+anKLRgfT1WolzsFa/OGmwcgekcgOkSvGwNE3zUQHaLXjQGi75pq0Xm42RAfhvS0Vf1XkJtsD2Y6vk7Ii+gL2a+4OVXV+BIh+uhfme/BUr990cdR/CMB0VcCokP0SiD6noHoEL0SiL5nGufoKZnFVaT/Wo3jdc4opAsFky9885I+ZqBoi23SqJMdEXzmzlvareiDl8JDpeTiLGYq6X0Q/Q5AdBOiEJ2vOpc4BUTfMBDdhChE56vOJU4B0TfMAtHp0sYLrAJDRUsZupUlfp48H4xOVPmNuzucHpz7abyH1MApYkPn22t3xlVVrMRLniHUpwmIfgcgOkSXDBD9iEB0iC4ZIPoRaX9nHMUCXZzpUvL1kPLRXn+1EK+36osvZJQrdV3YPjKCSVJmxaSCaxO7FV2d+aSYBXUtyfZGCa8A0TsC0eV2iD5A9CMC0eV2iD5A9CMy60cW7fUW2WCQ9lK52AC/qMlWg0kFtC9amIrStsjWAana43tD8PKFGNOOb6+FmjtpSnRlaGJTYmNSdO8sgvlAdEmA6EUg+g6B6JIA0YtA9B1SJ7rrj5IjimBL8zTg/FBKcF1yOw0yj4hObbLJ1VYTQl2I4s5vQI1jlN+CWVP0IZNvOrVvEQ7SqbF6CmN5XuYVdMv+DojeFYgO0U37EP14QHSIbtqH6Mej8ffReSzo0OPXjnZUyUf7olpj4u6WMkq/1SmTHyKqDR2cqmsKQD3YINPTyF48tZro+uB6u+5arv22G636o9qn1Neiu0D0jkB0iC7bSwLR9wxEh+iyvSQQfc/M/ZFFRy1aykSfkIKKDqmsYUvwQIjNUiTlele9UJzFJmgfl5unKlFbHQEf8Qqi60NejZR2PuMMatuG6B2B6BDd66gWiL4TIDpE9zqqBaLvhAVPxl2XowfKCPeKRh+V6zrO+L7BJhVVI7XFaSzIJKIJ8rG9gT3xJhp3h09NrCP64jaqelECl31cx/IBoncFoksCRJf2ln2E6HsAoksCRJf2ln2E6Hug/ck468h0+chhFTn8Aot9I5sfD3JiHLfa9oIb9YPJFzF03U65xslsZVvVKUiN8nqwy0QfTGqqquCc4bYercBaPSo9R3Ff9Iz+EL0jEB2iQ/QTANEhOkQ/AQvm6IO9+6ScHuUzZlOkuHGsozQTslXR7GaJXFEdx/rQePc8Q7k9LhB9vq4LROcN0DUsiz7HdVdpH4jeEYgO0WUDEP2QQHSILhuA6IcEokN02QBEPyQtH8bRlR7Zb5mQE5PT9nIGJoQTLSrIAnVRFbUqulPLfh01hjAY18tj4K4PHUSv6nQdagUMXk6Y5TpvCaKvCkSH6KxfiH5UIDpEZ/1C9KPSPkdXYUiGi7d/2XIxkIKc59q2pX3prgNvqWyHmwR0j1WKF0ssFl21XaX+4vxg/auizXIteqYviN4RiA7RZb8Q/ZBAdIgu+4Xoh2TB76PTJRPXb2STdXtBCzEpSripwCmaGl9I3SALRvp4EHxdHWnIpCDVau9vry12uKGXon9zdXcq8V5sCYjeEYgO0WUvEP2QQHSILnuB6Iek5XXPdL1UdExOjOY7aPRfbpA/vdVXmjzLqFXlXHIrD+ip62C+3EYHHiu4bSju9iOLmTPQ0IRwLrQqTudvpG8xVlleBKJ3BKJDdHZVBoh+UCA6RGdXZYDoB6X9dc8De1sDLYitqcipClqRNVTVZBtjYi7uVEiNTISoPeRcY3ys1+0rvzPOP5nlM9zcYy2u247rUfoa9yF6RyA6RE/3CNEPA0SH6OkeIfphqBZ9kPPmwAyIZtBlV9GnReT2jmbaHwPDGtYjmkd2B5APOk7EKWcFN0nxaAws4xHrzNF5n6H3qVG1HZPVetJ1tc79dtxPMTpv3gPzgegQ3asN0Q8GRIfoXm2IfjAab68FE9YixEkebq8rrNhRiDtulF+0HOP50eh4dYehy/LdPHTDHX8fvR/qBOVEt5L65iqlRYmi8RC9LxBdBjdEh+iHBKLL4IboEP2QVL9KapQTVmWXvmSjmfDGEOLrvJywxrbcEOlOQuCZx8b3QHN0Piw9Jnp8jicEHq5U4Q5PxmWOZnGTrusFfNFd73Oi8wiC6B2B6BDd1IboxwOiQ3RTG6Ifj5bbayqS6OL4YaP81vt4vrBBMZBtFAhu22Io5QjOHEEUVR0X9S4SDhddhXm445da+HEE7yI5RWvb41fISGzwvVXq+qQag+gdgehTTYiu2xsg+oGA6FNNiK7bGyD6gWgRXRmgg4eLGcwdtutCvLQqqrTMqqOCyWo03LmpcfcgeCjHIwhSBz/E+WHyTq/L9/w+untAYreqYA8x2WpQohd1j6fG3QjRHwZEh+jpVgNEPwoQHaKnWw0Q/Sg03l6zwcTDQUTVyKazohytUPC4Deuw5KGWC1E+mpHfEbMRHJjGIx8ND1c+/HhofGS6u0eIHqTVQpvMCZr2+vWYc3JpCVWuQ/TuQHSIDtFPAESH6BD9BFR/qWWQZrvRFkOHX8RUtXjnTNmr2xiMpMmoz/XFa9OyU5RijSIu8FSneuEGUOV73l6r0it4ipfhJ2Hkm/hCM0nX1RaI3hGIDtHTQPTDANEhehqIfhiq5+g8uC1Rh1QJERpu3AX71RMeAn6I80KpcklBnGU+OJUcYo9BZiEVvsMGRXeOo9LHYYnSuj3ecNl1iN4RiC6XB4guD2iA6IcAosvlAaLLAxog+iGA6HJ5gOjygAaIfgha3hkXEqLrwFA4xa9FVasiHFTpZHvDTclU0VjD7tDDpWHZfCEK0VaeCvjyw0V3tvPz5dZhZ5+djehfspJXuaJs3nKI3heIbqIvQHR2NiD6MYDoJvoCRGdnA6Ifg8YXTxQiLiQcEesjm85zr7gpzqcCQyrf8FDmpe1I4lfrbEs6Eu1BjPw+OhXiY6ceHvLtNXUexHHws1MtozutrildbrUKiN4RiA7Rs0pqN2tKl1uF6PcGokP0rJLazZrS5VYh+r0pi67VsKE2LVE5MjkwIWjXOLIJNQ9Xp5/BTIl1oNp9zsj8dfugro1aVVP3SGMQSerRc3Q91ir7Uj7qTby9ovrJViH6vYHoED2rpN4UIPougegQPauk3hQg+i6pnqMHpq7aIiIuGLl1VAZpGNUZ+WNYqkk1gBheqV64p0lBeMqJ+YzGoY5x4ClNVVAnYc0fWRQH7rqUrjRbT9F4Zm+5ZYj+GCA6RG8i1WlsO18foj8GiA7Rm0h1GtvO14foj6Fa9FHOQlUgxfAPzMdBZoYYKtow+TyWE6Juj6L91MiGwYrKdo/qSTg1RL9hKsG75idoZdHjGKxIuXpVFFS1jTkV1AUdmvyG6GsA0SF6WlIH2xhE3wMQHaKnJXWwjUH0PVAnOheYxzffMoUYmUOFVAKIJfQO9X30wVikQjex0qoNjWFQYy/IQhGsynkh2vH2Ws45Z9ypcg3oju3p8JMDbZ1jOUTvC0SH6CV0x/Z0QPTNA9EhegndsT0dEH3zNH4fPTC/eWRP0EWlQqOZjTsXP8isEVTjvGu1KobihHlqnwr/UY168LLLwD+KoINVda4b7yC6PRT/DKii3NaE17KQrumPJg9EfzwQnQ2GKxAgOkQ/EBCdDYYrECA6RD8QjW+BVVeXtoxcCpKRFxKXkETigg2u6BaeGWL7bhg6wW4bE4MZpL25Qfh54B5z9LjEjQ35VOe2VCW6v6Nc+8pMyyF6XyA6RE+TLFdV+wpE3wQQHaKnSZarqn0Fom+Clttr6rLruOHGjmxqTtViAS4Vd90JrEz46oDMDY66t834qcWNZnGYvJw6A/f8PnrIJ7l8Ha2kc7yp0ryCrSkKFUiVg+gdgegQnV0053hTpQeIvicgOkRnF8053lTpAaLviWrRuXM2sJx1ul60JQYMv8aUE6iyqKTCjUrETvngeHs6IFUbvDsd/2pVN8ldp4OgMXghuq7ocyioS8eXFLhYOW6dCUTvCESH6GlXk+VqKsetEP3xQHSInnY1Wa6mctwK0R9Py+01fv0dRjbbCnKCTh5EubnrvGiwWSNHsgEeeqM7C2elxcjc3uPGwUsc/L/hvm+BnU/B26pCXG59TRdZDtH7AtEhOkQ/ARAdokP0E9D4FlgrQdx4vTpB3mdz6vDwsMEUC7mRqStc162e1ImOvlTUj6lswB2OjakhUtvXhR2IPsjcrcntq2KR4hC9OxA9UBMQXZzXeqk9IPq2gOiBmoDo4rzWS+0B0bcFRA/UBEQX57Veag+Ivi3av72WUjBeYO6jE2Ij+6wuGVW5Bty75KoO/VeEzlD6YC7JQKJTs0FmHj6yHYh+ZeCZVZ3/wcvD+pw7WzooDtG7A9HrgOgQfddA9DogOkTfNbN+ZNHKHMNjlNNlJ0hUePCiqnKc9gcj8BRRPLBU7MaNdkx8cE7kOzt41lA6WDt2IDoftL91KIrOT0U3vSH6KkB0iJ7YCtGPBESH6ImtEP1IzJqjqyCJznHJ1AKtOkryfXHjwPLKKKfzo5oijvKV0Xq4fDSqUxHN/ADV7ngc1gJ7KI8S3Wan9qKpLBb95lor7yH6VoHoEN3sgOjHA6JDdLMDoh+P6l9qUfIEKdy0gzusAiES5NsabH7QAUQ98vrBvqCCCtF/p4b5eFXpggu8ySp5hr3M0X3UqdGiK+ObRW/LBhC9IxC9FPUBokP0/QPRS1EfIDpE3z9l0aNOgYUyJwobBZSXVm3UL3VToRY7UuERmLPBTqtVRooNq8Q0qvSkPmWwWvvb1Tpf3bPowSR1R3F1bZICqx0Q/WFA9BAgOgHRjwpEDwGiExD9qDSKriKCdoko4OHBXbcpIlZVDU9LKpK4bdOCSjBBih7zCq/EB0Slo+iBpS41ytHucA/o/qL7p7BDqz50HtrUbQOidwSiQ/RsqxD9GEB0iJ5tFaIfg8YfWaSry8Nhuuo2MFQhWTw1ob62QoZeF3gSoSacaFQ9ipEFmQq49KImzyW8VacLZ/ejb6+tajk5yF2H6HsAokP0dEsQ/TBAdIiebgmiH4aWL7WMcrbLL7YID2WODj2+riXjs32XwTzeNo3MthS4m0p3ggpNK3xHYCbrXEKl3QRzCNF5k1p3teBcsA4ZAKJ3BKJD9IomIfregegQvaJJiL53qr/UQtjrGKxRwUsLTijyNkY2N9ZdqO5GtcLjbmTyTU1SG0GqO7IpuxiySgh23AUdtvBknL5uVTWCOcyk5UnFuwHROwLRITqrESD6QYHoEJ3VCBD9oFTP0ckLdaXjajBPntkQEtGn5BMR5gYQVcvBw1UMk1qljmx28u4psbQgjpSGaMN/C6IvQJ0XLbS1fB3dIXpHIDpEN0D04wHRIboBoh+Pujk6v+AUC4FpIeKd/hvcmTDBY4b7N+1TgTXKtDBtt+GhFVdD5pEZvE8cxpFNyp3lUUY6NU819yy6Ol9qOWqtXBe7RpMDZwLROwLRvXikCs6yjXQ+4gDRR4i+QSC6F49UwVm2kc5HHCD6CNE3SPX30dV1TToXmFHKg2nZUZ7N7kXW4NHCq8WG1ZhoWKponGa72SBudcar3E7ZQRW8EN2w6OKYXNGHGoSi6qpA9McD0Vkk+uOF6DVA9G0D0Vkk+uOF6DVA9G1TN0cfzVe0+QW5bo9hrkSisAl6iS0PMnHE+3iuw7wr8aScKqq9pAoppZPP8zkhP7IPIUaZ/fYk+gX3nFX57bs+X26IvhIQHaJD9BMA0SE6RD8BEB2iQ/QTUPcIbPAinSsdnVMa80KBf/KjHVSf3rkakvdRRy6+G7dOF24FEaWqYZ0y6BTwVnkG2ZvohL08vsqO3P2B6B2B6GKgEB2iHxOILgYK0SH6Mameo9uwHtgE2okWtUObYkuIKLItj+ztFE6nbpTGHcpNv7SfHdSIefd8lPy/uxXdkhRdST+6+yD6VoDoED0LRD8GEB2iZ4Hox6D6xRP8ogbvhlaMBaqgJAhkCq8XzDxcV0otO40ngzVTznGYD5+OSTdJxx9MFtq56PwSONeX+8z/G08ZRN8cEB2iGyD68YDoEN0A0Y9HyzvjePjzqzvym11kEUmgQ4U2UT0uy3XBeeMcLxFSVqeSQ3uk8+50aqEVleuowiFET8JFVwm/j+EQvT8QPRHpAaJD9AMB0RORHiA6RD8Q7aIH+dUWIfCVkc3OKXKC9FTkBFXUqWoZ3XlzYBPlWNO279YU67Z9Z2TqdBAHFr3B6aXiQ/SOQHSvE4gO0Q8GRPc6gegQ/WC0/8giDwexoNYHNpHn/43zXit6qqvs3Fut59rgHVFCqKjKmwjphwNpdc+i5yxXxle5TkWbvYfoHYHoEF0C0Q8JRIfoEoh+SGaJrrSLotsd10sW+NQ5mAk2rxl35bVz9pJthC4x2om9aoDGm0SFLB0QT2F7Fj3IUziaDyAqXE+VbnMdoncEossGIHqA6EcEossGIHqA6Eek5VVSJJIKCidURjZ/DYnbVbFcUsxgXsvKG4shlWpYh686FCfA3S00hpGPgGKaH8S13IFEb1RcuT6arAjRHwNEzx4LRIfoxwCiZ48FokP0Y1Atuo0F9V8RISSEIjZAJfhqsLJZ0Z1CajTpXtMz/4T7Fi43j2k+gGOLXmWsTQi1KQKirwFEZ0P3D1UB0SH6DoHobOj+oSogOkTfIXNF50GhwyNInUY5s9ZVRzmbzvnm76OttuuQuqFX275qexzpw4Fb7PIFOgOHF70BdWoa6kP0jkD0bPsQHaIfA4iebR+iQ/Rj0Pjba4qCPsrkwX6phXZwHXW+UALTwjiy+bFtNTkg9zgGnokG9ilDsEmK4pXX5pV3LnrIu66SXE5xa3mD7BC9IxA9BIhugegHA6KHANEtEP1glEUfx8QkWkka1HW9FuLhH1IzZqrmxJpbLi7YlnpEd2ByK43FLUQ7vuvCgURPelrrbC5ZQPS7AdG96A4QHaIfC4juRXeA6BD9WEB0L7oDRIfox6Lvh3F8XRmvC1UZqpKKE4xqH88joo4tmmsslY5ilAbziV04puhJ13P+KpP9NiD6PYHoXmMQHaIfDIjuNQbRIfrBqBbdRv2YmlYrZbgNcXeQqUBVE0q6KUO0xPsNpfwgGhDl7NjpMCk7TdCwAksLdKQ7FN09nVpMrmfaduNwuYQqel2A6B2B6KycHfsA0bmbA0TfKxCdlbNjHyA6d3OA6HulRXSKY22l1W5kdIiV1wAAHgdJREFUs1gtqdKGNgaVTZSGKtMI4fjIeKuxrB6EiXItsE1szrCo6CDz0t5E59dUbYknVUmqEkCD62Irl1uVg+gdgehxSBAdoh8WiB6HBNEh+mFpefEEv0bOZeURwisEqXSw5a6IJmgTF2lQecWu28bEONQA9JHZiHPG5wzC3Jjbm+iEOiBhsi90iozotY1B9I5AdHZkPEST43MGAdEtEH1bQHR2ZDxEk+NzBgHRLRB9W1T/yKK9StfQiAZRhCjoSqtW4t23QWrsVFLBqNtPFSoPjo9Bf6AwyFQwUD4bTNpRTe5fdHWtPVfzt9oKoiuCvKV5BaJ3BKJDdIYr7ADR9w9Eh+gMV9gBou+fOtH5paBYpxAIfFodjCAhpRltHc0EOrZxjRNatq0m5/nBUzD5lZoYjXYAQgJVzm3+QKIP7nya7O0nuh0DRO8IRA8BohOuhRD9AED0ECA64VoI0Q9Ay+01umR0QfhqvExq2XdCXWCtU0Y40aStF1IZxI4staqHT8ks9kj5h3dK/92c6FanXLkCo0FcM17O9dlp0h0GRO8IRHdW9fAhugCi7xCI7qzq4UN0AUTfIXOfjKOL6LvE9RSa2CuqlqeGqbYbqLpTHjA0Pt3LKOflDqOc4fPm4yHzZlTeC8kQfZzoGZ1yRX2/7X+V6Dn8HjIjgegdgegMiJ4Dou8ZiM6A6Dkg+p6pvr1GMc0vcFD6jGb+6oQabQ1S4MF+9YTCiFfgdumvy5SjmZdzSvPGRzYJH9WnEYPJUPxcbEX0olHJ0g55ocv1daHiSCB6RyC6BKIngeh7BqJLIHoSiL5n6uboQ3pWFq8ObeXXKxdIVM2ZPQ8yDwzS8rjAR2M70n0HmVoc6DD58PmCU9tu2aHo4qwyRo6vbz1qSAXXIXpHILoEoquLBNGPAUSXQHR1kSD6MWh/Ms5e+Hj5XE1oYywUPJNzF17FXayj1zPNUDq5lqBqogQ/CCqn6vspjdfZlugNRVMy97DcJzMkiN4RiC5LDBDdA6LvHYguSwwQ3QOi752622sU+2qBYiRendG72UWZwRRPVHOiwI8OWh/YzTk/fihkB090cZi2Gaos7h/yjMfrbEX0DM45SrkosvoKpIYI0TsC0dleiO4C0Q8ARGd7IboLRD8AZdHBDHAWe7BOyJ8TnEwATgBEB+AEQHQATgBEB+AEQHQATgBEB+AEQHQATgBEB+AEQHQATgBEB+AEQHQATgBEB+AEQHQATgBEB+AEQHQATgBEB+AE4MUTq4Cz2IN1Qv6ctLwF9pwkX3dkt9IWK/qoiG9oUj+GMXhv6qLdus+BvUbLgb8Nari9QCsHFVKtipc+0Wu0eNuiXL6HWJAfxGh+xQOidwSil4DoEP0AQPQSEB2iHwCIXgKiQ/QDANHXoEp07oSwkMszSIJynYtecKyQE5S3anAiWagxlbu2w3Betl1xFsF8IPoaQHSIvjEg+hpAdIi+Me4puns1V2KUP/TYg4bGyqInTaMl+i83T4+Gb/IbU23krLTm+f3ynGOlFx8/OGPie2nd7QuidwSiVwPRQ4DoewWiVwPRQ4DoewVz9DVIiq7CmjscDVA7VKGBbsNxLzJ2OYlD66gyAG+VFsTNPipNh5xLH7Zr8SEEP3MQfSUg+hpAdIi+MSD6GkB0iL4xIHpHSOPcHF3pQKuOecoGR3SVEHzJ8lvEPps+YoXAnoajAY02I2UOTact2hS8Dx0gekcgekcgOkTfKhC9IxAdom+Vw4s+DHISuFovfLX59lrBvyBvZQW1bl1PtpdMCFxG1eS0KyQm6LSc7It263Hz3aox7yyC+UD0Xr3wVYgO0TcGRO/VC1+F6BB9Y+xK9AXOzq9aW3PIzS490XNy50WcurMN8EK1bevawagrRFddB6auPxS1MVjXdQ5LnkUwH4jeqyZE94eiNgaI/hAgeq+aEN0fitoYIPpD2JXoW4cCv3aOPrhz25SCzlZlGBfdyQPlLrhtvPnANwVzY004qwanRimEVu2rMUD0jkD0jowQHaJvFIjekRGiQ/SNAtHXwIoeRXDVqtA6JXqDzMlqJON1+Hbhwii/4u/mGHGY1nVeUz/xF+RHAIOTLsF8IPoaQHSIvjEg+hpAdIi+MSB6ltH8qkAVvugc65jjOhdCe3ldCpkvgvOWygRmmPCbtqsSqpOgBOZdW+OncqpJvgui9wWiZ4HoAaIfAoieBaIHiH4IIPoa5ERXXgUW6znzqmx13K6tylMLDYu2hGAyCt/iu8qL8mwwnSRbVezG7bWuQPQ1gOgQfWNA9DWA6BB9Y+xZ9GGQc8l7dpzZMnhPxk07lOJ2Y9JKLdUs6/ONuw1rHd1qzhHwovx4/dPJTwetQvSOQPR5HWe2QHTdL0R/PBB9XseZLRBd9wvRH8+eRd8oOdH5fxXTxlqBXYf1FmVbVXs8o5DAQusU8fi53znRud+BvWT2uhGidwSidweiQ/TtAdG7A9Eh+vaA6N2B6BB9eywQfZz3eOg+KQSqwr+Prmpy4/lGx0df0ra0oORzmgjydrfvcdJvvkslDt5q7vSq3RC9IxC9DogO0XcNRK8DokP0XYM5usfSHOa/My5IrUc2I3XsGs0kV3ikpFpMJsfoHrn0QerpuG6zgT5bKf0hekcgugdEh+gHA6J7QHSIfjAgeonhduenoU5BdG6K8iAE9nI2lQq06Bk9G/TObRKZhoaVOkdxl0pM5TOsCg14BLY3EL0ERIfoBwCil4DoEP0AQPQ1KDwZ54Z1RGmcSg5S/Ly9PVDDLxyEe6Q+qXIQvSMQfQ0geggQfVNA9DWA6CFA9E1xatGdCKP1cckdNl/0kNYkbrE68QqxmvWsh9+5NlTOqXK4jEpj2bMI5gPRITpEPwEQHaJD9BNwRtHnh6gfkJac6O5gnHyj0PVtiU6uK7cDe4RP9GKH6xxXFbxVfqQQvSMQvbEmRIfoewSiN9aE6BB9j5xR9PVJih6YAVzxkZ6b483wwA+3Z+Umx0b2nFo/0a8Nk+V8OZqokk8DflV+EHwjRO8IRF8DiO4D0R8GRF8DiO4D0R/G8USfE4C9aZijBxXio/neOq0Kzfg+XmiZ67wNnT4GiRqlPrLMZdBHwNvmhSB6RyD6GkB0iL4xIPoaQHSIvjGOJ/oDoUBtmKPXNjyoL4Rz2wKznCSdKzpvLLj31qyVDUcTR6b6UrpD9L5A9I5A9KpDgegPAKJ3BKJXHQpEfwAQfQ1yordBtpEZQU1yrS8NVusKSmPhemAJh5dQC3FMdjkOX43dWu6dRTAfiL4GEB2ibwyIvgYQHaJvDIi+BnNE10JoraWCzlSfW9PguiO+yhp2AHEHDXfkX3PhQ7HHFNtINRwwR+8NRF8DiA7RNwZEXwOIDtE3BkRfgwVzdOW7kJtvKVZr0F1YPsrpcuw0MHVV2hELfEB8hxiZrU2Jg5Yhekcg+hpAdIi+MSD6GkB0iL4xTir6WPOO11whqxpn5hxdCzzc7m7xVV90XmesfzJuUHN0ZTyt6sbVsjgnSnHnGFVHqkfaAtE7AtHnFYLoEH1XQPR5hSA6RN8VEH1eIYgO0XfFSUVvIK+0Ljr4D2/Wi24togGo1UIz2t5a66moEnGgtMP32fEVhjkoeHuqO4jeEYheAqJD9AMA0UtAdIh+AB4seoNF92f+4HK/j57pLQY7X88NyW1SiBTYTXVXd+1cRnp/7s1FF/tsUVFODSiw9AbRuwPR00B0iH4YIHoaiA7RDwPm6IZxyS+jX7GiJ0NeLZg5rLSo3LUoNJj5djNiKLTud5cch9wohqKM50UhekcgugGiQ/TjAdENEB2iHw+IvgZVopM74fZaNq0XL+ouh2DyUnSJy91mubV62kojVQdB5cSSPV59nmwm40cD0TsC0dcAokP0jQHR1wCiQ/SNsUD00c5lnWvZSocmHk/z76NHKbmhwXilm7F28AIC12ezZPYJj/lu94BGGgq1URgZbbWZBqJ3BKKvAUSH6BsDoq8BRIfoG+Nhc/Q5Qu8mCTR8qYVUELFvPdAUS0xyq/+6Svt5IJ0XjL1i3Go9JH4AXacqe+AQvSMQfQ0gOkTfGBB9DSA6RN8YuL22BgXRebxbt+WKZ/LIzanKBlbVKp+T2WCQiI12+O52MTvnrtMCRO8IRF8DiA7RNwZEXwOIDtE3xj5FH5d/70SQk2UO5Tm68iDQRJaEsUYFOa8dRD1ZQndU9rsKlTKU6PrQbELwdU+tQvSOQPQLEB2iHxyIfgGiQ/SDs0/RNWPq+bF6hp6yt70FVmhh1aJCQWnsaONmg6K21ZYPXv4ZZaaJg6MdQSa25FlQ/UD0jkD0CYgO0Y8MRJ+A6BD9yBxD9K0xU3RfQ6VM9CoYy30yTle5HuiGnlJcuamPiJbVwdaeC4jeEYi+BhAdom8MiL4GEB2ib4yOohcu4UboPcrRu9OX+wEHZQqNKmk5VbOaiR38+HSJjOjJfaKEW0i5HtwvtVj8S8L/C9G7A9EXAtEh+h6A6AuB6BB9DywWXV+4fei+MknRlY+c0X0yzuo0LbvmaKVG+YrZpK02wZThRQPPJsrb0aQnfbZUBWoYoncEoq8BRIfoGwOirwFEh+gbA6KvAUSH6BsD99HXwP+lFgpz13jtGDkS2L1zo6hpjxoTuvNM4fjc4LdrPB+G8xAuHUcBOliI3h2IvgYQHaJvDIi+BhAdom+M7qLXXtRDY0WPRlgFlRZ1znFjreiBbmkHaf1oUobTo9pdUFw1HA+Hbwo1D78GmRwgekcg+hpAdIi+MSD6GkB0iL4xDjZH30iOyYk+mp9m8R3OeKW3qt6TJ0FZLhpTSaAq5bgy+/hDcQdLFSB6RyD6GkB0iL4xIPoaQHSIvjF6iD52fvny/inM0XmUa00yojtpwBUpKTpXy08Zfi+ZofgHRN0N7O4g36jr2fGNmKN3BaKvAUQPAaJvCoi+BhA9BIi+KWaJPt6+K+GE0f7pkLf8J+NIjZF9DYRbnrDZdVFkh5pp+mBw+qF1PSAXv3c7MruqrbejHvBLLV2B6AaIDtGPB0Q3QHSIfjwOdnttPo4t8/FFD2xmTAsjm+oOfKtreSzAHSFDQ8L7qBBfyPVSUFyN2O/OaiyGr0qoZiB6XyD6BESH6EcGok9AdIh+ZCB6RyhWC0/GKU/pv+OYnp07qtmW1DCSH5uU00rVbtVeoHQ5ytl+8HKROH5ruXcWwXwgekcgOkTfKhC9IxAdom+VnYg+bu3hu5RCV3zRKdjJBn5Y0zKVyEg+leOFuDJapMzQnZZVOkqKzhsTPaqW7HhqhwjROwLR5wHReWMQffNA9HlAdN4YRN88OxF9C+TdFiRF56aQ0kIRq0wBnjuI6C3/rz2IQif+bjvwpLrWbCdZuKd6wO21rkD0aiA6RN8vEL0aiA7R98udRR/HrU22ixT8dnfnfsCBK+5Iz9drUYJFu0LqSTl5B6zcvPDb9kjtTd3TihVdnwI7PqoD0TsC0UtAdIh+ACB6CYgO0Q/A4+foBZEeTsP4qKj/s8lKzCANEKuh9GPHjuIDe/JMDCjlem1C0cNys8uYyeDKcGcTbzt9FsF8IHoJiA7RDwBELwHRIfoBeLzoBTrlgfnNVNVUYZ77PjqPZl9EZUBSQF6VlxOiq3LqyCp64XN0Oliei3hjhXOW7JHXoQOC6B2B6F1qQnSIvm0gepeaEB2ib5vNi75LkqIHb15+3S7EIhWoQtbBxPNxsTt3lFWWiyEFk4V42+WUqJtQuUk1BtE7AtHXAKL7QPSHAdHXAKL7QPSHAdHXAKL7QPSHAdHXoCx6YJ+U0bKwnNT1ReRtEDSAqEzGvirJHa2pUmDSxq6stLzHkZ70Ve1XnEUwH4i+BhAdom8MiL4GEB2ibwyIvgbJ1z2rcuSEEMkawL2PTqfUbxioSCoZRFmbV0RLmY70wdJB1Z1FMB+IvgYQ3e9IHyxEvxsQfQ0gut+RPliIfjcg+hokXzwRzD0kpXeU1to/sFm7M8lVpgnn9A6rHW9PZBSvB600DTGupPqNnapNwSQpiN4RiL4GED3Zb4DoDwGirwFET/YbIPpDgOgTg4qyRfgvnqCOgpmqhpvJvnDcxSimNVv34KYMtTAqBvv+iniG5HipebHXHiavr0+1ShnZswjmA9EnIDpEPzIQfQKiQ/Qj8xjRe0r1MEZzf4mWfdHtUSu7kqjd0WGl+2jeBCEY2YN4QaUckUXkXa9pgbdhk00cHZ0aW0gPK5hUwM8ORO8IRJ8NRIfo+wGizwaiQ/T9cB/Rk2IrWY5Cco5u490RmMt9LeqkArXV0do1kfce6w9e4tBjDeY6Jvulg+XDT54tiH4HIPoaQPQQIPqmgOhrANFDgOibopPoQ+5C3kpMcUFBcqWq/Z2Ru712JSm6slIrybfzZrikokFViHof2TRau29FDyGRrQebTWifmzsKZ473CNE7AtHXAKJfgOgbAqKvAUS/ANE3xBpz9PLlpEBob3wtKoKQkx974ck4q6QyXmxyF7TfaqvIqfEAWZYVro/e7TBbzbmyqqguxw+zcIJVXhnwFtiuQPQJiA7RjwxEn4DoEP3IPP5LLeUQ2B/+99G534NEbKkx3i/NVy/jcF0nkXT3wUy5+S7RRmA+OqLb7pzdGa7VIHpHIPoaQHTdnbM7A0TvDkRfA4iuu3N2Z4Do3VlP9Nx1pRia2/jGyYk+3r72QScoZ7lyOJYe5e8n2NKCYObNesh+BlCiK3XtFtGdTQW1DLi91huIvgYQHaJvDIi+BhAdom+Mh83R1cV/uPTt0ZihMEd3j31Qz5+5osfKZBFv1U8QoaidlZvnEXF21ILjPW+y71kE84HoExAdoh8ZiD4B0SH6kXn87bU70DuLFCM4+bPJyijenJaM5CZhtYzBZAMf1TU/G3EcVky9JXXUPTOkAKJ3BKLPAKI3nY25QPSOQPQZQPSmszEXiN4RiD4DiN50NuYC0TvyANFVgN+B3qIX8X8fPZi3rF1La50G7/ttStuoId+Rc93mh1ghlXmc8an13DVcen0hekcg+hpA9NK+WWcRzAeirwFEL+2bdRbBfE4xR787yd9HJ50GNlcmYYXiylu+xdmd9NsmAbdhMTIaTaifqd/jLIL5QPQ1gOirnEUwH4i+BhB9lbMI5tNJ9HGU0+AhNb/zNx2N5COwo3w5W7CPvOYFFnurXM+34SjOV7XlDXS4yhC9IxB9DSA6RN8YEH0NIDpE3xjLRC9czRWUXtbkvXKMf3stNTkOTP0WgQf2Los2rUc559e3/Ox/C1QVbT75EL0jEH0NIHqy0JKzCOYD0dcAoicLLTmLYD6r/lLLvbzaHFVfaskYWWd5kAmiqgHHclq/jl0lH76rQO/LDdE7AtHXAKKvchbBfCD6GkD0Vc4imE9Z9Orr7HJO13NPxnG1BjmBbhHd0bWm3GAQotOmIL8KtCwIep1FMB+IvgYQfZWzCOYD0dcAoq9yFsF88KWWNcg9GWct1JanBNYbw+27MUndyd5US4FPxQN787QS21l3l9c9i2A+EH0NIPoqZxHMB6KvAURf5SyC+az6ZFwPxttMkSJz7PZiqPuFqPyRRfqvr7SaLvOFmAkyOSFucUUfLDTwUX7R5rFA9I5A9DWA6D2A6B2B6GsA0XsA0TuyoTm6CC8ba9zvGK5u0YeTFD2wsYfbMWn/rm0k8wARmMN2QZeweYTKBOoxbOl0QvSOQPQ1gOg9gOgdgehrANF7ANE7siHRNWNpLj6omNSBuz4pKazosTT9lytI3vvfGR/kHH3kR+rsuLUn8oAqxI/BuXNmN5b1750iIHpHIPoSIHrN2ZgLRO8IRF8CRK85G3OB6B3pKzq/1L0ve87hO/tdJPmlliBFp1XhJrfSV3xk83ybGWJpVdumlgitq1aTl9HdUZUQaoHoHYHoawDRewDROwLR1wCi9wCid6Sj6L3NHm43pPpxr4SQnKMrqIKjHReOux19Dl5acES3mUKlBZFzAnPdGZnC390nFCB6RyD6GkB0iL4xIPoaQHSIvjFWfQvsMnonjir6pILCzya7dsWeucPB5IfJ0EC/1mYQogvx2W7Rj7beDK4R1cDMZiB6RyC6BKJD9EMC0SUQHaIfEogugegQ/ZBs+BHY+9PH8pD6MC7cPmAc2GdkuiptIlmCFEdIObKP6K4EngBsgrCuayVVq4G+b9dw/HMThASidwSiMyA6RD8qEJ0B0SH6UdnWO+N6t/coyvfR3ZwSteOlaTVw0dWUWzmsZ+Rqq3aY92WTQ/vxq8bm1PfOIpgPRF8DiA7RNwZEXwOIDtE3RrXo1whpv+aHJhXEyTl6kCLRRjFjVnL7dQaJo3gNogG11UkCmUOuPTUNQPSOQPQlQPTmU9MARO8IRF8CRG8+NQ1A9I6sd3utw5XeAzz70XJO9OCdGsd9voXr6NSbY/nAJvVC9EHO9uOoaChVJ0UdzRwgekcg+kIgun9SIPq2gOgLgej+SYHo2wJPxi3HBnRBdLdOUN8vGdm0XSjJa/LSVlXxpRZbSCURjS5ESaYscJ8kD9E7AtGXA9Grjq4ZiN4RiL4ciF51dM1A9I7cTfTxTPfmyqInUSpzGQO38rp7NAhJff1lDojtjbfn4PwS1ClE3yEQfQ0gOkTfGBB9DSA6RN8Yj5mjH936NtEHNh+ORnGvkliNRWMpyx3d+Wh4shBlqYQavjickc3t+55FMB+IvgYQHaJvDIi+BhAdom8M3F5bQiqac6+SsnWSSpNdqoRQ1LVXuK6M5znBQXdE9d2DdQ6oj+XeWQTzgehLgOgQfSdA9CVAdIi+EyD6GlQ9GTeYqe5AWiuH1RbfUKWx1lrlAVqe+r6uq9GIJmiHGrVeVrmpAX743lkE84HoawDRIfrGgOhrANEh+sY4i+jjWjf03ID2f3stU1nvdUVPKh6kI7roaKbmuXzh5g5/+HbsuXJlVGWI3hGIvhCIDtH3AERfCESH6HvgLKLfl+YvtWg/yMdBTrGToofME3RjmqzZLCEE3kX5+N1yyYG7NV/+C9E7AtHXAKJD9I0B0dcAokP0jQHR16BB9IFNrkOQ0+yy3+5ydDPvt247yO/X8NJxpJZR/fiEa/LgpqPUGRlwe603EH0NIDpE3xgQfQ0gOkTfGBB9DSA6RN8YEH0NqkQnnfwdSjW9yrcqT4W9KdFJz7jO/5tLM3a4YkEljsDUzehdcxbBfCD6GkB0iL4xIPoaQHSIvjHuIHrDpd0z/DALj8DawL/+13Gai6md44pfvVXSJ0XXGtuO1Ei0t8H4LTpVQvsRkEkZibMI5gPRewHRA0TfLhC9FxA9QPTtUi36uL03NI8bHNOVKtGVE4OdLrtWajedDMBTgVvOWu205LQ9skRCQ9aK82NsO20QfT0g+hpAdIi+MSD6GkB0iL4x2ufobXY1X+xD4IvOnQnm9loUXQlofbwUz+SBpMNu8wVEaTV2PwG4eaCMLQfROwLR1wCixyOC6JsAoq8BRI9HBNE3weOfjDtiKrCia3OGFDXOJctVia60LYsvCg1yEp7sjjYFNl+PPdKpSi17ZxHMB6KvAUSH6BsDoq8BRIfoG6NddH6l+ytyDJJzdEVgvhR8K+rYWC5ZNJd7rKS1HQWm+1S1/SyC+UD0NYDouskA0R8LRF8DiK6bDBD9sTx+jr5PxuxNxtwcfTQT5TY9a6nLH8U2TJvmCT+nqNupzh/FcwzROwLR5zFCdIi+JyD6PEaIDtH3xCzRh/QtEadozTU9GAXRO2mX2THQY3aLOkqKSavJMaS6Fo3lowOidwSirwFEh+gbA6KvAUSH6Btjluh0HbuZcTDWET3JwB62KxQqN2O3BHqkLXjvkVIVYg29g2cMWhrTUQTROwLR1wCiQ/SNAdHXAKJD9I0x6/vomXnVvcnEyQPbqxW9dg7tlxvYVNovTS7Vwn3kG6fjIssHOctuOxrRpkoc2bMI5gPR12gPold0pJqsOItgPhB9jfYgekVHqsmKswjms+BLLW3oaJnJHXJMhy5qv9RS60Rm1dFdiD6n34E9UyeuG21SCUEnB0owduwDpQl1nu1ph+gdgehrdAHRIfrGgOhrdAHRIfrGaBF9qQG5+ncQ+I6scHutLGxgr2ry65XbsN6SlNrscnt2t05BdNX5cvosgvlA9DWA6H53EP1hlEUHM8BZ7ME6IX9OcDIBOAEQHYATANEBOAEQHYATANEBOAEQHYATANEBOAEQHYATANEBOAEQHYATANEBOAEQHYATANEBOAEQHYATANEBOAEQHYATANEBOAEQHYATANEBOAEQHYAT8P8BaG5vtaoHek8AAAAASUVORK5CYII=;clipPath=inset(66% 32% 1.33% 1.67%);" vertex="1" parent="1">
          <mxGeometry x="414" y="54.3" width="332.81" height="163.91" as="geometry" />
        </mxCell>
        <mxCell id="BBOlooGt3nP8J8cSU1Di-3" value="" style="shape=image;imageAspect=0;aspect=fixed;verticalLabelPosition=bottom;verticalAlign=top;image=data:image/png,iVBORw0KGgoAAAANSUhEUgAAA+gAAAPoCAMAAAB6fSTWAAAAulBMVEUAAAAAADoAAGYAOjoAOmYAOpAAZrYRdzM6AAA6ADo6OgA6Ojo6OmY6ZmY6ZpA6ZrY6kJA6kLY6kNtmAABmOgBmOjpmZmZmkGZmkLZmkNtmtttmtv+QOgCQZjqQZmaQttuQ27aQ29uQ2/+2ZgC2Zjq2kDq2kGa2kJC2tma229u22/+2///MZnfbkDrbkGbbtmbbtpDb27bb29vb2//b/9vb///dzHf/tmb/25D/27b/29v//7b//9v///9ub1YUAAAACXBIWXMAAC4jAAAuIwF4pT92AAAgAElEQVR4nO2d6YLkxnVmqyWa6BFlyqaoGZqUrBk1LVsSyhJtM5qkut//taayEnnjbrEBgUws3/lBYokNwD23KxJI5NNHAMDheXr0AAAA6wPRATgBEB2AEwDRATgBEB2AEwDRATgBEB2AEwDRATgBEB2AEwDRATgBEB2AEwDRATgBEB2AEwDRATgBEB2AEwDRATgBEB2AEwDRATgBEB2AE1AU/QnMAGexB+uE/Dkpix7uyDiOc6sOr/DVoFbEJrn60u+gdtOOK9TEQLVpsLTxuuVl1Yo+97C2yPVUj3l4iaoKFojeEYg+9QvRq4HoOwSiT/1C9Gog+g7Zluid0M6qDGDTyaDShKpGAos2qI7NIMcWPdAJcwXmZ4cWIPqDgejTRojeAkTfGxB92gjRW4Doe+OeolvBppip3lrDtea1r1HNvUczrW4gxrHbBt9+eNGJgsC5hADR7wlErwaiO0D0nQDRq4HoDhB9J2xljp6bVvfDTzUZVJbw5/K26KlEzzk833KI3heIngWiF4DoOwGiZ4HoBSD6TtiK6KsyeLfUAotSv04ofqxA3o/sUbAA0ZXocyyH6H2B6BB9CRB9J0B0iL4EiL4TdiV61cRdFZrCzd2XbK/Q0cielKNQptVwPtHnywzR7wREn9ERRCcg+k6A6DM6gugERN8Jjxe9yt4ro5wxDzVVx5E9I2d7HPM33PgUvpAWqJ9wStFXcB2idwSiQ/QlQPSdANEh+hIg+k54vOiLyeg+RSDfVDC73EOmO3L9PKKHRa7na0D0jkD01h4gugKi7wGI3toDRFdA9D2wFdHb/Ku6L+YUslPuwjTfndc7JQZ2hy2caY4epOgtvhdLQ/SOQHSIvhCIvgcgOkRfCETfA3NFLwgyJ1pWaKCsMXk6uGV5/pkKpNrkOeHsole5XiwN0TsC0SH6QiD6HoDoEH0hEH0PVIs+JibRnYyf04zvJrdXFFKl+fbG3nn7vAE6R2cT3Zqbc702LUD0jkB0iL4QiL4HIDpEXwhE3wPLbq+JWE+lgsVhlNo1NvSY0r2NqUfb73h7yiuc7Mk4R9pay3kDEH1tIHoLEF0D0XcCRG8Bomsg+k64z5Nxi+zyqZV8yPTNd+msMSRm9H4zFMGJEIXoKdHdZiB6dyB6bA+itwPRdwJEj+1B9HYg+k6A6LE9iN4ORN8JC0SvVW0T2NjyC4WE0/FgVXZwS59W9JTexvK86xC9OxBdFgoQvQmIvhMguiwUIHoTEH0ntIjuxnRZn2Vh1LV0xmTRAAmca5KXpjpXTiK69jal/MA+xHCwjV1LQ/SOQHSvAYheBUTfDxDdawCiVwHR98NW3hm3ACWcYkx9lOA4PHp32Hig6no2G0B0LXrOb3eZyMTm+6enf/g+rn747ZPcoPgpvWsGf//105s/9GzwHkB0WdaWgOhJtiJ6wfMP3/b1EqI/Boj+KDYi+qvnnyY97+4lRF8pmHq3Z30WndjMIHbzBq6hHGSyOY/oofhknLvdMT543y+sFL3g+T697A5Eh+hLeLzoJc8h+isQHaIv4eGiv3r+q1wEQ/QLmxNdi22vf3N7ek5N0DxSbOL7dEs6KdyKqo1nEz1kjLf2i8k7b0m1XSN62XOI/gpEh+hLeLDojucf/v03b182/vzzP72uPj9NfHPd/bfL3je//D2r8d3vXjb9/OtLYzEj6HIv7Xzz4du3L5v+wDKH6mzDQHSIvoTHiv7q+Rdiz3++vZn99PklFUjRf/zytvrJn6cKH76dtvzD/0TRfzDlLqK/u2x4w0TXnW2YlUSfaeUK6GAa5O8sioHSCtedL4y8apBhHm7JYTjrHD0Udc+JHkzUFEV3PP/2ifHpRyX6D1FMcvodbfnky9vG97bcSzufXfPB9yS66WzDQHSIvoRHin79vF1vf/rk8mf0h799eXM0/gP8svT05uv/ftn71188Pf3sL5dtz1ONH38Xrb6Ue/rVS7mfLirHck///P3Hn/5MDXqdbRaIDtGX8EDR/+e3fO595V287Xax9ZtpYZLwnbwp98VUaro390yiv5R78w11dM0lzzGp3Br0OtssnUTXl2wFFvfguukzyntmVa3yLecRPdh0mSmnLc/Xy4v+yTSNvv6De0V8wP5u+rOeNr4sxMIvf8VfVt6zBt5Nol+spQnB81TgOf6bPTXodrZZILoHRG/gQaJf+Po5Mzl+1qK/52Wnj9i5oO+f6E/ymBBu/1Y/x43e/bpniN4LiL5RHif619eP0hzDfvruj7950qLT53Lx87nLX/D0J/et4LN+kP4LuVGLzjvbLHe+vaZvWXWCB4y92dVWv7Q1fwTXaD6V6FX4c/Z8nZLoL55fP18T/7x+96+f0WfmUvR3WvQvpLO3++jP4q+EdyT6bSOrZDrbLBBd1y9thehz6C/69HHZezlN/9uX0uSPa4rudLZZILquX9oK0efQX/TbH9Lv+DR9mrs/ffaPX/3JzNGdD8wWie51tlk292ScDwVFTrPyrFsVHW43xUI+Bbn3gkTD1900A4XoDvwzkqpE3PDttWmefflD/udf/dd1xXzq/mw/uGuaoyvR3c42C0SH6HdiJdFfH3e7PdHG/4w3oou9sRDJ/9KQ/dT90vr0qbsS3e1ss0B0iH4n1hL99dP069qz1FaJTlvY1pb76Ep0t7PN0ih68+x3K5DTXHFVwD80+5Scrk2rQ/L9pRB9Bm2vkrossT+6f/z1baN4Mu71o/pLnemxNvZk3F/5k3FPzpNxVnTb2WaB6LEARN8W1S+HfH02/ZuP7Onz716fXCfRp39tX7/TcvlG6evD6VeXb8+6vz7Wnn/W3f7pbjvbLBA9FoDo26L+dc/vJ0c//FbeP4vfWY+JQN8OEzfdpn/6nW+5WdHdzjZLWfTaGVU7DXPqQuml/SZvr3GHQ/4BQF4UovegXvRXW1//Eo93tj//D/HFs6vX8Xvmb/5lqkrfR3/6p3ivzf0+ur695na2VSB6um2I/lgaRH/9Y/ui8oe/XZ5GffPLr75n3yi7fCn19h6a1zfHPH32Fav9+oaZN7/6b3FT/fqGmfjmGO+BGbezjQLR021D9Mdy759kEt9uOxoL5ugF83YwnXfuqLm34TSZQ8McPUdbTNxDdHWPbNvz7CVA9OwmiN6VTYpOL3r87dY/OV8CRM9uguhd2Z7or4/Vff39Pl4HtYSdPBlH8IfZFlDls3pvVK4BtR2i9+Auc3Rxd+3re/T4GCB6bDVZCKI/hPt8GBdf5frmwJ5DdNZqshBEfwh3+tT9pz9+9nqT7PeH/SDuAkSPrSYLQfSHcO/ba4emk+jxZWArX/x7wpOKcD3ztCxE7wdE7whETwPRHwtE7whETwPRHwtE78gs0avuLlfdMy1nhvvfjqcnX6vSljs+iL4AetoYoncEons9QvQHAtHXAKJ7PUL0BwLR16DHiyeSLvaesq8gPUVV3MRHXejR3qW7VoDocxkYEL0jEB2ibwmIvhIQHaJvCYi+Esu+vUaaDH0c1G9e7popapMUf4FzW9vD7bfXF4hOnVK8V1fdPYMEoncEokP0zQDR1wOiQ/TNANHXY9Y744bb3adBzW07iOk3wcNfLfTlehBk7MwmmkWPSg+Gco+7zQb8GPkhJ17fAeYD0U33EP1uQPS7AdFN9xD9bkD0u7HgSy36EvEdvJxOCIFNZm2I5gRbYe7OE8cyW/i312eKnmTRwDaMqzjlWojeEYgO0R8HRL8bEB2iP47VRde/6NKM+PWWHD9t/EVUdaK7sdYQgELMTE5YRlVj3OxkNQq6tq6pwpzbayLS87ofQ397gKNkR6J/+Hbrb4qG6BD9QRxI9Op/9x8HRIfoD2IXotdxCNGdkCoEGd/NZSnHZizhSkbxHffOiXel8XC7nSPuGao8UO5nvD3VF2Y/GadD3nVdrzQf/ibIKw7RuwPRIfojgOh3BqJD9EcA0e/MY37AoSo+G4L4GhhzRjKyO3Z+SmoYBhVd9qWWBqqb3SB50Yfs7bV3T09ffPzw7dunp59/9d9s+99+8/b1R1du60z0b6ffUHx+evrmUvPNL/8v1/OlxW9eFz788RdPT0+3JpjCH/790vjTzz//kxrM8+03nb7xBxF7/IO7/7XrH3/3ejDfs+Oj2j1+4xWiQ/QHsVT0yw+hyp9M++HLm3Kf/Pm6JYp+8/xVu9dfVnzzB6bTi9A/+8tl4a9vb038Zdo+if6ftx1PT5/LPxKk6D+aQbAe3f0X0b8VvUL0BBB9hywU/Z9+TeJNTryPKt7svIn+4R1tehHns9ci//D9++jQbfE5NvFakUSPv8X4pM0Tov9gB8F6dPe/u+2nXrciuu+BUs0Nw6hTKkofH700Ob6u+gNKfYZwXVgsOp+g89g/jOWhJHp+jn79B/Lr71/+0H57E+bvF/N/9fKH/E8XKa//Pk+iM8+vWv7z9x9/+nP8Z5z+cn/9ufTfXx6AmfLHTfT3l39tL3+zu7+jHv/dvwzizdcvg/jw11/cBsF6dPe/HsznLzv/9vb2ZwFEvwMQ/T4sFf1n1798L25+Om17M82S39/+1b2K/uG3VPqq3aexmWuNm/LvbvJdil2Wbgq/i5P9i6vfyOFE0Vm5S69fOD2a/e9o/+VYbpsg+tpA9PuwVPSbbO9JSZLjpulV9ItR09z3uov+Qaa/3acF5vDkrvwfdU4dicIf+d8Ir9q+rrAe3f0xu1wWb0lrC6IrphhMzZJpl45NPj92dq8TymoqPqjbdbVTfRqcqpCYXTZ90qF8VjPXacvORS9aXhSdbptNdr5/Yg7djL2I/j/Cc8oBUzH663kqHtu4lTA3zp7Tor/nVr4kmNvn/LdW3f3v4sZniN4LiL4Jlov+hVp55rfMb38Wv4j1yZfy0zNR7vkq+E34Z3PbXYv+03d//M1TWnT2WV78fI616u53rIboi4Hom2C56N/wlU+1EO9IdPHB/EdV7uWv508/is/clVRM9O/+9bO3tjlZ6p0W+QvZqrt/H6KLQFdO03/9qFwzVhtUSCaYZANuCX6Yi3/AYTA4oh/F9aWiPxdEf/N/+Ofkz+qv58s/5bfmMqL/7Uvtp1cKokP0JiB627/oX2RE/+TPYkr/rP+Q/yZO1dOi3/40+Owfv/pTZo5uP6f7qEW3+yH6AiD65lkoOgkzzceTc3T1ibwU5/Vvd/qILDlHvzTw86/+y3YuSiWsfLYftqUOBqK3AtE3z0LRKfony8Qn5pcb0rdP3b+//p89MMPEef3b/fn29wFv41rOazwjuv3YXvbo7s+L/u6BonONr4wj+2DNBmC7c2Plh2IPxx1opx9ZtKJHdm55WCw6zbrjoy2J++gfr//CT/9Wq38hn5/e/L/f3uxj99GnvwkmhXkleqolQqKLfbetrLK73xf9UyoE0bcARJ/LQtFv4vKnyZ78J+N4KS36y45/esvn0JPz8TGcSfTb3/Q//vop/ZHd6yCmL9l8uH0ywHv09juiP/MH4SH6FoDoc1kq+tMnl4fSL8+6/+z2RbPUs+4fmTpK9Mu/3PGTPXrW/d+e6Fm56U/366Pu3/3u9TM5K/rk6ut3Vi5fZH19Jt5+lu/td0R/Px3e9atum5ijazev1yh3cXW9pcxpKTeMcnvFEiuI7jCrze3ARXd1z4sev/B1+yPe+WJYFJ3+eNcfbj0/8Xlz4ttr13Sg9kWm3dOnAvounOjR2e+IHvv72X9AdDOCGXUg+sNYKPoXt2+O377Wnf8+Ov3xrkWnL8Vcoe+jX+vd/ij/e7yN/vl/2E/UnqO3cRBv/oV28s/5zX7vI/Zbf2/+8B6imxHMqAPRH8ZS0T/+ePkzOr6o5cL15S3xHTD8VVLTB3ha9Ms/nvzLaIk3zHz42+XR1ze//Op77+trHy9fOn36FRvE02df+Xfu7X73Xtrr11jf/Or7j48RnYcXLY/0xrUw79fFk1HQXE3lmKomBroJyGuP3qOytXQSnfd+YNfpQ4dG0fsgvlB2XCA6RH8cWxC907+YWweiQ/THsQHRb98VPTotoqem39PGQX0RzJaouepxpT1umnBzVsXwa0Z2H9EXtLmIrr3zA3qA6Jd3Rt3jhdAPB6LLZYheO6CujT1G9Nc77+f4Bx2iq2WIXjugro09RvTr3epek/1t0357bbjNZUf1oyY0O1964dn/2iot7DfGWltVW+Fuc/RH6d6v94eK/vJ3+8+/Lpc7AhA9NgHR28fUr6Um0UErED02AdHbx9SvJYi+Ki2ip66r2O5e/1xE2H3juO53Nigj8U6E3205yx7yyqIvaOyeNIwUoq8NRGed2hJV7UF0H4i+ISA669SWqGoPovtA9A3R8vvow+3+mRJEX6/aa9wcss2z5wbiwOeMnYLzutpV9Di+bYruD2jOSJXuEL0jEH0Cos8Fou8BiD4B0ecC0fdA9Rw9L/B0gagQV1LXye2jxnhp1V4Zp3Qx6ESnKrcFk97iOoUl372C6GKgW/TdMmeI3HWI3hGI7nUK0XsA0TcERPc6heg9gOgbolH0TpdZieSYTJvcmO4U5Sqh+LfUuOtxFk7Dco9gZdH7Ndbet00zXRMP7wGidwSiT0D0ur4h+j6B6BMQva5viL5Pevw+erxGgX1p3Z1WT5NZGxXlaXVDJDlZI1M67k0N2anP5+i28pqiP5IhQUP92k4wR+8LRIfo9UD03QLRIXo9EH233GGOnrw1Rle0KjCUV1WM/P20qRKBBzD3NpmwUoOg7fcRvdmzfj1a0eNIUmNSRZMDH3B7bQUgOkSf0SNE3xsQHaLP6BGi741Zr5IqxIKKiFzR1D2tC+OMZ+KS2GYKx0EfJriTcN2S2ncH0avO8AqkXNei512fVjI9QPS+QPR0BYhe6Bei7weInq4A0Qv9QvT90On22ljjY7mMvvYUGFX5olCumZxFNpr5lqPO0alfSoMFqELIn07e9oA5+gpA9OxoILrfL0TfGxA9OxqI7vcL0fcGRM+OBqL7/UL0vdH3EdjaoMsUdW59NyQIdyE5Jiev5D4dtJX48hkegb1SkLuYBKrahuh9gehyHaKXgeg7BKLLdYheBqLvkO6PwNpyjk5qmdtV28+ckZRyUb7vyWQ1TP4MbbjlimOLfqWge4FiqyXR6we6RI/jANHzNRgQXQDRdwVEz9dgQHQBRN8VZdGr7pxN14gvuFdzpC+FBWO8LybvvSxpW5qgh2ydQyy3xEvc/xHYh5N0eJSoXQXRedsQvSMQHaLPA6LvCogO0ecB0XdF93fGVcGvP1Xms91yIPQYjOo9fkvNHUPcorKDzUVnED14rout1nXhfbFhiN4RiB57h+iNQPT9ANFj7xC9EYi+HzreXqsxdEI4XZyHN2QQf1Q1I2npdGA3BVVLV84putiqLHen7AXXIXpHIDpEn81+RX9++ofv6yU5AhAdos9mt6L/8BaimwLTWVdXl28UV4w7TLuFE6QJn+c6LVXtWIQ6jrhe1Z1NUrT91KKH2yWnE7Q10f/+6yeIbgpMZ11d3QDRIfpORf/xxXOIbgpMZ11d3QDRIfo+Rf/r2yeI7hSout7TJQxGE1oeldn8yodU1rDr6xg/0pfg3bHrAdHAafiqwElET6IywMiosjysJ/qPv3ux/BcQ3RaouqwQXRSA6FsV/YfLP+dfvIfotkDVZYXoogBE37Don/z5I0R3ClSdTDHZttPWcBNbXGYuekjctHJI+jcnCYhEVDuCwH6D0W3yJKLnznnKdbE13/wqov+vr1/+C9GdAlUnE6KLJiH6VkW/AtGdAlUnE6KLJiE6RN8Y7bfXkriu04K4sjYEnPaKnfqhkqyWEbPQi9NMvuuTiB7yJ2/IvxG22DZE7whEh+hLgOg7AaJD9CVA9J1QJzrXtfb8qhm4sy+lTDkKBrqTZxtwfM63Vz4mXYKv2zEMp5mjF5jhtgCidwSiQ/S1gOgbAqJD9LWA6BtijVdJ0YI/Uw/8MTnvdUwt2E756sh/cyHPNJSqcbi5ia9C9AsQfUNA9EADgOh9gegbAqIHGgBE7wtE3xBr/GxyWRZ38t4cCIWq9BFAvIOX6aIqDqd4LTZ2EtELp4zLDdEfDESPTUD0RiD6foDosQmI3ghE3w8QPTYB0RuB6Puhk+jiihbK8g/gVLVZrucrTWLW6FkmfniYb+YMoi86kVVA9I5A9BYgemTPop8QiN4CRI9A9F0xS3R+jfX1rpp7p9KCnsnZmR1fnR6x5fNm1fa0PCcm3TqDO9W0W84g+vpA9I5A9AQQ/eFA9I5A9AQQ/eFA9I4sFv2K/qJa6tFWoaTThv1Fl+DdjNNNFKbfNTNrR+CQzkgFIHoPIHpHIDobmbu1WNMBovcAoncEorORuVuLNR0geg+ysTlUs0SP47Ds9poWTs+gmWB0iysqmZrtRudU++oJt5ybeqrvj7eShmrXriB6DyB6RyB6BRD9IUD0jkD0CiD6Q4DoHSmL7uvEiQXG28sb7LNo/FZY9XR3lG8Lzo2gquFUggmUNTLN6O1qna9C9B5A9I5AdNZEgOhbAqJ3BKKzJgJE3xIQvSNl0cfMDNW/zRXMrbEGtyNKcSVpbFKVcJrIjE8UtV3nGsuMG6L3AKJ3BKKzorbrXGOZcUP0HkD0jkB0VtR2nWssM26I3gOI3pHGX2pxqbr7FAulrBQMtxm+mvDzJgoM9iE8vk4fIGh/a56jS/Z4XYDoPVhH9O9+94unp6fPvsIbZlSByymH6FVA9K6sIfqH3z5NvPmmWZY9A9Eh+lZZQfTo+QunMr3l99EHM4sd3V9RbH6QzNlC7Ssce0PirbJu81NpN3fE22vJYan1VKcQvQcriP7uxe9f/feL8H98+/T0s7+0+7JbIDo7oADRt0R/0f/+66enr6+LP7yY/kWjLHsGorMDChB9S/QXnb/m+eUf90/bXNk17V9qGdjs2dGOYt/Ohx1I4CDnxmKCzrsbbo/Z+fWCSUe3Bo29js+2BM8gftZwgeg96C/6M/tX/GTvdofo3tj5kUL0R7HufXSIrgro0w/Ry0D0Hqwr+jP+dJcFprNO8nFBlApRtappesEcPpVWwl0ZR/adF66+7kENuWFkqlNdgoaldkP0Hqwq+uVGGz6M4wWmsw7RIfqdWVX097i9pgpMZx2iQ/Q7s6bolxttZ/oHvfX76FaTeEKDfBurmjo75BrmDqv2RAWueFWC4W4GZmjMF6lhxR7zDQeI3ocVRb/84X6mj+IgOkTfLuuJfvH8VH+4Q3SIvl1WE/3HL0/n+Yzvo1vhpvjOOGJXNarmMMipeaExt5CDO5EPKlvp46qc1/Oxbkv0quFvkLVEvzz9+snJPIfovEeIvilWEv2vT2ebn1+A6KxHiL4p1hH9+fIFttN5XjlHp1DhE28lYuKO2wymxviEP1kudi89pRJiPWW5KJGsnapnW92Q6Dzk79Zjn4ZWEf3bp5PdV5uA6BC9f499GlpD9Jd/z9983WzJAYDoEL1/j30aWkH096d7hdQNiA7R+/fYp6F1XjxxTs+X/D46D55hSNzDbogwatXZShTtr+gitSv38V+uGS7SdWHnos9XtWtGWeX76Jwz3UuH6HEXRI91lvU2s7aiu+ji1ZAQXRXwL2eA6KIqROe9zayt6C765S93iJ4qEK/f9fRz1ZbOxgUDn93bgFGK9+t3AalBbEj00HTOVM6a09XQ7RLhl1o6AtGXANH9+rXd5YHoHYHoS4Dofv3a7vJA9I5Uz9HVPaQhdReNgiSXBPJP1W4CHq7+cfAZ/SjfXrct0a+UHbaOLO5rUTMQvSMQPQFEh+hHAqIngOgQ/Ui0/FJLYFFP/x34fTV+Ucv2qhAQndRUWJtCd4N5m90+RE/K52qyoJOQyZI1QPSOQPQ0EH3Doo/VLNHjOED0NBAdoh+GdtEDu9OVCxi7vetUPBk/nXqpik9+OjibE911mLuYpKptp58Og4boHYHore3bQhDd6afDoCF6RyB6a/u2EER3+ukwaIjekVlfaslcabHOE8JIv5roV7o7CwZAhthmrqubE/3KCpYHltfbq+aB6B2B6LOrQnTeqm6sw3Ahekcg+uyqEJ23qhvrMFyI3pG+otsLTIqLXWN6Hp3ZtZxyAJajVAW1W22joivioF3F9fFl2hBnQ52L+dJD9I5AdFMCokP04wHRTQmIfmjRf/rjL56e3nz+p0ZR9k4P0f3rH6S0vsBV5tllaj75vZmu+cKJ92s0j+xDCB7fuxFdrGTw6+XrVLSUZxXR//p2eo/U5+f6tRaIXgFE9+vtUPT38Y1x5/r9NYheAUT36+1P9MvrIT/5/cvf76f7ZaZVRc9dV7VvTN124+vN9rYFVkublGrcLvYhuoAOy4qZlFYZ5ezemujP9A/587leAgvRm4Ho+xX98mL36ZdaXv5tf/OHRln2DERvBaLvV/Qf3tI/4xBdF+gUQiGlnbr+a7gZes3Zx1FOyoP8WXQqt0PRgxTaldRxv+C6baxhPKveR38RHX+6iwI94kctOOFlS/cFopc5lejvnp4+rZXkCED0xlYg+hFE/+7Lk30Wt1D0qgvHL/DoCldIBZnSnZLCQM902V78kfGDOoroV5Ki892u5bnksCXRf3iLB2acAoWgqI2c6zJE3zzHF/360Mwv/9wkyt6B6KxJiB5OIfrP//dvnvDAjC6QvDr+dmWyK7aztTYEeMpoqTcHLrDox9kk2b/oVTSITvsaRrLmh3Ef/u1kpkP0Ul8Q/Yiin+7ROIhe6guiH1P0y2Pv31RacgAgeqkviH5M0S930k/0t/uyD+O0sHx9TH21bLQvouhMp7ZtM4NSPNXRsUWnQgXR3cYaRgLROwLRW5qB6PsW/T37Fjr7gssZgOgtzUD0fYv+w9v4TRa+fAKqRbfXSFueIlmON5kLgXJ4zDS7qtrIZpciXkfzaQS1t2fRQ9H1kBZdyO621DCMdb6mOv2Tfvks7kzvmIHoJSD6cUR/fSju8oaZD5dXx53pH3SIXhvQPUgAACAASURBVASiH0j0j9/Gd8Y9fd1sy46pFv160igQynHCi+oKPArsdh/l1RRntKR25KqmRhx/TaYwFF7JNv+yulvRC4pz8pLnskQtq3zq/nzT/M2pPIfobMQQ/QSiX9/r/vTL359ofn4BoscRQ/QziH5SGm+vDbdnnJwAoSW+g9ypEkdvutaznsZEUdtYsXtxBG56aojSfYpuHS677kivtJ7vOkTvCESPBSA6RD8sED0WgOgQ/bDMejJulFPicvyMbHZfd5eOYqYcDw26F8o1ZIM8OxedO1zGcStTumE8EL0jEJ2Vg+gQ/ahAdFYOokP0o1InOr9AJOZYcxuKdufK+a5TvTFzW09tyq/GvmyPUxDaGnpLqhzfu1vRraeh5p6bb9hS14uxCeqB6LEoRIfohwWix6IQHaIflpY5urpMbVetQNJ16sIvMWY/Llg2Pj9JXVfG7AcI+xQ9sI9GyNPrdl/XnOWu6G2DgegdgehpIDpEPwwQPQ1Eh+iHofH2Go8C2lKOnIarK0qnqjrbKZJUiIoShb5TJUSgqlxnl18Wdiv6IB+Lo40FkqKrBtoGA9E7AtErSkB0iL53IHpFCYgO0fdO3Q84DPKbJXQpg3KOq6Y2xoUhfX9Kb3TThCikRraYosZVlY8iOl2qWZZz5gwGoncEoqcbh+gQ/TBA9HTjEB2iH4aWt8Dyi0obRZDMuZyuzEl01kjVdgZTNb4xNcOvGROxW9GD53oU2vqdFH3OiVRA9I5AdDMaiA7RjwdEN6OB6BD9eDQ+Gaeuv740o/c9l+E2cReFmqFmdHapDSZ3WH4XfLeT1dwe+Uh2LrqP477clXR9pu4QvSMQPTFSiA7RjwRET4wUokP0I9HyfXSSTF07cR25xlyWK6a4V20uVfFkBdb7Ms0M9kTozPPKgURPuV2yXBWq6ldtgegdgehmH0SH6McDopt9EB2iH4+y6GAGOIs9WCfkzwlOJgAnAKIDcAIgOgAnAKIDcAIgOgAnAKIDcAIgOgAnAKIDcAIgOgAnAKIDcAIgOgAnAKIDcAIgOgAnAKIDcAIgOgAnAKIDcALw4olVwFnswTohf04a3wI7541ADYjXO9E7iKhJ9f4q8Yoi/kon/fai8fYrcXwH74u96Er2wl+ONK2ql0iphWshK7p47VLVS5rc4y2cv0Unvy/uAbXVhOgdgejTMkTvC0TfFhB9WobofYHo2wKiT8sQvS8QfVu0vO65+UovKOduTZqs9o3qTc5KGL2bfFZtUrnx9mOCMWr5JmVsTnSuu6oWuBxV5yhzgh6PTVi+7u7BQvTuQPQLEL07EH1bQPQLEL07EH1brCe6xQqWbluVVarGiHDb4woKgcfb7ycqseKyOzihJ9eV90hFy6Lb5BB75moUztE+8A+T77YLEL07EB2irwtE3wQQHaKvC0TfBNW31/Kx5juXLGub5FGQc44vD3ZTkNrpBlw3xRGocSixnYk895uWy6Jbak/f3nAzV9yXOnKI3heILo8AovcGom8CiC6PAKL3BqJvgpYn45Ze7OT6nCwRMnN0vhAtFetso//RAb9zpnvk991GemSO3TNrFn3WudgZuSOz+yB6XyA6RL8TEP2RQHSIficg+iNZ9ck4HcQ111xUKicEsjdVSMysacpNHYkKtMTLBZk7YjNW8XDLAVWi5w7ocLQd1rU0RO8IRIfo9wCiPxiIDtHvAUR/MGvM0TNx7IjfEAJqoj3a2bXNDCNZyWfWfpPuoYy3p+lEb3wcNBr6b8McvfbY90/DwV5PDUTvCESH6HcCoj8SiA7R7wREfyQrPRlXuKgpqWqjQIeE3UcijmpeTt7aCoNedz8qUNmFG0vT9ILoQaaIsxmvsbED0bsD0SH6o4HodwCiQ/RHA9HvwKw5ug3LXLAqEX0rR/kIWoFYmutppReFAnuSbWBz6uQR8N364wDe5MBeDnXd5Yuu6p/KdZVGq4pC9I5AdIh+DyD6g4HoEP0eQPQHM/f2mjNTtRcrtepccHunrBF+nyyOiURPaUzT6tFNNepOnOgoyARDnwXk5uh8ZHxUh/c9d1juPojeF4gO0e8BRH8wEB2i3wOI/mCqRXdNHIqT69q45TfBauuN+TFFh1UG4D3kjkCZF1eofVpVW6zooj1HbkvVadsNVWdY7YLoHYHoEP0eQPQHA9Eh+j2A6A9m2Zda6H7SMLBbUe4Frs0Golw+5B3RldI6cbhax06S41A96nty8tfUcnP0WtGTp2qvlEVXJyXg++hdgegQ/R5A9AcD0SH6PYDoD6Ysei7uClFZZflMJtnclvlG57YZl5626KyRX50q8ZbIcogusIdVOHD6L0TvCEQPAaKvCUTfBBA9BIi+JhB9E0D0ECD6mkD0TbDgwziuSaeImNtYKqPE6CETc11cS9MnjIHJPPLfM6cK11bV8L0QTbwzTrR6UNEtSfGDzJ4QvSMQ3RSH6CsD0R8ARDfFIfrKQPQH0DJHV7NdfmXag7OqQvHWvDP3dtpWO+xBxO5IQLpjnkwOSteRkXvxhG+2exb3ZLx/gmihHCz2VED0jkB0iN4FiL5tIDpE7wJE3zY9Xvd853jU5lE2sGlhoNtmVm5nfqy05q7HJKfuydn4dEWPXbt9Vnm/f8QxqQPkhwzRuwPRIfr9gOgPA6JD9PsB0R/GGj+y2JXaYFflktrY+2wD/+LdwG6vcRnFFlrnc/lr/dQcPfDuVEDv1vLmIeYOyx4+RO8IRIfos4Ho+wGiQ/TZQPT90CL6XUJPT7S5FH5c2KJOucDm1LSDbofFcspY7uPIi6sh00z7Wjp5e61g9s5EbyN3aO7hQ/SOQHSIficg+iOB6BD9TkD0R9L4ffTa6HPd9K+8bTjZo5KlaiRRTGU2bYmdcssHdoeNUsSoSozy3hgZX/ullpzixxI9l7+GRA6E6B2B6BD9HkD0BwPRIfo9gOgPpm6Orq6OvV5xPtspKOwmOzcutOE0QDIG82Qc69t8Jd1v8orb2GLRN215anz+2K3GcauuJ4HoHYHoMjavKxA9R2p8/tgHiL4FILqMzesKRM+RGp8/9gGib4H2J+NU+Lfh3JyqihYbGrpZvuwMLlV7YFNxMfu3w5iW1U03289Y8xbYKvJn6gGowdkT5Ozzj4mvpI4doncEokP0etTg7Aly9vnHxFdSxw7ROwLRIXo9anD2BDn7/GPiK6ljh+gdmfulFseA5FYVKVXhZGPhupDTONn2IGfdgd02C2yWPdruqHLyMwg+8ycOPEdPjbX9AItA9I5AdIjeRGqs7QdYBKJ3BKJD9CZSY20/wCIQvSONT8ZV3eOqDVRbqL1aVV/DTXQylk+0r2VGlQoGmVoGfn9PWU81M6LHsZapPREPYTBa811dgegdgegQvYkBou8SiA7Rmxgg+i4piz4quatisFxoYF8Jsbuc5+D8JosdOeZwpQd+e403OchsQGPV47UlGubozpG4+zZEysrMrkGfv0ogekcgOkRvImVlZtegz18lEL0jEB2iN5GyMrNr0OevEojekcbbazwA1bLWaX6szop0X5s8OpsM5jacPxKqx8vRrirRc0Ms7L47eiTq7JSZYzlE7wtEl5UgugWiHwCILitBdAtEPwAtt9esSyIkyxFcjqHijsHOqeegGvDb47fNxJAG8xkCHfiYf5VUSOUO3hKx6BC7IkbDB1crLeboDwaiO6ti6wDRIfr+gejOqtg6QHSIvn8gurMqtg4QHaLvn8ZfaklFHz38WfHmuIYgdsvNMmAw2UqZN6gSA3tsNqinXrX4t2rXMxCcVyYs+anKLRgfT1WolzsFa/OGmwcgekcgOkSvGwNE3zUQHaLXjQGi75pq0Xm42RAfhvS0Vf1XkJtsD2Y6vk7Ii+gL2a+4OVXV+BIh+uhfme/BUr990cdR/CMB0VcCokP0SiD6noHoEL0SiL5nGufoKZnFVaT/Wo3jdc4opAsFky9885I+ZqBoi23SqJMdEXzmzlvareiDl8JDpeTiLGYq6X0Q/Q5AdBOiEJ2vOpc4BUTfMBDdhChE56vOJU4B0TfMAtHp0sYLrAJDRUsZupUlfp48H4xOVPmNuzucHpz7abyH1MApYkPn22t3xlVVrMRLniHUpwmIfgcgOkSXDBD9iEB0iC4ZIPoRaX9nHMUCXZzpUvL1kPLRXn+1EK+36osvZJQrdV3YPjKCSVJmxaSCaxO7FV2d+aSYBXUtyfZGCa8A0TsC0eV2iD5A9CMC0eV2iD5A9CMy60cW7fUW2WCQ9lK52AC/qMlWg0kFtC9amIrStsjWAana43tD8PKFGNOOb6+FmjtpSnRlaGJTYmNSdO8sgvlAdEmA6EUg+g6B6JIA0YtA9B1SJ7rrj5IjimBL8zTg/FBKcF1yOw0yj4hObbLJ1VYTQl2I4s5vQI1jlN+CWVP0IZNvOrVvEQ7SqbF6CmN5XuYVdMv+DojeFYgO0U37EP14QHSIbtqH6Mej8ffReSzo0OPXjnZUyUf7olpj4u6WMkq/1SmTHyKqDR2cqmsKQD3YINPTyF48tZro+uB6u+5arv22G636o9qn1Neiu0D0jkB0iC7bSwLR9wxEh+iyvSQQfc/M/ZFFRy1aykSfkIKKDqmsYUvwQIjNUiTlele9UJzFJmgfl5unKlFbHQEf8Qqi60NejZR2PuMMatuG6B2B6BDd66gWiL4TIDpE9zqqBaLvhAVPxl2XowfKCPeKRh+V6zrO+L7BJhVVI7XFaSzIJKIJ8rG9gT3xJhp3h09NrCP64jaqelECl31cx/IBoncFoksCRJf2ln2E6HsAoksCRJf2ln2E6Hug/ck468h0+chhFTn8Aot9I5sfD3JiHLfa9oIb9YPJFzF03U65xslsZVvVKUiN8nqwy0QfTGqqquCc4bYercBaPSo9R3Ff9Iz+EL0jEB2iQ/QTANEhOkQ/AQvm6IO9+6ScHuUzZlOkuHGsozQTslXR7GaJXFEdx/rQePc8Q7k9LhB9vq4LROcN0DUsiz7HdVdpH4jeEYgO0WUDEP2QQHSILhuA6IcEokN02QBEPyQtH8bRlR7Zb5mQE5PT9nIGJoQTLSrIAnVRFbUqulPLfh01hjAY18tj4K4PHUSv6nQdagUMXk6Y5TpvCaKvCkSH6KxfiH5UIDpEZ/1C9KPSPkdXYUiGi7d/2XIxkIKc59q2pX3prgNvqWyHmwR0j1WKF0ssFl21XaX+4vxg/auizXIteqYviN4RiA7RZb8Q/ZBAdIgu+4Xoh2TB76PTJRPXb2STdXtBCzEpSripwCmaGl9I3SALRvp4EHxdHWnIpCDVau9vry12uKGXon9zdXcq8V5sCYjeEYgO0WUvEP2QQHSILnuB6Iek5XXPdL1UdExOjOY7aPRfbpA/vdVXmjzLqFXlXHIrD+ip62C+3EYHHiu4bSju9iOLmTPQ0IRwLrQqTudvpG8xVlleBKJ3BKJDdHZVBoh+UCA6RGdXZYDoB6X9dc8De1sDLYitqcipClqRNVTVZBtjYi7uVEiNTISoPeRcY3ys1+0rvzPOP5nlM9zcYy2u247rUfoa9yF6RyA6RE/3CNEPA0SH6OkeIfphqBZ9kPPmwAyIZtBlV9GnReT2jmbaHwPDGtYjmkd2B5APOk7EKWcFN0nxaAws4xHrzNF5n6H3qVG1HZPVetJ1tc79dtxPMTpv3gPzgegQ3asN0Q8GRIfoXm2IfjAab68FE9YixEkebq8rrNhRiDtulF+0HOP50eh4dYehy/LdPHTDHX8fvR/qBOVEt5L65iqlRYmi8RC9LxBdBjdEh+iHBKLL4IboEP2QVL9KapQTVmWXvmSjmfDGEOLrvJywxrbcEOlOQuCZx8b3QHN0Piw9Jnp8jicEHq5U4Q5PxmWOZnGTrusFfNFd73Oi8wiC6B2B6BDd1IboxwOiQ3RTG6Ifj5bbayqS6OL4YaP81vt4vrBBMZBtFAhu22Io5QjOHEEUVR0X9S4SDhddhXm445da+HEE7yI5RWvb41fISGzwvVXq+qQag+gdgehTTYiu2xsg+oGA6FNNiK7bGyD6gWgRXRmgg4eLGcwdtutCvLQqqrTMqqOCyWo03LmpcfcgeCjHIwhSBz/E+WHyTq/L9/w+untAYreqYA8x2WpQohd1j6fG3QjRHwZEh+jpVgNEPwoQHaKnWw0Q/Sg03l6zwcTDQUTVyKazohytUPC4Deuw5KGWC1E+mpHfEbMRHJjGIx8ND1c+/HhofGS6u0eIHqTVQpvMCZr2+vWYc3JpCVWuQ/TuQHSIDtFPAESH6BD9BFR/qWWQZrvRFkOHX8RUtXjnTNmr2xiMpMmoz/XFa9OyU5RijSIu8FSneuEGUOV73l6r0it4ipfhJ2Hkm/hCM0nX1RaI3hGIDtHTQPTDANEhehqIfhiq5+g8uC1Rh1QJERpu3AX71RMeAn6I80KpcklBnGU+OJUcYo9BZiEVvsMGRXeOo9LHYYnSuj3ecNl1iN4RiC6XB4guD2iA6IcAosvlAaLLAxog+iGA6HJ5gOjygAaIfgha3hkXEqLrwFA4xa9FVasiHFTpZHvDTclU0VjD7tDDpWHZfCEK0VaeCvjyw0V3tvPz5dZhZ5+djehfspJXuaJs3nKI3heIbqIvQHR2NiD6MYDoJvoCRGdnA6Ifg8YXTxQiLiQcEesjm85zr7gpzqcCQyrf8FDmpe1I4lfrbEs6Eu1BjPw+OhXiY6ceHvLtNXUexHHws1MtozutrildbrUKiN4RiA7Rs0pqN2tKl1uF6PcGokP0rJLazZrS5VYh+r0pi67VsKE2LVE5MjkwIWjXOLIJNQ9Xp5/BTIl1oNp9zsj8dfugro1aVVP3SGMQSerRc3Q91ir7Uj7qTby9ovrJViH6vYHoED2rpN4UIPougegQPauk3hQg+i6pnqMHpq7aIiIuGLl1VAZpGNUZ+WNYqkk1gBheqV64p0lBeMqJ+YzGoY5x4ClNVVAnYc0fWRQH7rqUrjRbT9F4Zm+5ZYj+GCA6RG8i1WlsO18foj8GiA7Rm0h1GtvO14foj6Fa9FHOQlUgxfAPzMdBZoYYKtow+TyWE6Juj6L91MiGwYrKdo/qSTg1RL9hKsG75idoZdHjGKxIuXpVFFS1jTkV1AUdmvyG6GsA0SF6WlIH2xhE3wMQHaKnJXWwjUH0PVAnOheYxzffMoUYmUOFVAKIJfQO9X30wVikQjex0qoNjWFQYy/IQhGsynkh2vH2Ws45Z9ypcg3oju3p8JMDbZ1jOUTvC0SH6CV0x/Z0QPTNA9EhegndsT0dEH3zNH4fPTC/eWRP0EWlQqOZjTsXP8isEVTjvGu1KobihHlqnwr/UY168LLLwD+KoINVda4b7yC6PRT/DKii3NaE17KQrumPJg9EfzwQnQ2GKxAgOkQ/EBCdDYYrECA6RD8QjW+BVVeXtoxcCpKRFxKXkETigg2u6BaeGWL7bhg6wW4bE4MZpL25Qfh54B5z9LjEjQ35VOe2VCW6v6Nc+8pMyyF6XyA6RE+TLFdV+wpE3wQQHaKnSZarqn0Fom+Clttr6rLruOHGjmxqTtViAS4Vd90JrEz46oDMDY66t834qcWNZnGYvJw6A/f8PnrIJ7l8Ha2kc7yp0ryCrSkKFUiVg+gdgegQnV0053hTpQeIvicgOkRnF8053lTpAaLviWrRuXM2sJx1ul60JQYMv8aUE6iyqKTCjUrETvngeHs6IFUbvDsd/2pVN8ldp4OgMXghuq7ocyioS8eXFLhYOW6dCUTvCESH6GlXk+VqKsetEP3xQHSInnY1Wa6mctwK0R9Py+01fv0dRjbbCnKCTh5EubnrvGiwWSNHsgEeeqM7C2elxcjc3uPGwUsc/L/hvm+BnU/B26pCXG59TRdZDtH7AtEhOkQ/ARAdokP0E9D4FlgrQdx4vTpB3mdz6vDwsMEUC7mRqStc162e1ImOvlTUj6lswB2OjakhUtvXhR2IPsjcrcntq2KR4hC9OxA9UBMQXZzXeqk9IPq2gOiBmoDo4rzWS+0B0bcFRA/UBEQX57Veag+Ivi3av72WUjBeYO6jE2Ij+6wuGVW5Bty75KoO/VeEzlD6YC7JQKJTs0FmHj6yHYh+ZeCZVZ3/wcvD+pw7WzooDtG7A9HrgOgQfddA9DogOkTfNbN+ZNHKHMNjlNNlJ0hUePCiqnKc9gcj8BRRPLBU7MaNdkx8cE7kOzt41lA6WDt2IDoftL91KIrOT0U3vSH6KkB0iJ7YCtGPBESH6ImtEP1IzJqjqyCJznHJ1AKtOkryfXHjwPLKKKfzo5oijvKV0Xq4fDSqUxHN/ADV7ngc1gJ7KI8S3Wan9qKpLBb95lor7yH6VoHoEN3sgOjHA6JDdLMDoh+P6l9qUfIEKdy0gzusAiES5NsabH7QAUQ98vrBvqCCCtF/p4b5eFXpggu8ySp5hr3M0X3UqdGiK+ObRW/LBhC9IxC9FPUBokP0/QPRS1EfIDpE3z9l0aNOgYUyJwobBZSXVm3UL3VToRY7UuERmLPBTqtVRooNq8Q0qvSkPmWwWvvb1Tpf3bPowSR1R3F1bZICqx0Q/WFA9BAgOgHRjwpEDwGiExD9qDSKriKCdoko4OHBXbcpIlZVDU9LKpK4bdOCSjBBih7zCq/EB0Slo+iBpS41ytHucA/o/qL7p7BDqz50HtrUbQOidwSiQ/RsqxD9GEB0iJ5tFaIfg8YfWaSry8Nhuuo2MFQhWTw1ob62QoZeF3gSoSacaFQ9ipEFmQq49KImzyW8VacLZ/ejb6+tajk5yF2H6HsAokP0dEsQ/TBAdIiebgmiH4aWL7WMcrbLL7YID2WODj2+riXjs32XwTzeNo3MthS4m0p3ggpNK3xHYCbrXEKl3QRzCNF5k1p3teBcsA4ZAKJ3BKJD9IomIfregegQvaJJiL53qr/UQtjrGKxRwUsLTijyNkY2N9ZdqO5GtcLjbmTyTU1SG0GqO7IpuxiySgh23AUdtvBknL5uVTWCOcyk5UnFuwHROwLRITqrESD6QYHoEJ3VCBD9oFTP0ckLdaXjajBPntkQEtGn5BMR5gYQVcvBw1UMk1qljmx28u4psbQgjpSGaMN/C6IvQJ0XLbS1fB3dIXpHIDpEN0D04wHRIboBoh+Pujk6v+AUC4FpIeKd/hvcmTDBY4b7N+1TgTXKtDBtt+GhFVdD5pEZvE8cxpFNyp3lUUY6NU819yy6Ol9qOWqtXBe7RpMDZwLROwLRvXikCs6yjXQ+4gDRR4i+QSC6F49UwVm2kc5HHCD6CNE3SPX30dV1TToXmFHKg2nZUZ7N7kXW4NHCq8WG1ZhoWKponGa72SBudcar3E7ZQRW8EN2w6OKYXNGHGoSi6qpA9McD0Vkk+uOF6DVA9G0D0Vkk+uOF6DVA9G1TN0cfzVe0+QW5bo9hrkSisAl6iS0PMnHE+3iuw7wr8aScKqq9pAoppZPP8zkhP7IPIUaZ/fYk+gX3nFX57bs+X26IvhIQHaJD9BMA0SE6RD8BEB2iQ/QTUPcIbPAinSsdnVMa80KBf/KjHVSf3rkakvdRRy6+G7dOF24FEaWqYZ0y6BTwVnkG2ZvohL08vsqO3P2B6B2B6GKgEB2iHxOILgYK0SH6Mameo9uwHtgE2okWtUObYkuIKLItj+ztFE6nbpTGHcpNv7SfHdSIefd8lPy/uxXdkhRdST+6+yD6VoDoED0LRD8GEB2iZ4Hox6D6xRP8ogbvhlaMBaqgJAhkCq8XzDxcV0otO40ngzVTznGYD5+OSTdJxx9MFtq56PwSONeX+8z/G08ZRN8cEB2iGyD68YDoEN0A0Y9HyzvjePjzqzvym11kEUmgQ4U2UT0uy3XBeeMcLxFSVqeSQ3uk8+50aqEVleuowiFET8JFVwm/j+EQvT8QPRHpAaJD9AMB0RORHiA6RD8Q7aIH+dUWIfCVkc3OKXKC9FTkBFXUqWoZ3XlzYBPlWNO279YU67Z9Z2TqdBAHFr3B6aXiQ/SOQHSvE4gO0Q8GRPc6gegQ/WC0/8giDwexoNYHNpHn/43zXit6qqvs3Fut59rgHVFCqKjKmwjphwNpdc+i5yxXxle5TkWbvYfoHYHoEF0C0Q8JRIfoEoh+SGaJrrSLotsd10sW+NQ5mAk2rxl35bVz9pJthC4x2om9aoDGm0SFLB0QT2F7Fj3IUziaDyAqXE+VbnMdoncEossGIHqA6EcEossGIHqA6Eek5VVSJJIKCidURjZ/DYnbVbFcUsxgXsvKG4shlWpYh686FCfA3S00hpGPgGKaH8S13IFEb1RcuT6arAjRHwNEzx4LRIfoxwCiZ48FokP0Y1Atuo0F9V8RISSEIjZAJfhqsLJZ0Z1CajTpXtMz/4T7Fi43j2k+gGOLXmWsTQi1KQKirwFEZ0P3D1UB0SH6DoHobOj+oSogOkTfIXNF50GhwyNInUY5s9ZVRzmbzvnm76OttuuQuqFX275qexzpw4Fb7PIFOgOHF70BdWoa6kP0jkD0bPsQHaIfA4iebR+iQ/Rj0Pjba4qCPsrkwX6phXZwHXW+UALTwjiy+bFtNTkg9zgGnokG9ilDsEmK4pXX5pV3LnrIu66SXE5xa3mD7BC9IxA9BIhugegHA6KHANEtEP1glEUfx8QkWkka1HW9FuLhH1IzZqrmxJpbLi7YlnpEd2ByK43FLUQ7vuvCgURPelrrbC5ZQPS7AdG96A4QHaIfC4juRXeA6BD9WEB0L7oDRIfox6Lvh3F8XRmvC1UZqpKKE4xqH88joo4tmmsslY5ilAbziV04puhJ13P+KpP9NiD6PYHoXmMQHaIfDIjuNQbRIfrBqBbdRv2YmlYrZbgNcXeQqUBVE0q6KUO0xPsNpfwgGhDl7NjpMCk7TdCwAksLdKQ7FN09nVpMrmfaduNwuYQqel2A6B2B6KycHfsA0bmbA0TfKxCdlbNjHyA6d3OA6HulRXSKY22l1W5kdIiV1wAAHgdJREFUs1gtqdKGNgaVTZSGKtMI4fjIeKuxrB6EiXItsE1szrCo6CDz0t5E59dUbYknVUmqEkCD62Irl1uVg+gdgehxSBAdoh8WiB6HBNEh+mFpefEEv0bOZeURwisEqXSw5a6IJmgTF2lQecWu28bEONQA9JHZiHPG5wzC3Jjbm+iEOiBhsi90iozotY1B9I5AdHZkPEST43MGAdEtEH1bQHR2ZDxEk+NzBgHRLRB9W1T/yKK9StfQiAZRhCjoSqtW4t23QWrsVFLBqNtPFSoPjo9Bf6AwyFQwUD4bTNpRTe5fdHWtPVfzt9oKoiuCvKV5BaJ3BKJDdIYr7ADR9w9Eh+gMV9gBou+fOtH5paBYpxAIfFodjCAhpRltHc0EOrZxjRNatq0m5/nBUzD5lZoYjXYAQgJVzm3+QKIP7nya7O0nuh0DRO8IRA8BohOuhRD9AED0ECA64VoI0Q9Ay+01umR0QfhqvExq2XdCXWCtU0Y40aStF1IZxI4staqHT8ks9kj5h3dK/92c6FanXLkCo0FcM17O9dlp0h0GRO8IRHdW9fAhugCi7xCI7qzq4UN0AUTfIXOfjKOL6LvE9RSa2CuqlqeGqbYbqLpTHjA0Pt3LKOflDqOc4fPm4yHzZlTeC8kQfZzoGZ1yRX2/7X+V6Dn8HjIjgegdgegMiJ4Dou8ZiM6A6Dkg+p6pvr1GMc0vcFD6jGb+6oQabQ1S4MF+9YTCiFfgdumvy5SjmZdzSvPGRzYJH9WnEYPJUPxcbEX0olHJ0g55ocv1daHiSCB6RyC6BKIngeh7BqJLIHoSiL5n6uboQ3pWFq8ObeXXKxdIVM2ZPQ8yDwzS8rjAR2M70n0HmVoc6DD58PmCU9tu2aHo4qwyRo6vbz1qSAXXIXpHILoEoquLBNGPAUSXQHR1kSD6MWh/Ms5e+Hj5XE1oYywUPJNzF17FXayj1zPNUDq5lqBqogQ/CCqn6vspjdfZlugNRVMy97DcJzMkiN4RiC5LDBDdA6LvHYguSwwQ3QOi752622sU+2qBYiRendG72UWZwRRPVHOiwI8OWh/YzTk/fihkB090cZi2Gaos7h/yjMfrbEX0DM45SrkosvoKpIYI0TsC0dleiO4C0Q8ARGd7IboLRD8AZdHBDHAWe7BOyJ8TnEwATgBEB+AEQHQATgBEB+AEQHQATgBEB+AEQHQATgBEB+AEQHQATgBEB+AEQHQATgBEB+AEQHQATgBEB+AEQHQATgBEB+AE4MUTq4Cz2IN1Qv6ctLwF9pwkX3dkt9IWK/qoiG9oUj+GMXhv6qLdus+BvUbLgb8Nari9QCsHFVKtipc+0Wu0eNuiXL6HWJAfxGh+xQOidwSil4DoEP0AQPQSEB2iHwCIXgKiQ/QDANHXoEp07oSwkMszSIJynYtecKyQE5S3anAiWagxlbu2w3Betl1xFsF8IPoaQHSIvjEg+hpAdIi+Me4puns1V2KUP/TYg4bGyqInTaMl+i83T4+Gb/IbU23krLTm+f3ynGOlFx8/OGPie2nd7QuidwSiVwPRQ4DoewWiVwPRQ4DoewVz9DVIiq7CmjscDVA7VKGBbsNxLzJ2OYlD66gyAG+VFsTNPipNh5xLH7Zr8SEEP3MQfSUg+hpAdIi+MSD6GkB0iL4xIHpHSOPcHF3pQKuOecoGR3SVEHzJ8lvEPps+YoXAnoajAY02I2UOTact2hS8Dx0gekcgekcgOkTfKhC9IxAdom+Vw4s+DHISuFovfLX59lrBvyBvZQW1bl1PtpdMCFxG1eS0KyQm6LSc7It263Hz3aox7yyC+UD0Xr3wVYgO0TcGRO/VC1+F6BB9Y+xK9AXOzq9aW3PIzS490XNy50WcurMN8EK1bevawagrRFddB6auPxS1MVjXdQ5LnkUwH4jeqyZE94eiNgaI/hAgeq+aEN0fitoYIPpD2JXoW4cCv3aOPrhz25SCzlZlGBfdyQPlLrhtvPnANwVzY004qwanRimEVu2rMUD0jkD0jowQHaJvFIjekRGiQ/SNAtHXwIoeRXDVqtA6JXqDzMlqJON1+Hbhwii/4u/mGHGY1nVeUz/xF+RHAIOTLsF8IPoaQHSIvjEg+hpAdIi+MSB6ltH8qkAVvugc65jjOhdCe3ldCpkvgvOWygRmmPCbtqsSqpOgBOZdW+OncqpJvgui9wWiZ4HoAaIfAoieBaIHiH4IIPoa5ERXXgUW6znzqmx13K6tylMLDYu2hGAyCt/iu8qL8mwwnSRbVezG7bWuQPQ1gOgQfWNA9DWA6BB9Y+xZ9GGQc8l7dpzZMnhPxk07lOJ2Y9JKLdUs6/ONuw1rHd1qzhHwovx4/dPJTwetQvSOQPR5HWe2QHTdL0R/PBB9XseZLRBd9wvRH8+eRd8oOdH5fxXTxlqBXYf1FmVbVXs8o5DAQusU8fi53znRud+BvWT2uhGidwSidweiQ/TtAdG7A9Eh+vaA6N2B6BB9eywQfZz3eOg+KQSqwr+Prmpy4/lGx0df0ra0oORzmgjydrfvcdJvvkslDt5q7vSq3RC9IxC9DogO0XcNRK8DokP0XYM5usfSHOa/My5IrUc2I3XsGs0kV3ikpFpMJsfoHrn0QerpuG6zgT5bKf0hekcgugdEh+gHA6J7QHSIfjAgeonhduenoU5BdG6K8iAE9nI2lQq06Bk9G/TObRKZhoaVOkdxl0pM5TOsCg14BLY3EL0ERIfoBwCil4DoEP0AQPQ1KDwZ54Z1RGmcSg5S/Ly9PVDDLxyEe6Q+qXIQvSMQfQ0geggQfVNA9DWA6CFA9E1xatGdCKP1cckdNl/0kNYkbrE68QqxmvWsh9+5NlTOqXK4jEpj2bMI5gPRITpEPwEQHaJD9BNwRtHnh6gfkJac6O5gnHyj0PVtiU6uK7cDe4RP9GKH6xxXFbxVfqQQvSMQvbEmRIfoewSiN9aE6BB9j5xR9PVJih6YAVzxkZ6b483wwA+3Z+Umx0b2nFo/0a8Nk+V8OZqokk8DflV+EHwjRO8IRF8DiO4D0R8GRF8DiO4D0R/G8USfE4C9aZijBxXio/neOq0Kzfg+XmiZ67wNnT4GiRqlPrLMZdBHwNvmhSB6RyD6GkB0iL4xIPoaQHSIvjGOJ/oDoUBtmKPXNjyoL4Rz2wKznCSdKzpvLLj31qyVDUcTR6b6UrpD9L5A9I5A9KpDgegPAKJ3BKJXHQpEfwAQfQ1yordBtpEZQU1yrS8NVusKSmPhemAJh5dQC3FMdjkOX43dWu6dRTAfiL4GEB2ibwyIvgYQHaJvDIi+BnNE10JoraWCzlSfW9PguiO+yhp2AHEHDXfkX3PhQ7HHFNtINRwwR+8NRF8DiA7RNwZEXwOIDtE3BkRfgwVzdOW7kJtvKVZr0F1YPsrpcuw0MHVV2hELfEB8hxiZrU2Jg5Yhekcg+hpAdIi+MSD6GkB0iL4xTir6WPOO11whqxpn5hxdCzzc7m7xVV90XmesfzJuUHN0ZTyt6sbVsjgnSnHnGFVHqkfaAtE7AtHnFYLoEH1XQPR5hSA6RN8VEH1eIYgO0XfFSUVvIK+0Ljr4D2/Wi24togGo1UIz2t5a66moEnGgtMP32fEVhjkoeHuqO4jeEYheAqJD9AMA0UtAdIh+AB4seoNF92f+4HK/j57pLQY7X88NyW1SiBTYTXVXd+1cRnp/7s1FF/tsUVFODSiw9AbRuwPR00B0iH4YIHoaiA7RDwPm6IZxyS+jX7GiJ0NeLZg5rLSo3LUoNJj5djNiKLTud5cch9wohqKM50UhekcgugGiQ/TjAdENEB2iHw+IvgZVopM74fZaNq0XL+ouh2DyUnSJy91mubV62kojVQdB5cSSPV59nmwm40cD0TsC0dcAokP0jQHR1wCiQ/SNsUD00c5lnWvZSocmHk/z76NHKbmhwXilm7F28AIC12ezZPYJj/lu94BGGgq1URgZbbWZBqJ3BKKvAUSH6BsDoq8BRIfoG+Nhc/Q5Qu8mCTR8qYVUELFvPdAUS0xyq/+6Svt5IJ0XjL1i3Go9JH4AXacqe+AQvSMQfQ0gOkTfGBB9DSA6RN8YuL22BgXRebxbt+WKZ/LIzanKBlbVKp+T2WCQiI12+O52MTvnrtMCRO8IRF8DiA7RNwZEXwOIDtE3xj5FH5d/70SQk2UO5Tm68iDQRJaEsUYFOa8dRD1ZQndU9rsKlTKU6PrQbELwdU+tQvSOQPQLEB2iHxyIfgGiQ/SDs0/RNWPq+bF6hp6yt70FVmhh1aJCQWnsaONmg6K21ZYPXv4ZZaaJg6MdQSa25FlQ/UD0jkD0CYgO0Y8MRJ+A6BD9yBxD9K0xU3RfQ6VM9CoYy30yTle5HuiGnlJcuamPiJbVwdaeC4jeEYi+BhAdom8MiL4GEB2ib4yOohcu4UboPcrRu9OX+wEHZQqNKmk5VbOaiR38+HSJjOjJfaKEW0i5HtwvtVj8S8L/C9G7A9EXAtEh+h6A6AuB6BB9DywWXV+4fei+MknRlY+c0X0yzuo0LbvmaKVG+YrZpK02wZThRQPPJsrb0aQnfbZUBWoYoncEoq8BRIfoGwOirwFEh+gbA6KvAUSH6BsD99HXwP+lFgpz13jtGDkS2L1zo6hpjxoTuvNM4fjc4LdrPB+G8xAuHUcBOliI3h2IvgYQHaJvDIi+BhAdom+M7qLXXtRDY0WPRlgFlRZ1znFjreiBbmkHaf1oUobTo9pdUFw1HA+Hbwo1D78GmRwgekcg+hpAdIi+MSD6GkB0iL4xDjZH30iOyYk+mp9m8R3OeKW3qt6TJ0FZLhpTSaAq5bgy+/hDcQdLFSB6RyD6GkB0iL4xIPoaQHSIvjF6iD52fvny/inM0XmUa00yojtpwBUpKTpXy08Zfi+ZofgHRN0N7O4g36jr2fGNmKN3BaKvAUQPAaJvCoi+BhA9BIi+KWaJPt6+K+GE0f7pkLf8J+NIjZF9DYRbnrDZdVFkh5pp+mBw+qF1PSAXv3c7MruqrbejHvBLLV2B6AaIDtGPB0Q3QHSIfjwOdnttPo4t8/FFD2xmTAsjm+oOfKtreSzAHSFDQ8L7qBBfyPVSUFyN2O/OaiyGr0qoZiB6XyD6BESH6EcGok9AdIh+ZCB6RyhWC0/GKU/pv+OYnp07qtmW1DCSH5uU00rVbtVeoHQ5ytl+8HKROH5ruXcWwXwgekcgOkTfKhC9IxAdom+VnYg+bu3hu5RCV3zRKdjJBn5Y0zKVyEg+leOFuDJapMzQnZZVOkqKzhsTPaqW7HhqhwjROwLR5wHReWMQffNA9HlAdN4YRN88OxF9C+TdFiRF56aQ0kIRq0wBnjuI6C3/rz2IQif+bjvwpLrWbCdZuKd6wO21rkD0aiA6RN8vEL0aiA7R98udRR/HrU22ixT8dnfnfsCBK+5Iz9drUYJFu0LqSTl5B6zcvPDb9kjtTd3TihVdnwI7PqoD0TsC0UtAdIh+ACB6CYgO0Q/A4+foBZEeTsP4qKj/s8lKzCANEKuh9GPHjuIDe/JMDCjlem1C0cNys8uYyeDKcGcTbzt9FsF8IHoJiA7RDwBELwHRIfoBeLzoBTrlgfnNVNVUYZ77PjqPZl9EZUBSQF6VlxOiq3LqyCp64XN0Oliei3hjhXOW7JHXoQOC6B2B6F1qQnSIvm0gepeaEB2ib5vNi75LkqIHb15+3S7EIhWoQtbBxPNxsTt3lFWWiyEFk4V42+WUqJtQuUk1BtE7AtHXAKL7QPSHAdHXAKL7QPSHAdHXAKL7QPSHAdHXoCx6YJ+U0bKwnNT1ReRtEDSAqEzGvirJHa2pUmDSxq6stLzHkZ70Ve1XnEUwH4i+BhAdom8MiL4GEB2ibwyIvgbJ1z2rcuSEEMkawL2PTqfUbxioSCoZRFmbV0RLmY70wdJB1Z1FMB+IvgYQ3e9IHyxEvxsQfQ0gut+RPliIfjcg+hokXzwRzD0kpXeU1to/sFm7M8lVpgnn9A6rHW9PZBSvB600DTGupPqNnapNwSQpiN4RiL4GED3Zb4DoDwGirwFET/YbIPpDgOgTg4qyRfgvnqCOgpmqhpvJvnDcxSimNVv34KYMtTAqBvv+iniG5HipebHXHiavr0+1ShnZswjmA9EnIDpEPzIQfQKiQ/Qj8xjRe0r1MEZzf4mWfdHtUSu7kqjd0WGl+2jeBCEY2YN4QaUckUXkXa9pgbdhk00cHZ0aW0gPK5hUwM8ORO8IRJ8NRIfo+wGizwaiQ/T9cB/Rk2IrWY5Cco5u490RmMt9LeqkArXV0do1kfce6w9e4tBjDeY6Jvulg+XDT54tiH4HIPoaQPQQIPqmgOhrANFDgOibopPoQ+5C3kpMcUFBcqWq/Z2Ru712JSm6slIrybfzZrikokFViHof2TRau29FDyGRrQebTWifmzsKZ473CNE7AtHXAKJfgOgbAqKvAUS/ANE3xBpz9PLlpEBob3wtKoKQkx974ck4q6QyXmxyF7TfaqvIqfEAWZYVro/e7TBbzbmyqqguxw+zcIJVXhnwFtiuQPQJiA7RjwxEn4DoEP3IPP5LLeUQ2B/+99G534NEbKkx3i/NVy/jcF0nkXT3wUy5+S7RRmA+OqLb7pzdGa7VIHpHIPoaQHTdnbM7A0TvDkRfA4iuu3N2Z4Do3VlP9Nx1pRia2/jGyYk+3r72QScoZ7lyOJYe5e8n2NKCYObNesh+BlCiK3XtFtGdTQW1DLi91huIvgYQHaJvDIi+BhAdom+Mh83R1cV/uPTt0ZihMEd3j31Qz5+5osfKZBFv1U8QoaidlZvnEXF21ILjPW+y71kE84HoExAdoh8ZiD4B0SH6kXn87bU70DuLFCM4+bPJyijenJaM5CZhtYzBZAMf1TU/G3EcVky9JXXUPTOkAKJ3BKLPAKI3nY25QPSOQPQZQPSmszEXiN4RiD4DiN50NuYC0TvyANFVgN+B3qIX8X8fPZi3rF1La50G7/ttStuoId+Rc93mh1ghlXmc8an13DVcen0hekcg+hpA9NK+WWcRzAeirwFEL+2bdRbBfE4xR787yd9HJ50GNlcmYYXiylu+xdmd9NsmAbdhMTIaTaifqd/jLIL5QPQ1gOirnEUwH4i+BhB9lbMI5tNJ9HGU0+AhNb/zNx2N5COwo3w5W7CPvOYFFnurXM+34SjOV7XlDXS4yhC9IxB9DSA6RN8YEH0NIDpE3xjLRC9czRWUXtbkvXKMf3stNTkOTP0WgQf2Los2rUc559e3/Ox/C1QVbT75EL0jEH0NIHqy0JKzCOYD0dcAoicLLTmLYD6r/lLLvbzaHFVfaskYWWd5kAmiqgHHclq/jl0lH76rQO/LDdE7AtHXAKKvchbBfCD6GkD0Vc4imE9Z9Orr7HJO13NPxnG1BjmBbhHd0bWm3GAQotOmIL8KtCwIep1FMB+IvgYQfZWzCOYD0dcAoq9yFsF88KWWNcg9GWct1JanBNYbw+27MUndyd5US4FPxQN787QS21l3l9c9i2A+EH0NIPoqZxHMB6KvAURf5SyC+az6ZFwPxttMkSJz7PZiqPuFqPyRRfqvr7SaLvOFmAkyOSFucUUfLDTwUX7R5rFA9I5A9DWA6D2A6B2B6GsA0XsA0TuyoTm6CC8ba9zvGK5u0YeTFD2wsYfbMWn/rm0k8wARmMN2QZeweYTKBOoxbOl0QvSOQPQ1gOg9gOgdgehrANF7ANE7siHRNWNpLj6omNSBuz4pKazosTT9lytI3vvfGR/kHH3kR+rsuLUn8oAqxI/BuXNmN5b1750iIHpHIPoSIHrN2ZgLRO8IRF8CRK85G3OB6B3pKzq/1L0ve87hO/tdJPmlliBFp1XhJrfSV3xk83ybGWJpVdumlgitq1aTl9HdUZUQaoHoHYHoawDRewDROwLR1wCi9wCid6Sj6L3NHm43pPpxr4SQnKMrqIKjHReOux19Dl5acES3mUKlBZFzAnPdGZnC390nFCB6RyD6GkB0iL4xIPoaQHSIvjFWfQvsMnonjir6pILCzya7dsWeucPB5IfJ0EC/1mYQogvx2W7Rj7beDK4R1cDMZiB6RyC6BKJD9EMC0SUQHaIfEogugegQ/ZBs+BHY+9PH8pD6MC7cPmAc2GdkuiptIlmCFEdIObKP6K4EngBsgrCuayVVq4G+b9dw/HMThASidwSiMyA6RD8qEJ0B0SH6UdnWO+N6t/coyvfR3ZwSteOlaTVw0dWUWzmsZ+Rqq3aY92WTQ/vxq8bm1PfOIpgPRF8DiA7RNwZEXwOIDtE3RrXo1whpv+aHJhXEyTl6kCLRRjFjVnL7dQaJo3gNogG11UkCmUOuPTUNQPSOQPQlQPTmU9MARO8IRF8CRG8+NQ1A9I6sd3utw5XeAzz70XJO9OCdGsd9voXr6NSbY/nAJvVC9EHO9uOoaChVJ0UdzRwgekcg+kIgun9SIPq2gOgLgej+SYHo2wJPxi3HBnRBdLdOUN8vGdm0XSjJa/LSVlXxpRZbSCURjS5ESaYscJ8kD9E7AtGXA9Grjq4ZiN4RiL4ciF51dM1A9I7cTfTxTPfmyqInUSpzGQO38rp7NAhJff1lDojtjbfn4PwS1ClE3yEQfQ0gOkTfGBB9DSA6RN8Yj5mjH936NtEHNh+ORnGvkliNRWMpyx3d+Wh4shBlqYQavjickc3t+55FMB+IvgYQHaJvDIi+BhAdom8M3F5bQiqac6+SsnWSSpNdqoRQ1LVXuK6M5znBQXdE9d2DdQ6oj+XeWQTzgehLgOgQfSdA9CVAdIi+EyD6GlQ9GTeYqe5AWiuH1RbfUKWx1lrlAVqe+r6uq9GIJmiHGrVeVrmpAX743lkE84HoawDRIfrGgOhrANEh+sY4i+jjWjf03ID2f3stU1nvdUVPKh6kI7roaKbmuXzh5g5/+HbsuXJlVGWI3hGIvhCIDtH3AERfCESH6HvgLKLfl+YvtWg/yMdBTrGToofME3RjmqzZLCEE3kX5+N1yyYG7NV/+C9E7AtHXAKJD9I0B0dcAokP0jQHR16BB9IFNrkOQ0+yy3+5ydDPvt247yO/X8NJxpJZR/fiEa/LgpqPUGRlwe603EH0NIDpE3xgQfQ0gOkTfGBB9DSA6RN8YEH0NqkQnnfwdSjW9yrcqT4W9KdFJz7jO/5tLM3a4YkEljsDUzehdcxbBfCD6GkB0iL4xIPoaQHSIvjHuIHrDpd0z/DALj8DawL/+13Gai6md44pfvVXSJ0XXGtuO1Ei0t8H4LTpVQvsRkEkZibMI5gPRewHRA0TfLhC9FxA9QPTtUi36uL03NI8bHNOVKtGVE4OdLrtWajedDMBTgVvOWu205LQ9skRCQ9aK82NsO20QfT0g+hpAdIi+MSD6GkB0iL4x2ufobXY1X+xD4IvOnQnm9loUXQlofbwUz+SBpMNu8wVEaTV2PwG4eaCMLQfROwLR1wCixyOC6JsAoq8BRI9HBNE3weOfjDtiKrCia3OGFDXOJctVia60LYsvCg1yEp7sjjYFNl+PPdKpSi17ZxHMB6KvAUSH6BsDoq8BRIfoG6NddH6l+ytyDJJzdEVgvhR8K+rYWC5ZNJd7rKS1HQWm+1S1/SyC+UD0NYDouskA0R8LRF8DiK6bDBD9sTx+jr5PxuxNxtwcfTQT5TY9a6nLH8U2TJvmCT+nqNupzh/FcwzROwLR5zFCdIi+JyD6PEaIDtH3xCzRh/QtEadozTU9GAXRO2mX2THQY3aLOkqKSavJMaS6Fo3lowOidwSirwFEh+gbA6KvAUSH6Btjluh0HbuZcTDWET3JwB62KxQqN2O3BHqkLXjvkVIVYg29g2cMWhrTUQTROwLR1wCiQ/SNAdHXAKJD9I0x6/vomXnVvcnEyQPbqxW9dg7tlxvYVNovTS7Vwn3kG6fjIssHOctuOxrRpkoc2bMI5gPR12gPold0pJqsOItgPhB9jfYgekVHqsmKswjms+BLLW3oaJnJHXJMhy5qv9RS60Rm1dFdiD6n34E9UyeuG21SCUEnB0owduwDpQl1nu1ph+gdgehrdAHRIfrGgOhrdAHRIfrGaBF9qQG5+ncQ+I6scHutLGxgr2ry65XbsN6SlNrscnt2t05BdNX5cvosgvlA9DWA6H53EP1hlEUHM8BZ7ME6IX9OcDIBOAEQHYATANEBOAEQHYATANEBOAEQHYATANEBOAEQHYATANEBOAEQHYATANEBOAEQHYATANEBOAEQHYATANEBOAEQHYATANEBOAEQHYATANEBOAEQHYAT8P8BaG5vtaoHek8AAAAASUVORK5CYII=;clipPath=inset(33.33% 32.67% 33.67% 2%);" vertex="1" parent="1">
          <mxGeometry x="20" y="50" width="341.53" height="172.51" as="geometry" />
        </mxCell>
      </root>
    </mxGraphModel>
  </diagram>
</mxfile>
